<svg width="112" height="215" viewBox="0 0 112 215" fill="none" xmlns="http://www.w3.org/2000/svg">
<path d="M102.622 0H9.37775C6.8915 0.00285662 4.5079 0.985867 2.74985 2.73339C0.991807 4.4809 0.00287383 6.85023 0 9.32159L0 205.678C0.00287383 208.15 0.991807 210.519 2.74985 212.267C4.5079 214.014 6.8915 214.997 9.37775 215H102.622C105.108 214.997 107.492 214.014 109.25 212.267C111.008 210.519 111.997 208.15 112 205.678V9.32159C111.997 6.85023 111.008 4.4809 109.25 2.73339C107.492 0.985867 105.108 0.00285662 102.622 0V0ZM107.064 205.678C107.064 206.849 106.596 207.973 105.763 208.801C104.93 209.629 103.8 210.094 102.622 210.094H9.37775C8.19964 210.094 7.06977 209.629 6.23672 208.801C5.40367 207.973 4.93566 206.849 4.93566 205.678V9.32159C4.93697 8.15093 5.40539 7.02858 6.23816 6.2008C7.07093 5.37302 8.20004 4.9074 9.37775 4.9061H14.879L23.1601 15.3669C25.1719 17.9082 28.5943 19.4282 32.3157 19.4282H78.2361C81.9053 19.4282 85.302 17.9436 87.3178 15.4581L95.891 4.9061H102.622C103.8 4.9074 104.929 5.37302 105.762 6.2008C106.595 7.02858 107.063 8.15093 107.064 9.32159V205.678Z" fill="black"/>
<path d="M80.8767 194.104H31.1252C30.7325 194.104 30.3559 194.259 30.0782 194.535C29.8005 194.811 29.6445 195.185 29.6445 195.576C29.6445 195.966 29.8005 196.34 30.0782 196.616C30.3559 196.892 30.7325 197.048 31.1252 197.048H80.8767C81.2694 197.048 81.646 196.892 81.9237 196.616C82.2014 196.34 82.3574 195.966 82.3574 195.576C82.3574 195.185 82.2014 194.811 81.9237 194.535C81.646 194.259 81.2694 194.104 80.8767 194.104Z" fill="black"/>
<path fill-rule="evenodd" clip-rule="evenodd" d="M24.5289 91.5792C30.8663 83.2075 39.8127 75.1222 50.3385 75.5991C60.2384 76.0446 64.4426 87.8133 72.3574 93.7467C80.6089 99.9353 95.3813 100.388 96.937 110.545C98.4888 120.682 87.5741 128.915 78.4846 133.764C71.9261 137.263 64.4446 132.971 57.0944 131.801C52.7698 131.115 49.1263 129.637 44.9221 128.418C35.1139 125.573 21.5833 128.975 16.6585 120.078C11.6893 111.105 18.3327 99.7606 24.5289 91.5792Z" fill="#6EB24F"/>
<path d="M92.2967 83.5018L91.8308 82.5461C91.7369 82.3532 91.5979 82.1854 91.4255 82.0568C91.2531 81.9282 91.0522 81.8425 90.8397 81.8067C90.6271 81.771 90.409 81.7863 90.2037 81.8515C89.9983 81.9166 89.8116 82.0296 89.6591 82.1811L82.7008 89.0977C82.6692 89.1289 82.6264 89.1464 82.5819 89.1464C82.5373 89.1464 82.4945 89.1289 82.4629 89.0977L79.1836 85.8371C79.1679 85.8217 79.1554 85.8034 79.1468 85.7832C79.1383 85.763 79.1339 85.7413 79.1339 85.7193C79.1339 85.6974 79.1383 85.6757 79.1468 85.6555C79.1554 85.6353 79.1679 85.6169 79.1836 85.6016L86.0936 78.7331C86.2477 78.5799 86.3623 78.392 86.4276 78.1854C86.4929 77.9787 86.5071 77.7594 86.4688 77.5462C86.4305 77.3329 86.3409 77.132 86.2077 76.9606C86.0745 76.7892 85.9016 76.6523 85.7037 76.5616L84.7165 76.1083C82.6513 75.157 80.4017 74.6664 78.1254 74.6708C69.4486 74.6708 62.3866 81.6914 62.3866 90.3173C62.3865 91.4481 62.5093 92.5755 62.7528 93.68C62.7589 93.7074 62.7579 93.7359 62.75 93.7628C62.7421 93.7897 62.7274 93.8142 62.7074 93.834L41.5107 114.906C41.4801 114.936 41.4387 114.954 41.3952 114.955C39.6924 114.926 38.0009 115.236 36.4204 115.867C34.8399 116.498 33.4021 117.436 32.1918 118.627C30.9814 119.818 30.0229 121.238 29.3725 122.803C28.7221 124.367 28.393 126.045 28.4046 127.738C28.4579 134.626 34.1379 140.272 41.0675 140.325H41.1662C44.55 140.322 47.7941 138.984 50.1867 136.606C52.5792 134.227 53.9247 131.002 53.9279 127.639C53.9279 127.565 53.9279 127.492 53.9279 127.418C53.9271 127.395 53.931 127.372 53.9395 127.351C53.948 127.329 53.9608 127.31 53.9772 127.294L75.5767 105.824C75.5948 105.805 75.6171 105.791 75.6416 105.783C75.6661 105.775 75.6922 105.773 75.7178 105.776C76.5146 105.898 77.3194 105.959 78.1254 105.959C86.8023 105.959 93.8623 98.9423 93.8623 90.3173C93.8697 87.9566 93.3342 85.6254 92.2967 83.5018V83.5018ZM78.1274 101.752C77.2205 101.753 76.3167 101.647 75.4345 101.438L75.0209 101.339C74.7959 101.287 74.5611 101.292 74.3386 101.354C74.1161 101.417 73.9134 101.534 73.7495 101.697L50.009 125.302C49.8665 125.443 49.7578 125.614 49.6906 125.803C49.6235 125.992 49.5997 126.193 49.621 126.392L49.6585 126.75C49.6892 127.047 49.7047 127.345 49.7049 127.643C49.7035 128.785 49.4704 129.916 49.0195 130.966C48.5686 132.017 47.9092 132.967 47.0807 133.758C46.2522 134.55 45.2716 135.168 44.1975 135.574C43.1235 135.98 41.978 136.167 40.8296 136.124C36.4063 135.953 32.8072 132.375 32.6364 127.98C32.5917 126.838 32.779 125.699 33.1872 124.631C33.5954 123.563 34.216 122.588 35.012 121.764C35.8081 120.94 36.7631 120.284 37.82 119.835C38.8769 119.387 40.014 119.154 41.1633 119.152C41.4626 119.153 41.7618 119.168 42.0596 119.199L42.4189 119.236C42.6192 119.257 42.8216 119.233 43.0114 119.166C43.2012 119.099 43.3735 118.991 43.5156 118.849L66.9511 95.558C67.1265 95.3844 67.2504 95.1661 67.3093 94.9271C67.3681 94.688 67.3596 94.4375 67.2848 94.203L67.1456 93.7653C66.6022 92.0507 66.4727 90.233 66.7674 88.4593C67.0621 86.6857 67.7727 85.0059 68.8418 83.556C69.9109 82.106 71.3085 80.9267 72.9213 80.1133C74.5341 79.3 76.3169 78.8756 78.1254 78.8744C78.5873 78.8744 79.0487 78.9012 79.5074 78.9548C79.5402 78.9575 79.5715 78.9698 79.5972 78.9903C79.6229 79.0107 79.6418 79.0384 79.6516 79.0696C79.6628 79.0986 79.6651 79.1303 79.6581 79.1605C79.651 79.1908 79.635 79.2183 79.6121 79.2394L74.0427 84.7774C73.7894 85.0297 73.6471 85.3717 73.6471 85.7282C73.6471 86.0847 73.7894 86.4266 74.0427 86.679L81.6229 94.2138C81.8766 94.4655 82.2204 94.6069 82.5789 94.6069C82.9374 94.6069 83.2812 94.4655 83.5349 94.2138L89.2307 88.5521C89.2529 88.53 89.281 88.5145 89.3117 88.5075C89.3424 88.5005 89.3745 88.5022 89.4042 88.5124C89.434 88.5227 89.4602 88.541 89.48 88.5654C89.4998 88.5898 89.5122 88.6192 89.516 88.6502C89.5968 89.2049 89.6373 89.7647 89.6374 90.3252C89.6316 93.3575 88.4166 96.2638 86.2587 98.4072C84.1008 100.551 81.176 101.756 78.1254 101.759L78.1274 101.752Z" fill="black"/>
<path d="M43.4567 121.33C43.3359 121.21 43.1857 121.124 43.0209 121.08C42.8562 121.036 42.6828 121.036 42.5179 121.08L37.4026 122.442C37.2369 122.486 37.0858 122.572 36.9644 122.693C36.8431 122.813 36.7559 122.964 36.7116 123.128L35.3415 128.212C35.2975 128.376 35.2976 128.549 35.3418 128.713C35.386 128.876 35.4727 129.026 35.5932 129.146L39.3374 132.868C39.4282 132.958 39.5359 133.029 39.6545 133.078C39.7731 133.127 39.9001 133.152 40.0284 133.152C40.1128 133.152 40.1968 133.14 40.2781 133.118L45.3935 131.756C45.5592 131.712 45.7103 131.626 45.8316 131.505C45.9529 131.384 46.0401 131.234 46.0844 131.069L47.4526 125.989C47.4965 125.825 47.4963 125.652 47.4522 125.489C47.408 125.325 47.3214 125.176 47.2009 125.056L43.4567 121.33ZM43.9088 126.432L43.2356 128.923L40.7263 129.592L38.8922 127.766L39.5644 125.271L42.0737 124.603L43.9088 126.432Z" fill="black"/>
</svg>
