<svg width="112" height="215" viewBox="0 0 112 215" fill="none" xmlns="http://www.w3.org/2000/svg">
<g clip-path="url(#clip0)">
<path d="M102.216 0H9.34063C6.86422 0.00285662 4.49006 0.985867 2.73897 2.73339C0.987881 4.4809 0.00286245 6.85023 0 9.32159L0 205.678C0.00286245 208.15 0.987881 210.519 2.73897 212.267C4.49006 214.014 6.86422 214.997 9.34063 215H102.216C104.692 214.997 107.067 214.014 108.818 212.267C110.569 210.519 111.554 208.15 111.557 205.678V9.32159C111.554 6.85023 110.569 4.4809 108.818 2.73339C107.067 0.985867 104.692 0.00285662 102.216 0V0ZM106.64 205.678C106.64 206.849 106.174 207.973 105.345 208.801C104.515 209.629 103.389 210.094 102.216 210.094H9.34063C8.16718 210.094 7.04179 209.629 6.21203 208.801C5.38227 207.973 4.91612 206.849 4.91612 205.678V9.32159C4.91742 8.15093 5.38399 7.02858 6.21347 6.2008C7.04294 5.37302 8.16758 4.9074 9.34063 4.9061H14.8201L23.0684 15.3669C25.0722 17.9082 28.4811 19.4282 32.1878 19.4282H77.9264C81.581 19.4282 84.9643 17.9436 86.9721 15.4581L95.5114 4.9061H102.216C103.389 4.9074 104.514 5.37302 105.343 6.2008C106.173 7.02858 106.639 8.15093 106.64 9.32159V205.678Z" fill="black"/>
<path d="M80.5547 194.104H31.0002C30.6091 194.104 30.2339 194.259 29.9574 194.535C29.6808 194.811 29.5254 195.185 29.5254 195.576C29.5254 195.966 29.6808 196.341 29.9574 196.617C30.2339 196.893 30.6091 197.048 31.0002 197.048H80.5547C80.9459 197.048 81.321 196.893 81.5976 196.617C81.8742 196.341 82.0296 195.966 82.0296 195.576C82.0296 195.185 81.8742 194.811 81.5976 194.535C81.321 194.259 80.9459 194.104 80.5547 194.104Z" fill="black"/>
<path fill-rule="evenodd" clip-rule="evenodd" d="M41.9841 140.938C33.5992 134.64 25.4935 125.746 25.9713 115.284C26.4216 105.443 38.2105 101.264 44.161 93.4032C50.3622 85.2022 50.8154 70.5173 60.9938 68.9709C71.1514 67.4284 79.4007 78.2787 84.2598 87.3128C87.766 93.832 83.4653 101.269 82.2933 108.575C81.6051 112.874 80.1244 116.495 78.9032 120.675C76.0518 130.424 79.4617 143.874 70.5458 148.77C61.5503 153.702 50.1832 147.098 41.9841 140.938Z" fill="#6EB24F"/>
<path d="M100.79 108.425C99.7216 101.872 97.06 92.3848 90.4498 84.3957C86.799 79.9658 82.1949 76.4138 76.9796 74.0036C70.8905 71.1767 63.7622 69.7461 55.7784 69.7461C47.7946 69.7461 40.6623 71.1767 34.5791 73.9987C29.3634 76.4083 24.7592 79.9604 21.1089 84.3908C14.4958 92.3819 11.8342 101.868 10.7654 108.425C10.5904 109.501 10.6517 110.602 10.945 111.652C11.2383 112.702 11.7566 113.676 12.4641 114.506C13.1717 115.337 14.0515 116.004 15.0428 116.462C16.0341 116.92 17.1132 117.157 18.2055 117.158H53.2082L53.222 142.227C53.2082 142.752 53.2397 145.391 55.1462 147.394C56.5138 148.832 58.4429 149.561 60.8793 149.561C63.2007 149.561 65.0531 148.835 66.3854 147.403C67.6459 146.047 68.107 144.353 68.2722 143.172C68.3331 142.698 68.2051 142.22 67.9157 141.839C67.6263 141.459 67.1988 141.207 66.7252 141.139C66.2517 141.07 65.7701 141.19 65.3843 141.472C64.9985 141.755 64.7394 142.177 64.6628 142.649C64.5645 143.336 64.3098 144.283 63.6982 144.935C63.0867 145.587 62.1566 145.916 60.8813 145.916C59.496 145.916 58.4626 145.574 57.8097 144.899C56.8698 143.925 56.8717 142.463 56.8737 142.339C56.8737 142.309 56.8737 142.292 56.8737 142.253L56.856 117.158H93.3503C94.4426 117.157 95.5217 116.92 96.513 116.462C97.5043 116.004 98.3841 115.337 99.0916 114.506C99.7992 113.676 100.318 112.702 100.611 111.652C100.904 110.602 100.965 109.501 100.79 108.425ZM37.4304 111.172C37.6733 106.833 38.279 100.302 39.7853 93.8292C41.209 87.7132 43.1449 82.8709 45.5401 79.4376C48.3747 75.3665 51.7245 73.3953 55.7784 73.3953C59.8322 73.3953 63.1811 75.3714 66.0167 79.4376C68.4108 82.8719 70.3429 87.7122 71.7705 93.8292C73.2768 100.305 73.8825 106.833 74.1253 111.172C74.1428 111.474 74.0981 111.777 73.9942 112.061C73.8903 112.345 73.7293 112.605 73.521 112.825C73.3127 113.045 73.0617 113.221 72.7831 113.34C72.5046 113.46 72.2045 113.521 71.9013 113.521H39.6515C39.3486 113.521 39.0488 113.459 38.7706 113.339C38.4924 113.22 38.2417 113.044 38.0338 112.824C37.8258 112.604 37.6651 112.345 37.5613 112.06C37.4576 111.776 37.413 111.474 37.4304 111.172ZM42.8618 74.926C43.0024 74.9295 43.1393 74.9721 43.2569 75.049C43.3746 75.126 43.4685 75.2341 43.5279 75.3614C43.5874 75.4886 43.6101 75.6299 43.5935 75.7693C43.5769 75.9087 43.5217 76.0407 43.434 76.1505C43.1272 76.5371 42.8234 76.9463 42.5304 77.3672C39.8698 81.1881 37.746 86.4622 36.2191 93.0422C34.6017 100.009 33.9852 106.877 33.7532 111.408C33.7244 111.977 33.4773 112.513 33.0631 112.906C32.6489 113.299 32.0993 113.517 31.5281 113.516H18.2055C17.6414 113.516 17.0841 113.393 16.5724 113.156C16.0606 112.919 15.6066 112.574 15.2418 112.145C14.877 111.715 14.6101 111.212 14.4598 110.669C14.3094 110.127 14.2791 109.558 14.3709 109.003C16.0699 98.592 22.0036 80.3246 42.6582 74.9544C42.7246 74.9363 42.793 74.9268 42.8618 74.926V74.926ZM75.3377 93.0422C73.8097 86.4622 71.686 81.1881 69.0254 77.3672C68.7304 76.9473 68.4295 76.5381 68.1218 76.1505C68.0341 76.0407 67.9789 75.9087 67.9623 75.7693C67.9457 75.6299 67.9684 75.4886 68.0278 75.3614C68.0873 75.2341 68.1811 75.126 68.2988 75.049C68.4165 74.9721 68.5534 74.9295 68.694 74.926C68.7631 74.9264 68.8318 74.9356 68.8985 74.9534C89.5541 80.3276 95.4878 98.5949 97.1859 109.002C97.2777 109.557 97.2474 110.126 97.097 110.668C96.9466 111.211 96.6798 111.715 96.315 112.144C95.9502 112.573 95.4962 112.918 94.9844 113.155C94.4727 113.392 93.9154 113.515 93.3513 113.515H80.0276C79.4566 113.516 78.9072 113.297 78.4933 112.905C78.0793 112.512 77.8323 111.976 77.8036 111.407C77.5765 106.875 76.9551 100.01 75.3377 93.0422Z" fill="black"/>
</g>
<defs>
<clipPath id="clip0">
<rect width="111.557" height="215" fill="white"/>
</clipPath>
</defs>
</svg>
