<svg width="116" height="223" viewBox="0 0 116 223" fill="none" xmlns="http://www.w3.org/2000/svg">
<path d="M105.721 0.588135H10.2483C7.70267 0.591077 5.26211 1.60364 3.46205 3.4037C1.66199 5.20376 0.649427 7.64432 0.646484 10.19L0.646484 212.451C0.649427 214.996 1.66199 217.437 3.46205 219.237C5.26211 221.037 7.70267 222.049 10.2483 222.052H105.721C108.267 222.049 110.707 221.037 112.507 219.237C114.307 217.437 115.32 214.996 115.323 212.451V10.19C115.32 7.64432 114.307 5.20376 112.507 3.4037C110.707 1.60364 108.267 0.591077 105.721 0.588135V0.588135ZM110.269 212.451C110.269 213.657 109.79 214.814 108.937 215.667C108.084 216.52 106.927 216.999 105.721 216.999H10.2483C9.04207 216.999 7.88521 216.52 7.03224 215.667C6.17928 214.814 5.70009 213.657 5.70009 212.451V10.19C5.70143 8.98413 6.18105 7.82804 7.03372 6.97537C7.88639 6.1227 9.04248 5.64308 10.2483 5.64174H15.8811L24.36 16.417C26.4199 19.0348 29.9241 20.6004 33.7345 20.6004H80.7523C84.5091 20.6004 87.987 19.0712 90.0509 16.511L98.829 5.64174H105.721C106.927 5.64308 108.083 6.1227 108.936 6.97537C109.788 7.82804 110.268 8.98413 110.269 10.19V212.451Z" fill="black"/>
<path d="M83.4545 200.528H32.5141C32.112 200.528 31.7264 200.688 31.4421 200.972C31.1578 201.256 30.998 201.642 30.998 202.044C30.998 202.446 31.1578 202.832 31.4421 203.116C31.7264 203.401 32.112 203.56 32.5141 203.56H83.4545C83.8566 203.56 84.2422 203.401 84.5265 203.116C84.8109 202.832 84.9706 202.446 84.9706 202.044C84.9706 201.642 84.8109 201.256 84.5265 200.972C84.2422 200.688 83.8566 200.528 83.4545 200.528Z" fill="black"/>
<path fill-rule="evenodd" clip-rule="evenodd" d="M55.8058 73.8847C66.5912 73.6553 78.8037 75.704 85.0803 84.4791C90.9849 92.7327 84.1211 103.608 84.3253 113.754C84.5386 124.335 93.5229 136.512 86.2841 144.232C79.0594 151.937 65.4844 148.396 55.8058 144.169C48.8207 141.119 47.5593 132.365 43.855 125.704C41.6749 121.786 40.5621 117.914 38.8873 113.754C34.9809 104.051 23.6628 95.3262 27.7491 85.697C31.8688 75.988 45.2589 74.1091 55.8058 73.8847Z" fill="#FEDA00"/>
<path d="M39.9031 146.708C38.7256 146.28 37.4369 146.032 36.3898 145.394C32.9614 143.289 31.8052 140.086 32.2014 136.168C32.6966 131.267 33.1049 126.358 33.5537 121.453C33.9937 116.64 34.4351 111.827 34.8777 107.013C35.2147 103.323 35.5495 99.6321 35.8824 95.9417C36.0168 94.4407 36.8436 93.6503 38.3516 93.6453C40.4458 93.6382 42.54 93.6453 44.7404 93.6453C44.7404 93.3532 44.7313 93.0884 44.7404 92.8236C44.8222 90.7799 44.6979 88.7008 45.0315 86.6986C46.493 77.9245 56.8933 73.1479 64.5455 77.682C68.9704 80.3028 71.1768 84.2415 71.2698 89.3689C71.2951 90.7678 71.2698 92.1686 71.2698 93.6453H75.1025C76.0232 93.6453 76.945 93.6301 77.8658 93.6453C79.112 93.6726 79.9984 94.4913 80.1116 95.7334C80.6311 101.393 81.1446 107.055 81.6519 112.719C82.2291 119.046 82.8254 125.37 83.3873 131.698C83.5895 133.943 83.8775 136.199 83.829 138.443C83.7411 142.485 80.5523 145.922 76.5518 146.574C76.399 146.609 76.2487 146.655 76.1021 146.71L39.9031 146.708ZM40.1386 98.0803C40.1022 98.4169 40.0688 98.6868 40.0446 98.9607C39.7939 101.735 39.5439 104.51 39.2946 107.283C38.8553 112.12 38.4139 116.957 37.9706 121.793C37.5723 126.149 37.1755 130.505 36.7799 134.859C36.6991 135.754 36.594 136.648 36.5697 137.544C36.4939 140.34 38.3627 142.268 41.1614 142.281C44.4321 142.298 47.7018 142.281 50.9725 142.281C58.8723 142.281 66.7718 142.281 74.6709 142.281C75.8838 142.281 76.9895 142.006 77.9345 141.2C79.3495 139.987 79.5779 138.418 79.4142 136.686C79.0271 132.607 78.6683 128.525 78.2974 124.445C77.5615 116.353 76.8257 108.26 76.0899 100.168C76.0252 99.4691 75.9434 98.7717 75.8716 98.0975H71.2759C71.2759 100.257 71.2829 102.372 71.2759 104.487C71.2688 105.902 70.3511 106.891 69.0674 106.893C67.7838 106.895 66.8661 105.905 66.859 104.491C66.8489 102.603 66.859 100.714 66.859 98.8252V98.1066H49.1603C49.1603 100.254 49.1663 102.352 49.1603 104.444C49.1542 105.908 48.2344 106.906 46.9256 106.893C45.647 106.88 44.7474 105.89 44.7414 104.467C44.7333 102.578 44.7414 100.69 44.7414 98.801V98.0733L40.1386 98.0803ZM66.7387 93.6059C66.7387 91.6724 66.9095 89.7722 66.7034 87.9145C66.2859 84.1536 63.2396 81.0871 59.6172 80.516C55.6016 79.8833 51.874 81.7734 50.1043 85.2482C48.7388 87.9287 49.2957 90.7759 49.1522 93.6059H66.7387Z" fill="black"/>
</svg>
