<svg width="115" height="222" viewBox="0 0 115 222" fill="none" xmlns="http://www.w3.org/2000/svg">
<path d="M105.221 0.588135H9.80865C7.2646 0.591075 4.82559 1.603 3.02667 3.40191C1.22775 5.20083 0.215831 7.63984 0.212891 10.1839L0.212891 212.316C0.215831 214.86 1.22775 217.299 3.02667 219.098C4.82559 220.897 7.2646 221.909 9.80865 221.912H105.221C107.765 221.909 110.204 220.897 112.003 219.098C113.802 217.299 114.814 214.86 114.816 212.316V10.1839C114.814 7.63984 113.802 5.20083 112.003 3.40191C110.204 1.603 107.765 0.591075 105.221 0.588135ZM109.766 212.316C109.766 213.521 109.287 214.678 108.435 215.53C107.582 216.382 106.426 216.861 105.221 216.861H9.80865C8.60314 216.861 7.44701 216.382 6.59459 215.53C5.74217 214.678 5.26329 213.521 5.26329 212.316V10.1839C5.26462 8.9788 5.74394 7.82344 6.59607 6.97131C7.4482 6.11918 8.60355 5.63987 9.80865 5.63853H15.4378L23.9114 16.407C25.9699 19.0231 29.4719 20.5877 33.2799 20.5877H80.2677C84.0222 20.5877 87.4979 19.0595 89.5605 16.5009L98.333 5.63853H105.221C106.426 5.63987 107.581 6.11918 108.433 6.97131C109.285 7.82344 109.765 8.9788 109.766 10.1839V212.316Z" fill="black"/>
<path d="M82.968 200.401H32.06C31.6582 200.401 31.2728 200.561 30.9887 200.845C30.7046 201.129 30.5449 201.514 30.5449 201.916C30.5449 202.318 30.7046 202.703 30.9887 202.988C31.2728 203.272 31.6582 203.431 32.06 203.431H82.968C83.3699 203.431 83.7553 203.272 84.0394 202.988C84.3235 202.703 84.4832 202.318 84.4832 201.916C84.4832 201.514 84.3235 201.129 84.0394 200.845C83.7553 200.561 83.3699 200.401 82.968 200.401Z" fill="black"/>
<path fill-rule="evenodd" clip-rule="evenodd" d="M90.5026 124.02C84.3411 132.868 75.5009 141.528 64.7193 141.436C54.5791 141.349 49.8318 129.405 41.5158 123.601C32.8432 117.547 17.7203 117.641 15.7426 107.251C13.7699 96.8821 24.6171 87.9994 33.722 82.6672C40.2956 78.8198 48.1096 82.951 55.67 83.8793C60.1144 84.4237 63.9001 85.7985 68.2455 86.8984C78.3827 89.4519 92.0894 85.4419 97.4641 94.4084C102.888 103.453 96.5267 115.374 90.5026 124.02Z" fill="#FEDA00"/>
<path d="M93.4572 114.446C93.4087 114.367 93.3562 114.273 93.3057 114.175C93.154 113.861 92.9585 113.569 92.7249 113.309C90.7421 111.235 88.7967 109.227 86.9411 107.341C85.8058 106.188 84.2735 106.153 83.1291 107.255C81.21 109.106 79.2686 111.016 77.205 113.096C76.1303 114.178 76.0858 115.737 77.0979 116.803C78.11 117.868 79.7312 117.877 80.8686 116.825C81.2635 116.459 81.6514 116.082 82.0312 115.707L82.0069 115.844C81.4053 119.101 80.1599 122.205 78.3438 124.975C76.5276 127.745 74.1772 130.125 71.4301 131.975C68.6829 133.825 65.5943 135.109 62.345 135.751C59.0956 136.393 55.7509 136.38 52.5065 135.713C44.5986 134.071 38.7018 129.516 34.9817 122.178C34.9443 122.106 34.9089 122.033 34.8726 121.96C34.6936 121.578 34.4852 121.21 34.2493 120.86C33.6595 120.023 32.7342 119.655 31.709 119.85C30.8797 120.009 30.2272 120.476 29.8717 121.163C29.4798 121.927 29.4969 122.853 29.9212 123.773C31.7464 127.735 34.2645 131.138 37.4048 133.889C42.5754 138.417 48.6369 140.951 55.4216 141.419C56.1758 141.471 56.9236 141.497 57.665 141.497C63.8881 141.497 69.6274 139.663 74.7525 136.031C81.8231 131.015 86.0755 124.096 87.3785 115.461C87.8462 115.89 88.3169 116.326 88.7653 116.767C89.6219 117.61 90.4885 117.973 91.3441 117.849C92.1996 117.725 92.9067 117.142 93.4743 116.116L93.5966 115.895V114.683L93.4572 114.446Z" fill="black"/>
<path d="M29.8963 116.081C30.6034 116.081 31.2862 115.761 31.9761 115.103C34.0356 113.14 36.0487 111.203 37.5709 109.735C37.8309 109.491 38.0586 109.215 38.2487 108.913C38.4553 108.578 38.5812 108.2 38.6163 107.808C38.6513 107.416 38.5946 107.021 38.4507 106.655C38.3082 106.28 38.0804 105.944 37.7856 105.673C37.4907 105.402 37.1367 105.204 36.7517 105.093C35.271 104.665 34.2801 105.614 33.9548 105.927L32.8387 107.001C33.8791 101.156 36.6871 96.2155 41.2001 92.2974C44.9465 89.0469 49.404 87.0813 54.4493 86.4581C59.221 85.8672 63.8794 86.647 68.2975 88.7742C72.4389 90.7661 75.7721 93.6701 78.2064 97.4043C78.7327 98.2124 79.1821 99.0589 79.6579 99.9578C79.8599 100.333 80.0619 100.72 80.272 101.102C80.9538 102.339 82.0114 102.92 83.174 102.688C84.0103 102.523 84.6669 102.052 85.0244 101.359C85.4143 100.604 85.4022 99.6851 84.9901 98.772C83.8716 96.2639 82.4039 93.9266 80.6306 91.8297C75.1095 85.3652 68.0309 81.7522 59.5906 81.0976C52.4767 80.5471 45.8879 82.3925 40.0082 86.5844C33.4124 91.2843 29.2822 97.7346 27.7317 105.757C27.6418 106.219 27.5681 106.684 27.5004 107.145C27.0075 106.626 26.4994 106.101 25.9853 105.575C25.2277 104.801 24.2217 104.543 23.2258 104.868C22.2894 105.171 21.6511 105.92 21.4743 106.925C21.247 108.219 22.0803 109.09 22.3955 109.418C23.0392 110.088 23.682 110.758 24.3237 111.429C25.4685 112.625 26.6132 113.819 27.758 115.012C28.4337 115.719 29.1166 116.066 29.8428 116.083L29.8963 116.081Z" fill="black"/>
</svg>
