<svg width="116" height="222" viewBox="0 0 116 222" fill="none" xmlns="http://www.w3.org/2000/svg">
<g clip-path="url(#clip0)">
<path d="M106.023 0.588135H10.4161C7.86689 0.591075 5.4229 1.603 3.62031 3.40191C1.81772 5.20083 0.803728 7.63984 0.800781 10.1839L0.800781 212.316C0.803728 214.86 1.81772 217.299 3.62031 219.098C5.4229 220.897 7.86689 221.909 10.4161 221.912H106.023C108.572 221.909 111.016 220.897 112.819 219.098C114.622 217.299 115.636 214.86 115.638 212.316V10.1839C115.636 7.63984 114.622 5.20083 112.819 3.40191C111.016 1.603 108.572 0.591075 106.023 0.588135V0.588135ZM110.578 212.316C110.578 213.521 110.098 214.678 109.244 215.53C108.39 216.382 107.231 216.861 106.023 216.861H10.4161C9.20817 216.861 8.04968 216.382 7.19552 215.53C6.34136 214.678 5.86149 213.521 5.86149 212.316V10.1839C5.86283 8.9788 6.34313 7.82344 7.197 6.97131C8.05087 6.11918 9.20858 5.63987 10.4161 5.63853H16.0568L24.5477 16.407C26.6104 19.0231 30.1195 20.5877 33.9353 20.5877H81.0191C84.7813 20.5877 88.2641 19.0595 90.3309 16.5009L99.1213 5.63853H106.023C107.231 5.63987 108.388 6.11918 109.242 6.97131C110.096 7.82344 110.576 8.9788 110.578 10.1839V212.316Z" fill="black"/>
<path d="M83.7255 200.401H32.7135C32.3109 200.401 31.9247 200.561 31.64 200.845C31.3553 201.129 31.1953 201.514 31.1953 201.916C31.1953 202.318 31.3553 202.703 31.64 202.988C31.9247 203.272 32.3109 203.431 32.7135 203.431H83.7255C84.1282 203.431 84.5143 203.272 84.799 202.988C85.0838 202.703 85.2437 202.318 85.2437 201.916C85.2437 201.514 85.0838 201.129 84.799 200.845C84.5143 200.561 84.1282 200.401 83.7255 200.401Z" fill="black"/>
<path fill-rule="evenodd" clip-rule="evenodd" d="M44.0201 145.672C35.3886 139.188 27.0444 130.033 27.5364 119.263C27.9999 109.132 40.1355 104.83 46.261 96.7385C52.6446 88.2962 53.1112 73.1794 63.5889 71.5875C74.0453 69.9997 82.5372 81.1691 87.5392 90.4689C91.1485 97.1799 86.7214 104.835 85.5149 112.356C84.8064 116.781 83.2821 120.51 82.0251 124.813C79.0898 134.848 82.6 148.694 73.4218 153.733C64.1617 158.811 52.4604 152.012 44.0201 145.672Z" fill="#FEDA00"/>
<path d="M104.556 112.202C103.456 105.457 100.716 95.69 93.9116 87.466C90.1534 82.9058 85.4139 79.2493 80.0452 76.7682C73.777 73.8582 66.439 72.3855 58.2204 72.3855C50.0018 72.3855 42.6597 73.8582 36.3976 76.7632C31.0285 79.2437 26.2889 82.9002 22.5312 87.4609C15.7236 95.687 12.9837 105.452 11.8835 112.202C11.7034 113.309 11.7664 114.443 12.0684 115.524C12.3703 116.605 12.9039 117.607 13.6322 118.462C14.3605 119.317 15.2662 120.004 16.2867 120.475C17.3071 120.946 18.418 121.191 19.5424 121.192H55.5746L55.5888 146.998C55.5746 147.538 55.607 150.256 57.5696 152.317C58.9775 153.798 60.9633 154.548 63.4714 154.548C65.8611 154.548 67.7679 153.801 69.1394 152.326C70.4369 150.93 70.9116 149.187 71.0817 147.971C71.1444 147.483 71.0126 146.991 70.7147 146.599C70.4168 146.208 69.9767 145.949 69.4892 145.878C69.0017 145.807 68.506 145.931 68.1088 146.221C67.7117 146.512 67.4449 146.947 67.3661 147.432C67.2649 148.139 67.0027 149.115 66.3732 149.786C65.7436 150.457 64.7862 150.796 63.4734 150.796C62.0473 150.796 60.9835 150.443 60.3115 149.748C59.3439 148.746 59.3459 147.241 59.3479 147.113C59.3479 147.083 59.3479 147.065 59.3479 147.025L59.3297 121.192H96.8974C98.0218 121.191 99.1326 120.946 100.153 120.475C101.174 120.004 102.079 119.317 102.808 118.462C103.536 117.607 104.069 116.605 104.371 115.524C104.673 114.443 104.736 113.309 104.556 112.202ZM39.3328 115.03C39.5828 110.563 40.2063 103.84 41.7569 97.1769C43.2225 90.8811 45.2154 85.8963 47.681 82.3621C50.599 78.1712 54.0473 76.142 58.2204 76.142C62.3935 76.142 65.8408 78.1763 68.7598 82.3621C71.2244 85.8973 73.2133 90.88 74.6829 97.1769C76.2335 103.843 76.857 110.563 77.107 115.03C77.1249 115.341 77.079 115.652 76.972 115.945C76.865 116.238 76.6992 116.505 76.4849 116.732C76.2705 116.958 76.012 117.139 75.7253 117.262C75.4386 117.385 75.1297 117.448 74.8175 117.448H41.6192C41.3073 117.448 40.9988 117.384 40.7124 117.261C40.426 117.138 40.1679 116.957 39.9539 116.731C39.7398 116.504 39.5743 116.237 39.4675 115.944C39.3607 115.652 39.3149 115.341 39.3328 115.03ZM44.9239 77.7177C45.0686 77.7214 45.2095 77.7652 45.3307 77.8444C45.4518 77.9236 45.5484 78.0349 45.6096 78.1659C45.6708 78.2969 45.6942 78.4423 45.6771 78.5858C45.6601 78.7293 45.6032 78.8653 45.5129 78.9783C45.1972 79.3763 44.8844 79.7975 44.5828 80.2308C41.8439 84.164 39.6577 89.5932 38.0858 96.3668C36.4209 103.538 35.7863 110.609 35.5474 115.272C35.5178 115.859 35.2634 116.411 34.8371 116.815C34.4107 117.219 33.8449 117.444 33.2569 117.443H19.5424C18.9617 117.443 18.3881 117.316 17.8612 117.072C17.3344 116.829 16.8671 116.473 16.4915 116.031C16.116 115.589 15.8413 115.071 15.6865 114.513C15.5317 113.954 15.5005 113.369 15.595 112.797C17.344 102.08 23.4523 83.2752 44.7144 77.747C44.7827 77.7284 44.8531 77.7185 44.9239 77.7177V77.7177ZM78.3549 96.3668C76.7821 89.5932 74.5958 84.164 71.857 80.2308C71.5533 79.7985 71.2436 79.3773 70.9268 78.9783C70.8366 78.8653 70.7797 78.7293 70.7626 78.5858C70.7455 78.4423 70.7689 78.2969 70.8301 78.1659C70.8913 78.0349 70.9879 77.9236 71.1091 77.8444C71.2302 77.7652 71.3711 77.7214 71.5159 77.7177C71.587 77.7181 71.6577 77.7276 71.7264 77.746C92.9895 83.2782 99.0978 102.083 100.846 112.796C100.94 113.368 100.909 113.953 100.754 114.512C100.599 115.07 100.325 115.588 99.9492 116.03C99.5737 116.472 99.1063 116.828 98.5795 117.071C98.0527 117.315 97.4791 117.442 96.8984 117.442H83.1829C82.595 117.443 82.0295 117.218 81.6034 116.813C81.1772 116.409 80.923 115.857 80.8934 115.271C80.6596 110.607 80.0199 103.539 78.3549 96.3668Z" fill="black"/>
</g>
<defs>
<clipPath id="clip0">
<rect width="114.838" height="221.324" fill="white" transform="translate(0.800781 0.588135)"/>
</clipPath>
</defs>
</svg>
