<svg width="166" height="59" viewBox="0 0 166 59" fill="none" xmlns="http://www.w3.org/2000/svg">
<path d="M0.000106268 4.02844C-0.003497 3.56977 0.0845661 3.11496 0.259168 2.69051C0.433771 2.26605 0.691423 1.88043 1.01712 1.55609C1.34282 1.23175 1.73007 0.975172 2.1563 0.801299C2.58254 0.627426 3.03925 0.53973 3.49984 0.543319H12.9993C20.5896 0.543319 25.1763 5.02397 25.1763 11.4957V11.587C25.1763 18.9225 19.4501 22.7205 12.3138 22.7205H6.99958V29.0081C7.00318 29.4668 6.91512 29.9216 6.74052 30.3461C6.56592 30.7705 6.30826 31.1561 5.98256 31.4805C5.65686 31.8048 5.26962 32.0614 4.84339 32.2353C4.41715 32.4091 3.96044 32.4968 3.49984 32.4932C3.0395 32.4968 2.58304 32.4092 2.157 32.2355C1.73097 32.0618 1.34386 31.8055 1.0182 31.4815C0.692541 31.1575 0.434825 30.7722 0.260044 30.3481C0.0852625 29.924 -0.00309641 29.4695 0.000106268 29.0111V4.02844ZM12.5438 16.5198C16.0436 16.5198 18.0896 14.4374 18.0896 11.7292V11.6394C18.0896 8.51658 15.9083 6.84138 12.4085 6.84138H6.99657V16.5273L12.5438 16.5198Z" fill="black"/>
<path d="M30.3682 4.02866C30.3646 3.57024 30.4526 3.11568 30.627 2.69143C30.8014 2.26717 31.0588 1.88168 31.3842 1.55738C31.7096 1.23308 32.0965 0.976444 32.5224 0.802393C32.9482 0.628341 33.4046 0.540351 33.865 0.543541H44.9099C48.9538 0.543541 52.0913 1.67531 54.1824 3.7562C55.9533 5.52121 56.9079 8.0108 56.9079 10.9989V11.0887C56.9079 16.0679 54.4079 19.1443 50.5459 20.7297L55.4091 26.6131C56.0901 27.4724 56.5456 28.1969 56.5456 29.2838C56.5456 31.23 54.9085 32.4965 53.2278 32.4965C51.6358 32.4965 50.591 31.727 49.7701 30.6865L42.9526 22.0875H37.3647V29.0113C37.3647 29.9356 36.996 30.8221 36.3397 31.4757C35.6833 32.1293 34.7932 32.4965 33.865 32.4965C32.9368 32.4965 32.0466 32.1293 31.3903 31.4757C30.734 30.8221 30.3652 29.9356 30.3652 29.0113L30.3682 4.02866ZM44.4574 15.9317C47.8669 15.9317 49.8213 14.1217 49.8213 11.451V11.3597C49.8213 8.37308 47.7301 6.83412 44.3221 6.83412H37.3647V15.9317H44.4574Z" fill="black"/>
<path d="M61.4558 27.7447L72.5458 2.80547C73.3185 1.08537 74.7271 0.0449219 76.6363 0.0449219H77.0452C78.9545 0.0449219 80.318 1.09285 81.0907 2.80547L92.1807 27.7447C92.4018 28.1808 92.5258 28.6593 92.5445 29.1475C92.5505 29.5851 92.4691 30.0196 92.305 30.4256C92.1409 30.8317 91.8975 31.2012 91.5888 31.5128C91.2801 31.8244 90.9124 32.0718 90.5069 32.2406C90.1013 32.4095 89.6662 32.4964 89.2267 32.4963C87.5911 32.4963 86.4996 31.5457 85.8637 30.1011L83.735 25.1189H69.727L67.4991 30.3241C66.9083 31.682 65.7267 32.4963 64.273 32.4963C63.845 32.4974 63.4211 32.4135 63.0261 32.2495C62.6311 32.0855 62.2728 31.8448 61.9723 31.5414C61.6718 31.2379 61.4351 30.8779 61.2759 30.4823C61.1167 30.0866 61.0384 29.6634 61.0454 29.2373C61.0469 28.7433 61.2288 28.2418 61.4558 27.7447ZM81.1358 18.9646L76.728 8.50921L72.3188 18.9646H81.1358Z" fill="black"/>
<path d="M98.0489 4.02843C98.0453 3.56988 98.1333 3.1152 98.3078 2.69084C98.4824 2.26649 98.7399 1.88093 99.0654 1.55661C99.391 1.23229 99.778 0.975685 100.204 0.801723C100.63 0.627761 101.087 0.539919 101.547 0.543307H110.456C120.456 0.543307 127.364 7.37731 127.364 16.2937V16.3835C127.364 25.2999 120.448 32.2252 110.456 32.2252H101.547C101.087 32.2286 100.631 32.1409 100.205 31.9671C99.7789 31.7933 99.392 31.537 99.0665 31.213C98.741 30.889 98.4834 30.5038 98.3087 30.0798C98.134 29.6558 98.0457 29.2014 98.0489 28.7431V4.02843ZM110.456 25.9332C116.184 25.9332 120.047 22.0873 120.047 16.4748V16.3835C120.047 10.7726 116.184 6.83389 110.456 6.83389H105.044V25.9332H110.456Z" fill="black"/>
<path d="M132.184 16.475V16.3837C132.184 7.37743 139.32 0 149.137 0C158.953 0 165.999 7.28761 165.999 16.2938V16.3837C165.999 25.3914 158.863 32.7688 149.046 32.7688C139.23 32.7688 132.184 25.4812 132.184 16.475ZM158.681 16.475V16.3837C158.681 10.9524 154.682 6.42681 149.046 6.42681C143.41 6.42681 139.508 10.8626 139.508 16.2938V16.3837C139.508 21.8149 143.508 26.3405 149.143 26.3405C154.777 26.3405 158.681 21.9062 158.681 16.475Z" fill="black"/>
<path d="M21.7025 40.5908H23.3907L28.3742 55.711L33.5682 40.6372H35.724L29.2311 58.8712H27.4918L22.5067 44.1837L17.4962 58.8712H15.7854L9.29102 40.6432H11.5235L16.7174 55.717L21.7025 40.5908Z" fill="black"/>
<path d="M41.6677 40.6431V58.7423H39.6172V40.6431H41.6677Z" fill="black"/>
<path d="M59.5054 58.7424L54.2348 51.7063H49.0423V58.7424H46.9902V40.6432H54.8075C55.7268 40.6305 56.6424 40.7613 57.521 41.0309C58.2734 41.2622 58.9741 41.6352 59.5851 42.1297C60.1483 42.5943 60.6006 43.1778 60.9095 43.8379C61.2272 44.5315 61.3869 45.2866 61.377 46.049C61.3886 46.7432 61.2651 47.4331 61.0132 48.0805C60.7779 48.6614 60.4277 49.1894 59.9835 49.6329C59.5248 50.0837 58.9939 50.455 58.4125 50.7318C57.7881 51.0291 57.1246 51.2368 56.4416 51.3485L62.0235 58.7379L59.5054 58.7424ZM58.1013 43.4726C57.2855 42.8408 56.14 42.525 54.6647 42.525H49.0423V49.8949H54.6391C55.2729 49.9006 55.9041 49.8133 56.5123 49.6359C57.0477 49.4808 57.5504 49.2302 57.9961 48.8964C58.4079 48.5819 58.7421 48.1779 58.9732 47.7152C59.2129 47.2224 59.3329 46.6803 59.3235 46.1328C59.3235 44.9941 58.9161 44.1088 58.1013 43.4771V43.4726Z" fill="black"/>
<path d="M78.9027 42.5039H67.8157V48.6837H77.7377V50.5445H67.8157V56.8875H79.032V58.7498H65.7637V40.6431H78.9027V42.5039Z" fill="black"/>
<path d="M83.1602 40.6431H85.2122V56.8546H95.4348V58.7423H83.1602V40.6431Z" fill="black"/>
<path d="M112.37 42.5039H101.283V48.6837H111.204V50.5445H101.283V56.8875H112.499V58.7498H99.2305V40.6431H112.37V42.5039Z" fill="black"/>
<path d="M118.418 46.3125C118.581 46.6879 118.84 47.0138 119.17 47.2571C119.628 47.5917 120.135 47.8538 120.673 48.0341C121.478 48.3125 122.302 48.5331 123.139 48.6943C125.165 49.1434 126.658 49.7647 127.617 50.5581C128.576 51.3516 129.057 52.4494 129.059 53.8516C129.068 54.5854 128.911 55.3118 128.597 55.9759C128.298 56.6028 127.866 57.1575 127.331 57.6017C126.754 58.0709 126.09 58.4228 125.377 58.6377C124.57 58.8857 123.73 59.0079 122.886 59C121.525 59.0167 120.173 58.7791 118.901 58.2993C117.629 57.7915 116.461 57.0563 115.455 56.1301L116.727 54.6331C117.576 55.427 118.549 56.0777 119.609 56.5598C120.671 56.9979 121.812 57.2115 122.961 57.187C124.191 57.187 125.174 56.9021 125.909 56.3322C126.261 56.0727 126.546 55.7324 126.738 55.3402C126.93 54.9479 127.024 54.5154 127.013 54.0792C127.019 53.6855 126.948 53.2944 126.804 52.9279C126.644 52.5641 126.393 52.2475 126.075 52.0088C125.636 51.6846 125.148 51.4319 124.63 51.2602C123.86 50.9927 123.074 50.7766 122.276 50.6135C121.351 50.4225 120.442 50.1628 119.556 49.8365C118.864 49.5882 118.218 49.2292 117.642 48.7736C117.159 48.3858 116.776 47.8891 116.524 47.3245C116.267 46.7019 116.143 46.0332 116.159 45.3604C116.151 44.6708 116.302 43.9886 116.601 43.3663C116.897 42.7604 117.322 42.2261 117.847 41.8004C118.411 41.3447 119.053 40.9937 119.743 40.7645C120.512 40.5074 121.32 40.3804 122.131 40.3887C123.319 40.3652 124.501 40.5507 125.624 40.9366C126.67 41.3302 127.647 41.8859 128.519 42.5834L127.331 44.1627C126.57 43.5241 125.706 43.018 124.776 42.6657C123.914 42.354 123.004 42.1964 122.088 42.2001C121.546 42.1933 121.008 42.2721 120.491 42.4337C120.052 42.5703 119.639 42.7804 119.271 43.0549C118.943 43.3024 118.677 43.6209 118.492 43.9861C118.311 44.3484 118.218 44.7478 118.22 45.1523C118.212 45.548 118.279 45.9417 118.418 46.3125Z" fill="black"/>
<path d="M134.777 46.3125C134.94 46.6879 135.199 47.0138 135.529 47.2571C135.987 47.5914 136.494 47.8534 137.032 48.0341C137.837 48.3125 138.661 48.5331 139.497 48.6943C141.524 49.1434 143.017 49.7647 143.977 50.5581C144.937 51.3515 145.418 52.4494 145.418 53.8516C145.427 54.5854 145.269 55.3118 144.956 55.9759C144.656 56.6049 144.222 57.1613 143.684 57.6062C143.107 58.0753 142.443 58.4273 141.73 58.6422C140.923 58.8901 140.083 59.0124 139.239 59.0044C137.878 59.0212 136.526 58.7835 135.254 58.3038C133.983 57.7955 132.817 57.0603 131.812 56.1346L133.086 54.6376C133.935 55.4317 134.908 56.0825 135.968 56.5643C137.03 57.0014 138.172 57.2134 139.322 57.187C140.549 57.187 141.531 56.9021 142.268 56.3322C142.62 56.0727 142.905 55.7324 143.097 55.3401C143.289 54.9479 143.383 54.5154 143.372 54.0792C143.378 53.6855 143.307 53.2944 143.163 52.9279C143.003 52.5645 142.753 52.248 142.435 52.0087C141.996 51.6849 141.508 51.4323 140.99 51.2602C140.22 50.9929 139.433 50.7768 138.635 50.6135C137.71 50.4225 136.801 50.1628 135.915 49.8365C135.223 49.5882 134.577 49.2291 134.001 48.7736C133.518 48.3858 133.135 47.8891 132.883 47.3245C132.626 46.7019 132.502 46.0332 132.518 45.3604C132.51 44.6708 132.661 43.9886 132.96 43.3663C133.256 42.7604 133.681 42.2261 134.206 41.8004C134.77 41.3449 135.412 40.9941 136.101 40.7645C136.871 40.5074 137.679 40.3804 138.49 40.3887C139.678 40.3652 140.86 40.5507 141.982 40.9366C143.029 41.3298 144.006 41.8856 144.878 42.5834L143.675 44.1612C142.914 43.5226 142.05 43.0165 141.12 42.6642C140.258 42.3525 139.348 42.1949 138.432 42.1986C137.89 42.1918 137.351 42.2706 136.835 42.4322C136.396 42.5688 135.983 42.7789 135.614 43.0534C135.287 43.3009 135.021 43.6194 134.836 43.9846C134.655 44.3469 134.562 44.7463 134.564 45.1508C134.56 45.548 134.633 45.9423 134.777 46.3125Z" fill="black"/>
</svg>
