<svg width="775" height="569" viewBox="0 0 775 569" fill="none" xmlns="http://www.w3.org/2000/svg">
<path d="M74.4395 0C70.4395 8.38 66.7195 16.78 63.3095 25.18C35.6895 93.18 33.9895 148.42 58.1095 194.18C92.2295 258.87 168.249 266.72 256.279 275.82C318.279 282.23 382.429 288.82 435.619 317.82C480.749 342.41 513.099 383.82 544.379 423.87C582.309 472.42 618.119 518.28 671.129 525.73C678.64 526.785 686.215 527.313 693.799 527.31C721.479 527.31 748.499 520.4 774.999 509.21V0H74.4395Z" fill="url(#paint0_linear)"/>
<path d="M693.8 527.31C686.216 527.313 678.641 526.785 671.13 525.73C618.13 518.28 582.31 472.42 544.38 423.87C513.1 383.82 480.75 342.41 435.62 317.87C382.43 288.87 318.3 282.26 256.28 275.87C168.28 266.77 92.28 258.92 58.11 194.23C33.99 148.49 35.69 93.23 63.31 25.23C66.72 16.78 70.46 8.38 74.44 0H29C27.62 3.19333 26.2867 6.38667 25 9.58C9.88 46.62 1.75 80 0.08 111.72C0.08 112.4 0.08 113.06 0 113.72V133.21C1.11094 161.228 8.44498 188.648 21.47 213.48C41.72 251.87 74.47 278.28 121.68 294.22C161.42 307.65 207.48 312.41 252 317C310 323 369.88 329.18 415.78 354.19C453.37 374.67 483.03 412.64 511.71 449.36C553.03 502.26 595.71 556.96 665.33 566.74C674.818 568.072 684.388 568.741 693.97 568.74C720.2 568.74 747.03 563.74 774.97 553.74V509.21C748.5 520.4 721.48 527.31 693.8 527.31Z" fill="url(#paint1_linear)"/>
<defs>
<linearGradient id="paint0_linear" x1="1483.47" y1="-765.41" x2="382.109" y2="295.65" gradientUnits="userSpaceOnUse">
<stop stop-color="#C7EAFB"/>
<stop offset="0.1" stop-color="#BEE7FB"/>
<stop offset="0.26" stop-color="#A4DFF9"/>
<stop offset="0.46" stop-color="#7BD3F7"/>
<stop offset="0.48" stop-color="#78D2F7"/>
<stop offset="1" stop-color="#00C2F3"/>
</linearGradient>
<linearGradient id="paint1_linear" x1="-7021.23" y1="161738" x2="1.01974e+06" y2="161738" gradientUnits="userSpaceOnUse">
<stop stop-color="#C7EAFB"/>
<stop offset="0.1" stop-color="#BEE7FB"/>
<stop offset="0.26" stop-color="#A4DFF9"/>
<stop offset="0.46" stop-color="#7BD3F7"/>
<stop offset="0.48" stop-color="#78D2F7"/>
<stop offset="1" stop-color="#00C2F3"/>
</linearGradient>
</defs>
</svg>
