<svg width="1919" height="1028" viewBox="0 0 1919 1028" fill="none" xmlns="http://www.w3.org/2000/svg">
<path fill-rule="evenodd" clip-rule="evenodd" d="M1803.72 141.552C1690.44 96.9868 1460.44 7.8607 1232.14 52.4238C1103.63 77.5121 974.57 144.973 845.578 212.398C745.443 264.729 645.351 317.06 545.586 349.517C333.587 418.494 120.103 397.788 0 382.586V1028H1918.72V186.117L1803.72 141.552Z" fill="#EC2027"/>
<path d="M217.466 443.061C132.328 443.061 57.3657 433.362 0.427734 424.651L1.77709 413.267C138.273 434.153 343.013 452.768 544.263 373.611C643.466 334.593 744.917 270.491 843.013 208.501C906.429 168.427 971.995 126.995 1036.52 92.5902C1071.31 74.0385 1103.01 58.9636 1133.44 46.4996C1167.65 32.4833 1199.39 22.107 1230.46 14.7746C1258.16 8.23923 1287.1 3.81886 1316.5 1.63692C1343.88 -0.394402 1372.38 -0.536657 1401.21 1.21852C1452.03 4.3042 1505.83 13.4043 1561.1 28.2616C1663.51 55.7964 1751.57 97.6696 1804.19 122.692L1919 176.481L1915.15 187.1L1800.29 133.288C1711.16 90.8978 1543.95 11.3898 1362.12 11.3898C1319.44 11.3898 1276 15.762 1232.53 26.019C1104.95 56.129 974.287 138.698 847.934 218.532C798.728 249.625 747.857 281.771 697.828 310.408C641.623 342.578 592.474 366.804 547.568 384.464C497.741 404.064 444.429 418.934 389.115 428.66C341.376 437.057 290.931 441.839 239.182 442.847C231.877 442.992 224.638 443.064 217.466 443.061Z" fill="url(#paint0_linear)"/>
<defs>
<linearGradient id="paint0_linear" x1="0.427734" y1="221.53" x2="1919" y2="221.53" gradientUnits="userSpaceOnUse">
<stop stop-color="#00C2F3"/>
<stop offset="0.505208" stop-color="#7F6B86"/>
<stop offset="0.99" stop-color="#EC2027"/>
</linearGradient>
</defs>
</svg>
