<svg width="115" height="222" viewBox="0 0 115 222" fill="none" xmlns="http://www.w3.org/2000/svg">
<g clip-path="url(#clip0)">
<path d="M105.222 0H9.61535C7.06611 0.00294064 4.62212 1.01486 2.81953 2.81378C1.01694 4.6127 0.00294664 7.0517 0 9.59575L0 211.728C0.00294664 214.272 1.01694 216.711 2.81953 218.51C4.62212 220.309 7.06611 221.321 9.61535 221.324H105.222C107.772 221.321 110.216 220.309 112.018 218.51C113.821 216.711 114.835 214.272 114.838 211.728V9.59575C114.835 7.0517 113.821 4.6127 112.018 2.81378C110.216 1.01486 107.772 0.00294064 105.222 0V0ZM109.777 211.728C109.777 212.933 109.297 214.089 108.443 214.942C107.589 215.794 106.43 216.273 105.222 216.273H9.61535C8.40739 216.273 7.2489 215.794 6.39474 214.942C5.54058 214.089 5.06071 212.933 5.06071 211.728V9.59575C5.06205 8.39066 5.54234 7.23531 6.39622 6.38318C7.25009 5.53105 8.4078 5.05173 9.61535 5.0504H15.256L23.7469 15.8189C25.8096 18.435 29.3187 19.9996 33.1345 19.9996H80.2184C83.9805 19.9996 87.4633 18.4713 89.5301 15.9128L98.3205 5.0504H105.222C106.43 5.05173 107.588 5.53105 108.441 6.38318C109.295 7.23531 109.776 8.39066 109.777 9.59575V211.728Z" fill="black"/>
<path d="M82.9228 199.813H31.9108C31.5081 199.813 31.122 199.973 30.8373 200.257C30.5525 200.541 30.3926 200.926 30.3926 201.328C30.3926 201.73 30.5525 202.115 30.8373 202.399C31.122 202.684 31.5081 202.843 31.9108 202.843H82.9228C83.3254 202.843 83.7116 202.684 83.9963 202.399C84.281 202.115 84.441 201.73 84.441 201.328C84.441 200.926 84.281 200.541 83.9963 200.257C83.7116 199.973 83.3254 199.813 82.9228 199.813Z" fill="black"/>
<path fill-rule="evenodd" clip-rule="evenodd" d="M43.2193 145.084C34.5878 138.6 26.2437 129.445 26.7356 118.675C27.1991 108.544 39.3347 104.242 45.4602 96.1506C51.8438 87.7083 52.3104 72.5915 62.7881 70.9996C73.2445 69.4118 81.7364 80.5812 86.7384 89.881C90.3477 96.592 85.9206 104.247 84.7141 111.768C84.0056 116.194 82.4814 119.922 81.2243 124.225C78.2891 134.26 81.7992 148.106 72.6211 153.145C63.361 158.223 51.6596 151.424 43.2193 145.084Z" fill="#EC2027"/>
<path d="M103.754 111.614C102.653 104.869 99.9135 95.1022 93.1088 86.8781C89.3507 82.3179 84.6112 78.6615 79.2425 76.1803C72.9743 73.2703 65.6363 71.7976 57.4177 71.7976C49.1991 71.7976 41.857 73.2703 35.5949 76.1753C30.2258 78.6558 25.4862 82.3123 21.7285 86.873C14.9208 95.0991 12.181 104.865 11.0808 111.614C10.9006 112.722 10.9637 113.855 11.2656 114.936C11.5675 116.017 12.1011 117.019 12.8295 117.874C13.5578 118.729 14.4635 119.416 15.484 119.887C16.5044 120.358 17.6152 120.603 18.7396 120.604H54.7719L54.7861 146.41C54.7719 146.951 54.8043 149.668 56.7668 151.729C58.1747 153.21 60.1606 153.96 62.6687 153.96C65.0583 153.96 66.9652 153.213 68.3366 151.738C69.6342 150.342 70.1089 148.599 70.279 147.383C70.3416 146.895 70.2098 146.403 69.9119 146.011C69.614 145.62 69.1739 145.361 68.6865 145.29C68.199 145.219 67.7033 145.343 67.3061 145.634C66.909 145.924 66.6422 146.359 66.5634 146.844C66.4622 147.552 66.2 148.527 65.5705 149.198C64.9409 149.869 63.9834 150.208 62.6707 150.208C61.2446 150.208 60.1808 149.856 59.5087 149.161C58.5411 148.159 58.5432 146.654 58.5452 146.525C58.5452 146.495 58.5452 146.477 58.5452 146.437L58.527 120.604H96.0947C97.2191 120.603 98.3299 120.358 99.3504 119.887C100.371 119.416 101.277 118.729 102.005 117.874C102.733 117.019 103.267 116.017 103.569 114.936C103.871 113.855 103.934 112.722 103.754 111.614ZM38.5301 114.442C38.7801 109.976 39.4035 103.252 40.9541 96.589C42.4197 90.2932 44.4126 85.3084 46.8782 81.7742C49.7962 77.5833 53.2446 75.5541 57.4177 75.5541C61.5907 75.5541 65.0381 77.5884 67.9571 81.7742C70.4217 85.3094 72.4105 90.2922 73.8802 96.589C75.4308 103.256 76.0542 109.976 76.3042 114.442C76.3222 114.753 76.2762 115.065 76.1692 115.357C76.0623 115.65 75.8965 115.918 75.6821 116.144C75.4677 116.37 75.2093 116.551 74.9225 116.674C74.6358 116.797 74.3269 116.861 74.0148 116.86H40.8165C40.5046 116.86 40.196 116.796 39.9097 116.673C39.6233 116.55 39.3652 116.369 39.1511 116.143C38.9371 115.917 38.7716 115.649 38.6648 115.356C38.558 115.064 38.5122 114.753 38.5301 114.442ZM44.1211 77.1298C44.2659 77.1335 44.4068 77.1773 44.5279 77.2565C44.6491 77.3357 44.7457 77.4471 44.8069 77.578C44.8681 77.709 44.8915 77.8544 44.8744 77.9979C44.8573 78.1415 44.8005 78.2774 44.7102 78.3904C44.3944 78.7884 44.0817 79.2096 43.78 79.6429C41.0412 83.5761 38.855 89.0053 37.2831 95.7789C35.6181 102.95 34.9835 110.021 34.7447 114.685C34.715 115.271 34.4607 115.823 34.0343 116.227C33.6079 116.631 33.0422 116.856 32.4542 116.855H18.7396C18.159 116.855 17.5853 116.728 17.0585 116.484C16.5317 116.241 16.0643 115.885 15.6888 115.443C15.3133 115.001 15.0386 114.483 14.8838 113.925C14.729 113.366 14.6978 112.781 14.7923 112.209C16.5413 101.492 22.6495 82.6873 43.9116 77.1591C43.9799 77.1405 44.0503 77.1307 44.1211 77.1298V77.1298ZM77.5522 95.7789C75.9793 89.0053 73.7931 83.5761 71.0543 79.6429C70.7506 79.2106 70.4409 78.7894 70.1241 78.3904C70.0338 78.2774 69.977 78.1415 69.9599 77.9979C69.9428 77.8544 69.9662 77.709 70.0274 77.578C70.0886 77.4471 70.1852 77.3357 70.3064 77.2565C70.4275 77.1773 70.5684 77.1335 70.7132 77.1298C70.7843 77.1302 70.855 77.1397 70.9237 77.1581C92.1868 82.6903 98.2951 101.495 100.043 112.208C100.138 112.78 100.106 113.365 99.9515 113.924C99.7967 114.482 99.522 115 99.1465 115.442C98.771 115.884 98.3036 116.24 97.7768 116.483C97.25 116.727 96.6764 116.854 96.0957 116.854H82.3801C81.7923 116.855 81.2268 116.63 80.8006 116.226C80.3745 115.822 80.1203 115.269 80.0907 114.684C79.8569 110.019 79.2172 102.951 77.5522 95.7789Z" fill="black"/>
</g>
<defs>
<clipPath id="clip0">
<rect width="114.838" height="221.324" fill="white"/>
</clipPath>
</defs>
</svg>
