<svg width="165" height="60" viewBox="0 0 165 60" fill="none" xmlns="http://www.w3.org/2000/svg">
<path d="M50.5324 49.9198H58.7761C60.2133 49.9198 60.9951 49.7823 61.4608 49.4902C61.7397 49.3225 61.9691 49.0842 62.1256 48.7995C62.2821 48.5148 62.3601 48.1939 62.3518 47.8694C62.3632 47.4768 62.2608 47.0892 62.0569 46.753C61.853 46.4168 61.5563 46.1462 61.2021 45.9736C60.585 45.7218 59.9188 45.6122 59.2533 45.6529H55.919C53.7517 45.6529 52.3433 45.2806 51.3948 44.5074C50.8462 44.0187 50.4087 43.419 50.1113 42.7484C49.8139 42.0778 49.6635 41.3517 49.6701 40.6185C49.6701 38.3276 50.9119 36.3574 52.8089 35.7159C53.6253 35.4238 54.5738 35.3436 56.6893 35.3436H65.6343V38.488H57.5861C56.7777 38.441 55.9666 38.4949 55.1717 38.6483C54.7887 38.7632 54.4578 39.0072 54.2355 39.3384C54.0132 39.6696 53.9133 40.0674 53.9529 40.4639C53.9351 40.8195 54.0234 41.1724 54.2065 41.4781C54.3896 41.7839 54.6594 42.0288 54.982 42.1821C55.5223 42.4227 55.9592 42.4742 57.2814 42.4742H60.1558C62.8117 42.4742 64.2432 42.8751 65.3297 43.9404C66.146 44.7365 66.6864 46.3116 66.6864 47.8293C66.7182 48.7157 66.524 49.5956 66.1219 50.3868C65.7197 51.1781 65.1228 51.8549 64.3869 52.3539C63.4958 52.9267 62.3576 53.0756 59.6729 53.0756H50.5324V49.9198Z" fill="#2B388F"/>
<path d="M80.3799 42.1134C81.4213 43.4297 81.9592 45.0719 81.8976 46.7468C81.8976 50.756 79.1899 53.276 74.8496 53.276C70.5094 53.276 67.9512 50.7961 67.9512 46.5636C67.9512 42.4857 70.6876 39.9255 74.9991 39.9255C77.3733 39.9255 79.2417 40.6644 80.3799 42.1134ZM71.6534 46.6953C71.6534 49.2268 72.8031 50.5613 74.9589 50.5613C77.1146 50.5613 78.1839 49.2554 78.1839 46.5636C78.1839 43.8717 77.0744 42.6747 74.8784 42.6747C72.6824 42.6747 71.6534 44.0034 71.6534 46.6838V46.6953Z" fill="#2B388F"/>
<path d="M84.0645 53.087V35.3322H87.6976V53.087H84.0645Z" fill="#2B388F"/>
<path d="M99.327 40.0917H102.96V53.0871H95.8318C93.7163 53.0871 92.8482 52.8465 91.9284 52.0504C91.0086 51.2543 90.543 49.9199 90.543 48.11V40.0917H94.1762V48.4536C94.1762 49.5991 94.8258 50.315 95.9008 50.315H99.3155L99.327 40.0917Z" fill="#2B388F"/>
<path d="M106.974 35.3208H110.607V40.0917H113.97V42.8638H110.607V47.5774C110.607 48.9061 110.659 49.2956 110.906 49.6564C111.106 49.8846 111.358 50.0614 111.641 50.172C111.925 50.2827 112.23 50.3239 112.533 50.2922H113.97V53.0642H111.337C109.819 53.0642 108.842 52.7721 108.141 52.0791C107.244 51.2544 106.991 50.2922 106.991 48.1902V42.8638H104.691V40.0917H106.991L106.974 35.3208Z" fill="#2B388F"/>
<path d="M115.918 35.3208H119.574V38.7572H115.941L115.918 35.3208ZM119.574 40.0917V53.0871H115.941V40.0917H119.574Z" fill="#2B388F"/>
<path d="M134.136 42.1134C135.186 43.4259 135.731 45.0694 135.671 46.7468C135.671 50.756 132.958 53.276 128.623 53.276C124.289 53.276 121.725 50.7961 121.725 46.5636C121.725 42.4857 124.461 39.9255 128.767 39.9255C131.124 39.9255 132.998 40.6644 134.136 42.1134ZM125.41 46.6953C125.41 49.2268 126.559 50.5613 128.715 50.5613C130.871 50.5613 131.94 49.2554 131.94 46.5922C131.94 43.929 130.831 42.7033 128.635 42.7033C126.439 42.7033 125.41 44.0034 125.41 46.6667V46.6953Z" fill="#2B388F"/>
<path d="M144.817 40.0917C146.932 40.0917 147.794 40.3322 148.72 41.1283C149.645 41.9244 150.1 43.2646 150.1 45.0745V53.0928H146.466V44.6736C146.466 43.3677 145.926 42.8637 144.598 42.8637H141.454V53.0871H137.82V40.0917H144.817Z" fill="#2B388F"/>
<path d="M164.415 42.8866H157.965C156.338 42.8866 155.959 43.0985 155.959 44.032C155.952 44.2527 156.006 44.471 156.116 44.6629C156.225 44.8549 156.386 45.0131 156.58 45.1202C157.134 45.3074 157.722 45.3719 158.304 45.3092H160.448C163.323 45.3092 165.001 46.6437 165.001 49.0091C165.001 50.6128 164.105 52.2107 162.857 52.7434C161.902 53.0399 160.9 53.1564 159.902 53.087H152.429V50.315H158.879C159.454 50.3347 160.031 50.3175 160.604 50.2634C160.849 50.236 161.074 50.1163 161.233 49.9289C161.392 49.7415 161.474 49.5006 161.46 49.2554C161.481 49.0179 161.427 48.7799 161.305 48.5745C161.183 48.3692 161.001 48.2068 160.782 48.1099C160.294 47.9483 159.776 47.8936 159.264 47.9496H157.045C155.321 47.9496 154.493 47.7663 153.711 47.1535C153.229 46.7609 152.844 46.2636 152.585 45.6997C152.326 45.1358 152.2 44.5203 152.216 43.9003C152.209 43.2918 152.342 42.6897 152.605 42.1405C152.868 41.5913 153.254 41.1097 153.734 40.7331C154.361 40.2806 155.142 40.1202 156.666 40.1202H164.415V42.8866Z" fill="#2B388F"/>
<path d="M55.1132 18.4995C57.8611 18.4995 59.8924 19.2937 61.2069 20.8821C62.4493 22.4278 63.0921 24.3672 63.0178 26.346C63.0606 27.3818 62.8772 28.4145 62.4802 29.3727C62.0832 30.3309 61.482 31.1918 60.7183 31.8958C59.3577 33.1597 57.4702 33.7916 55.0558 33.7916C52.5608 33.7916 50.6082 33.0814 49.1978 31.661C47.9063 30.359 47.2586 28.49 47.2547 26.0539C47.1867 24.1478 47.8554 22.2884 49.1231 20.8592C50.5104 19.3166 52.5072 18.5301 55.1132 18.4995ZM55.1132 21.6267C52.6528 21.6267 51.4226 23.154 51.4226 26.2086C51.3577 27.184 51.5562 28.159 51.9974 29.0322C52.3232 29.5735 52.795 30.013 53.359 30.3005C53.923 30.588 54.5567 30.7122 55.188 30.6587C57.6178 30.6587 58.8346 29.1467 58.8384 26.1227C58.8384 23.1559 57.6063 21.6572 55.142 21.6267H55.1132Z" fill="#2B388F"/>
<path d="M65.4551 18.7229H71.52C72.4846 18.6976 73.449 18.7821 74.3944 18.9749C75.0333 19.1199 75.626 19.421 76.119 19.8512C76.5614 20.2632 76.8782 20.7913 77.033 21.3746C77.2464 22.2242 77.3374 23.0998 77.3032 23.9749V25.4182H73.3768V24.6278C73.3768 23.574 73.1871 22.858 72.802 22.48C72.4168 22.102 71.7269 21.9073 70.7037 21.9073H69.5539V33.5625H65.4608L65.4551 18.7229Z" fill="#2B388F"/>
<path d="M80.7074 18.7228V13.2417H84.8004V18.7228H88.5946V21.89H84.8004V27.2795C84.8004 28.5395 84.9154 29.3356 85.1454 29.6621C85.369 29.9242 85.6534 30.128 85.974 30.2558C86.2946 30.3835 86.6416 30.4314 86.985 30.3952H88.5946V33.5624H85.6225C83.8519 33.5624 82.5891 33.1367 81.8341 32.2852C81.0868 31.4319 80.6844 29.9943 80.6844 27.9954V21.89H78.0859V18.7228H80.7074Z" fill="#2B388F"/>
<path d="M94.8548 13.2417V18.7228H99.0686C100.049 18.6936 101.029 18.7918 101.983 19.0149C102.65 19.2035 103.257 19.5583 103.748 20.0458C104.674 20.8992 105.145 22.3368 105.151 24.3471V33.5624H101.058V25.1203C101.076 24.5454 101.039 23.9701 100.948 23.4021C100.88 23.0799 100.728 22.7814 100.506 22.5372C100.096 22.102 99.3139 21.8786 98.1603 21.8671H94.8548V33.5624H90.7617V13.2417H94.8548Z" fill="#2B388F"/>
<path d="M109.952 16.8614H103.479V13.2417H121.058V16.8614H114.286V33.5624H109.952V16.8614Z" fill="#F67500"/>
<path d="M132.107 24.5418V27.7147H123.483C123.481 28.1062 123.564 28.4935 123.726 28.8502C123.888 29.207 124.124 29.5249 124.42 29.7823C125.231 30.255 126.168 30.4689 127.105 30.3951H132.107V33.5624H126.657C125.689 33.5864 124.722 33.4804 123.782 33.2474C123.016 33.0266 122.298 32.6632 121.667 32.1763C119.869 30.7903 118.969 28.717 118.965 25.9564C118.927 24.2771 119.428 22.6296 120.396 21.2542C120.986 20.3966 121.804 19.7202 122.759 19.3012C123.915 18.8773 125.144 18.6827 126.375 18.7285H132.124V21.8957H126.674C125.559 21.8957 124.771 22.0847 124.323 22.4684C123.788 23.0318 123.49 23.7777 123.489 24.5532L132.107 24.5418Z" fill="#F67500"/>
<path d="M147.306 18.7227V21.89H142.391C140.752 21.89 139.614 22.2622 138.941 22.9953C138.269 23.7284 138.033 24.7422 138.033 26.1511C138.033 27.751 138.531 28.906 139.528 29.6162C139.92 29.9077 140.368 30.1162 140.844 30.229C141.503 30.3558 142.174 30.4115 142.845 30.3951H147.271V33.5623H141.666C140.459 33.6041 139.254 33.4514 138.096 33.1099C137.203 32.7799 136.411 32.2255 135.797 31.5005C134.493 30.008 133.808 28.0769 133.882 26.0996C133.882 23.4612 134.649 21.4871 136.182 20.1775C136.814 19.6295 137.566 19.2371 138.378 19.032C139.471 18.7842 140.591 18.6726 141.712 18.6998L147.306 18.7227Z" fill="#F67500"/>
<path d="M153.37 13.2417V18.7228H157.584C158.564 18.6936 159.544 18.7918 160.499 19.0149C161.175 19.1977 161.791 19.553 162.287 20.0458C163.218 20.8992 163.684 22.3368 163.695 24.3471V33.5624H159.602V25.1203C159.621 24.5452 159.583 23.9696 159.487 23.4021C159.422 23.0786 159.269 22.7793 159.044 22.5372C158.636 22.102 157.86 21.8786 156.699 21.8671H153.37V33.5624H149.277V13.2417H153.37Z" fill="#F67500"/>
<path d="M40.6958 4.71948V26.2831L44.6854 33.5625H44.8406V4.71948H40.6958ZM27.0195 12.8409V33.5625H31.1586V20.2292L27.0885 12.7836L27.0195 12.8409Z" fill="#2B388F"/>
<path d="M46.6057 39.2669L28.6007 6.42612C28.5008 6.24034 28.3643 6.07659 28.1993 5.9447C28.0343 5.81281 27.8443 5.71551 27.6406 5.65865C27.2407 5.54458 26.812 5.58976 26.4449 5.78465L5.68622 17.0848C5.31327 17.2904 5.03659 17.634 4.91609 18.0414C4.79559 18.4487 4.84095 18.8869 5.04236 19.2612L8.45711 25.4868L12.5847 25.9622L9.77357 20.8763L27.5199 11.3803L41.6503 37.1535L23.9269 46.6495L14.7635 29.9427L13.8149 28.2245L12.6479 28.0641L9.67584 27.7205L2.07027 26.8499C1.58085 26.7937 1.08907 26.9335 0.703117 27.2386C0.317158 27.5436 0.0686371 27.9889 0.0122247 28.4765C-0.0441876 28.9641 0.09613 29.4541 0.402309 29.8386C0.708488 30.2231 1.15545 30.4707 1.64486 30.5269L11.8661 31.701L23.0474 52.1191C23.2525 52.492 23.5979 52.7684 24.0075 52.8876C24.4172 53.0068 24.8576 52.9591 25.2319 52.7549L45.9906 41.4433C46.1777 41.3439 46.3428 41.208 46.4762 41.0437C46.6095 40.8793 46.7083 40.69 46.7666 40.4868C46.876 40.0749 46.8182 39.6367 46.6057 39.2669ZM19.8338 13.3677L15.5683 15.6586C15.4988 15.6963 15.4226 15.7199 15.344 15.7281C15.2654 15.7364 15.1859 15.7291 15.1101 15.7068C15.0343 15.6845 14.9637 15.6475 14.9022 15.5979C14.8408 15.5484 14.7897 15.4873 14.752 15.4181C14.7142 15.3489 14.6905 15.273 14.6822 15.1947C14.6739 15.1163 14.6812 15.0372 14.7036 14.9616C14.726 14.8861 14.7632 14.8157 14.8129 14.7545C14.8626 14.6933 14.924 14.6424 14.9934 14.6048L19.259 12.3139C19.3985 12.2379 19.5626 12.2203 19.7151 12.2649C19.8677 12.3094 19.9962 12.4126 20.0724 12.5515C20.1486 12.6905 20.1663 12.854 20.1216 13.006C20.0769 13.158 19.9733 13.286 19.8338 13.362V13.3677ZM35.0277 44.7824C34.9955 45.0465 34.8851 45.2951 34.7106 45.4965C34.5361 45.6978 34.3053 45.8429 34.0477 45.9132C33.7902 45.9835 33.5174 45.9758 33.2643 45.8912C33.0111 45.8065 32.7889 45.6487 32.6261 45.4378C32.4633 45.2269 32.3672 44.9725 32.35 44.707C32.3327 44.4414 32.3953 44.1768 32.5295 43.9468C32.6638 43.7169 32.8637 43.5319 33.1039 43.4155C33.344 43.2991 33.6135 43.2565 33.878 43.2932C34.228 43.3403 34.5451 43.5232 34.7604 43.8021C34.9758 44.081 35.0718 44.4333 35.0277 44.7824Z" fill="#F67500"/>
<path d="M29.4811 57.4342C29.4138 58.0041 29.1784 58.5414 28.8048 58.9782C28.4311 59.415 27.936 59.7317 27.3818 59.8883C26.8277 60.0449 26.2394 60.0344 25.6912 59.8581C25.143 59.6818 24.6596 59.3476 24.3019 58.8978C23.9442 58.448 23.7283 57.9026 23.6815 57.3306C23.6347 56.7587 23.7591 56.1857 24.0389 55.6841C24.3187 55.1824 24.7415 54.7747 25.2537 54.5123C25.766 54.2499 26.3449 54.1446 26.9172 54.2097C27.2983 54.253 27.6671 54.3709 28.0024 54.5566C28.3377 54.7422 28.6329 54.992 28.8711 55.2916C29.1093 55.5912 29.2858 55.9346 29.3905 56.3023C29.4951 56.67 29.5259 57.0546 29.4811 57.4342Z" fill="#F67500"/>
<path d="M44.5533 57.4341C44.4858 58.0043 44.2502 58.5417 43.8762 58.9785C43.5022 59.4152 43.0067 59.7318 42.4522 59.8881C41.8978 60.0444 41.3092 60.0334 40.761 59.8566C40.2128 59.6798 39.7295 59.345 39.3722 58.8946C39.0148 58.4442 38.7995 57.8984 38.7535 57.3261C38.7074 56.7539 38.8326 56.1808 39.1133 55.6795C39.394 55.1781 39.8176 54.7709 40.3305 54.5092C40.8435 54.2476 41.4227 54.1433 41.9951 54.2096C42.3757 54.2536 42.7439 54.372 43.0785 54.558C43.4132 54.744 43.7077 54.9938 43.9453 55.2933C44.1829 55.5928 44.3589 55.9361 44.4633 56.3034C44.5676 56.6708 44.5982 57.055 44.5533 57.4341Z" fill="#F67500"/>
<path d="M39.2812 6.03665L42.7822 0L46.2832 6.03665H39.2812Z" fill="#2B388F"/>
</svg>
