<svg width="115" height="222" viewBox="0 0 115 222" fill="none" xmlns="http://www.w3.org/2000/svg">
<path d="M105.075 0H9.60186C7.05619 0.00294251 4.61563 1.01551 2.81557 2.81557C1.01551 4.61563 0.00294251 7.05619 0 9.60186V211.862C0.00294251 214.408 1.01551 216.849 2.81557 218.649C4.61563 220.449 7.05619 221.461 9.60186 221.464H105.075C107.62 221.461 110.061 220.449 111.861 218.649C113.661 216.849 114.674 214.408 114.676 211.862V9.60186C114.674 7.05619 113.661 4.61563 111.861 2.81557C110.061 1.01551 107.62 0.00294251 105.075 0ZM109.623 211.862C109.623 213.069 109.144 214.226 108.291 215.079C107.438 215.932 106.281 216.411 105.075 216.411H9.60186C8.39559 216.411 7.23872 215.932 6.38576 215.079C5.5328 214.226 5.05361 213.069 5.05361 211.862V9.60186C5.05495 8.396 5.53457 7.23991 6.38724 6.38724C7.23991 5.53457 8.396 5.05495 9.60186 5.05361H15.2346L23.7136 15.8289C25.7734 18.4467 29.2776 20.0123 33.088 20.0123H80.1058C83.8626 20.0123 87.3405 18.4831 89.4044 15.9229L98.1825 5.05361H105.075C106.281 5.05495 107.437 5.53457 108.289 6.38724C109.142 7.23991 109.622 8.396 109.623 9.60186V211.862Z" fill="black"/>
<path d="M82.808 199.94H31.8676C31.4656 199.94 31.0799 200.1 30.7956 200.384C30.5113 200.669 30.3516 201.054 30.3516 201.456C30.3516 201.858 30.5113 202.244 30.7956 202.528C31.0799 202.813 31.4656 202.972 31.8676 202.972H82.808C83.2101 202.972 83.5957 202.813 83.8801 202.528C84.1644 202.244 84.3241 201.858 84.3241 201.456C84.3241 201.054 84.1644 200.669 83.8801 200.384C83.5957 200.1 83.2101 199.94 82.808 199.94Z" fill="black"/>
<path fill-rule="evenodd" clip-rule="evenodd" d="M55.1593 73.2966C65.9447 73.0672 78.1572 75.1159 84.4338 83.891C90.3385 92.1445 83.4747 103.02 83.6788 113.166C83.8921 123.747 92.8764 135.924 85.6376 143.644C78.413 151.349 64.838 147.808 55.1593 143.581C48.1742 140.531 46.9128 131.777 43.2085 125.116C41.0284 121.198 39.9156 117.326 38.2408 113.166C34.3344 103.463 23.0163 94.738 27.1027 85.1089C31.2224 75.3999 44.6124 73.521 55.1593 73.2966Z" fill="#00B0F0"/>
<path d="M39.2566 146.12C38.0791 145.692 36.7904 145.444 35.7433 144.806C32.3149 142.701 31.1587 139.498 31.5549 135.58C32.0501 130.68 32.4585 125.77 32.9072 120.865C33.3472 116.052 33.7886 111.239 34.2313 106.425C34.5682 102.735 34.9031 99.0442 35.2359 95.3538C35.3703 93.8528 36.1971 93.0625 37.7051 93.0574C39.7993 93.0503 41.8935 93.0574 44.0939 93.0574C44.0939 92.7653 44.0848 92.5005 44.0939 92.2357C44.1758 90.192 44.0514 88.113 44.385 86.1107C45.8465 77.3366 56.2468 72.56 63.899 77.0941C68.3239 79.7149 70.5303 83.6536 70.6233 88.781C70.6486 90.1799 70.6233 91.5807 70.6233 93.0574H74.456C75.3767 93.0574 76.2985 93.0422 77.2193 93.0574C78.4655 93.0847 79.3519 93.9034 79.4651 95.1456C79.9846 100.806 80.4981 106.467 81.0055 112.131C81.5826 118.458 82.1789 124.782 82.7409 131.11C82.943 133.355 83.2311 135.611 83.1826 137.855C83.0946 141.898 79.9058 145.334 75.9054 145.986C75.7525 146.021 75.6022 146.067 75.4556 146.122L39.2566 146.12ZM39.4921 97.4925C39.4557 97.829 39.4223 98.0989 39.3981 98.3728C39.1474 101.148 38.8974 103.922 38.6481 106.695C38.2088 111.532 37.7674 116.369 37.3241 121.205C36.9258 125.561 36.529 129.917 36.1334 134.272C36.0526 135.166 35.9475 136.061 35.9232 136.956C35.8474 139.752 37.7162 141.68 40.5149 141.693C43.7856 141.711 47.0553 141.693 50.326 141.693C58.2258 141.693 66.1253 141.693 74.0244 141.693C75.2373 141.693 76.343 141.418 77.288 140.612C78.703 139.399 78.9315 137.83 78.7677 136.098C78.3806 132.019 78.0218 127.937 77.6509 123.857C76.9151 115.765 76.1793 107.672 75.4435 99.5806C75.3788 98.8812 75.2969 98.1838 75.2251 97.5096H70.6294C70.6294 99.6695 70.6365 101.784 70.6294 103.899C70.6223 105.314 69.7046 106.303 68.421 106.305C67.1373 106.307 66.2196 105.317 66.2125 103.903C66.2024 102.015 66.2125 100.126 66.2125 98.2374V97.5187H48.5138C48.5138 99.6665 48.5198 101.764 48.5138 103.856C48.5077 105.32 47.588 106.318 46.2791 106.305C45.0005 106.292 44.101 105.302 44.0949 103.879C44.0868 101.99 44.0949 100.102 44.0949 98.2131V97.4854L39.4921 97.4925ZM66.0923 93.018C66.0923 91.0845 66.2631 89.1843 66.0569 87.3266C65.6394 83.5657 62.5931 80.4992 58.9707 79.9281C54.9551 79.2954 51.2276 81.1855 49.4578 84.6603C48.0923 87.3408 48.6492 90.188 48.5057 93.018H66.0923Z" fill="black"/>
</svg>
