<svg width="115" height="222" viewBox="0 0 115 222" fill="none" xmlns="http://www.w3.org/2000/svg">
<path d="M105.008 0H9.59576C7.05171 0.00294064 4.6127 1.01486 2.81378 2.81378C1.01486 4.61269 0.00294064 7.0517 0 9.59575V211.728C0.00294064 214.272 1.01486 216.711 2.81378 218.51C4.6127 220.309 7.05171 221.321 9.59576 221.324H105.008C107.552 221.321 109.991 220.309 111.79 218.51C113.589 216.711 114.601 214.272 114.604 211.728V9.59575C114.601 7.0517 113.589 4.61269 111.79 2.81378C109.991 1.01486 107.552 0.00294064 105.008 0ZM109.553 211.728C109.553 212.933 109.074 214.089 108.222 214.942C107.369 215.794 106.213 216.273 105.008 216.273H9.59576C8.39025 216.273 7.23412 215.794 6.3817 214.942C5.52928 214.089 5.0504 212.933 5.0504 211.728V9.59575C5.05173 8.39066 5.53105 7.23531 6.38318 6.38318C7.23531 5.53105 8.39066 5.05173 9.59576 5.0504H15.2249L23.6985 15.8189C25.757 18.435 29.259 19.9996 33.067 19.9996H80.0549C83.8093 19.9996 87.285 18.4713 89.3476 15.9128L98.1201 5.0504H105.008C106.213 5.05173 107.368 5.53105 108.22 6.38318C109.073 7.23531 109.552 8.39066 109.553 9.59575V211.728Z" fill="black"/>
<path d="M82.7571 199.813H31.8491C31.4473 199.813 31.0619 199.973 30.7778 200.257C30.4936 200.541 30.334 200.926 30.334 201.328C30.334 201.73 30.4936 202.115 30.7778 202.399C31.0619 202.684 31.4473 202.843 31.8491 202.843H82.7571C83.1589 202.843 83.5443 202.684 83.8285 202.399C84.1126 202.115 84.2722 201.73 84.2722 201.328C84.2722 200.926 84.1126 200.541 83.8285 200.257C83.5443 199.973 83.1589 199.813 82.7571 199.813Z" fill="black"/>
<path fill-rule="evenodd" clip-rule="evenodd" d="M90.2897 123.432C84.1282 132.28 75.288 140.939 64.5064 140.848C54.3662 140.761 49.6189 128.816 41.3029 123.013C32.6303 116.959 17.5074 117.053 15.5297 106.662C13.557 96.2939 24.4043 87.4113 33.5091 82.0791C40.0827 78.2317 47.8967 82.3629 55.4571 83.2912C59.9015 83.8356 63.6872 85.2103 68.0326 86.3103C78.1698 88.8638 91.8765 84.8538 97.2512 93.8202C102.675 102.864 96.3138 114.785 90.2897 123.432Z" fill="#00B0F0"/>
<path d="M93.2443 113.858C93.1958 113.779 93.1433 113.686 93.0928 113.588C92.9411 113.273 92.7456 112.981 92.512 112.721C90.5292 110.647 88.5838 108.639 86.7283 106.753C85.5929 105.6 84.0606 105.566 82.9162 106.668C80.9971 108.518 79.0557 110.428 76.9921 112.508C75.9174 113.591 75.8729 115.149 76.885 116.215C77.8971 117.28 79.5183 117.289 80.6557 116.237C81.0506 115.871 81.4385 115.495 81.8183 115.119L81.794 115.256C81.1924 118.513 79.947 121.618 78.1309 124.387C76.3147 127.157 73.9643 129.537 71.2172 131.387C68.47 133.237 65.3814 134.521 62.1321 135.163C58.8827 135.805 55.538 135.792 52.2936 135.125C44.3857 133.483 38.4889 128.928 34.7688 121.59C34.7314 121.518 34.696 121.445 34.6597 121.372C34.4807 120.99 34.2724 120.622 34.0365 120.272C33.4466 119.435 32.5213 119.067 31.4961 119.262C30.6668 119.421 30.0143 119.888 29.6588 120.575C29.2669 121.339 29.284 122.265 29.7083 123.185C31.5335 127.147 34.0516 130.55 37.1919 133.301C42.3625 137.829 48.424 140.363 55.2087 140.831C55.9629 140.883 56.7107 140.909 57.4521 140.909C63.6752 140.909 69.4145 139.075 74.5396 135.443C81.6102 130.428 85.8626 123.509 87.1656 114.873C87.6333 115.302 88.104 115.738 88.5525 116.179C89.409 117.022 90.2757 117.385 91.1312 117.261C91.9867 117.137 92.6938 116.554 93.2614 115.528L93.3837 115.307V114.095L93.2443 113.858Z" fill="black"/>
<path d="M29.6834 115.493C30.3905 115.493 31.0733 115.172 31.7632 114.515C33.8227 112.552 35.8358 110.615 37.358 109.147C37.618 108.903 37.8457 108.627 38.0358 108.325C38.2425 107.99 38.3683 107.612 38.4034 107.22C38.4384 106.828 38.3817 106.433 38.2378 106.067C38.0953 105.692 37.8676 105.356 37.5727 105.085C37.2778 104.814 36.9238 104.615 36.5389 104.505C35.0581 104.077 34.0672 105.026 33.7419 105.339L32.6258 106.413C33.6662 100.568 36.4742 95.6273 40.9872 91.7093C44.7336 88.4588 49.1911 86.4932 54.2365 85.87C59.0081 85.2791 63.6666 86.0589 68.0846 88.1861C72.226 90.178 75.5592 93.0819 77.9935 96.8162C78.5198 97.6243 78.9693 98.4707 79.445 99.3697C79.647 99.7444 79.849 100.132 80.0591 100.514C80.7409 101.75 81.7985 102.332 82.9611 102.1C83.7974 101.935 84.454 101.464 84.8116 100.771C85.2014 100.016 85.1893 99.097 84.7772 98.1839C83.6587 95.6758 82.191 93.3385 80.4177 91.2416C74.8966 84.7771 67.818 81.164 59.3778 80.5095C52.2638 79.959 45.675 81.8044 39.7953 85.9962C33.1995 90.6961 29.0693 97.1465 27.5188 105.169C27.4289 105.631 27.3552 106.096 27.2875 106.556C26.7946 106.038 26.2865 105.513 25.7724 104.987C25.0149 104.213 24.0088 103.954 23.0129 104.28C22.0765 104.583 21.4382 105.332 21.2614 106.337C21.0341 107.631 21.8674 108.502 22.1826 108.83C22.8264 109.499 23.4691 110.17 24.1108 110.841C25.2556 112.036 26.4003 113.231 27.5451 114.424C28.2208 115.131 28.9037 115.477 29.6299 115.495L29.6834 115.493Z" fill="black"/>
</svg>
