<svg width="116" height="222" viewBox="0 0 116 222" fill="none" xmlns="http://www.w3.org/2000/svg">
<path d="M105.641 0H9.65357C7.09419 0.00294064 4.64049 1.01486 2.83073 2.81378C1.02098 4.6127 0.00295836 7.0517 0 9.59575V211.728C0.00295836 214.272 1.02098 216.711 2.83073 218.51C4.64049 220.309 7.09419 221.321 9.65357 221.324H105.641C108.2 221.321 110.654 220.309 112.463 218.51C114.273 216.711 115.291 214.272 115.294 211.728V9.59575C115.291 7.0517 114.273 4.6127 112.463 2.81378C110.654 1.01486 108.2 0.00294064 105.641 0ZM110.213 211.728C110.213 212.933 109.732 214.089 108.874 214.942C108.016 215.794 106.853 216.273 105.641 216.273H9.65357C8.4408 216.273 7.27771 215.794 6.42015 214.942C5.5626 214.089 5.08083 212.933 5.08083 211.728V9.59575C5.08217 8.39066 5.56437 7.23531 6.42164 6.38318C7.2789 5.53105 8.44122 5.05173 9.65357 5.0504H15.3167L23.8413 15.8189C25.9122 18.435 29.4353 19.9996 33.2662 19.9996H80.5372C84.3143 19.9996 87.8109 18.4713 89.8859 15.9128L98.7113 5.0504H105.641C106.853 5.05173 108.015 5.53105 108.872 6.38318C109.73 7.23531 110.212 8.39066 110.213 9.59575V211.728Z" fill="black"/>
<path d="M83.2566 199.813H32.0418C31.6376 199.813 31.2499 199.973 30.964 200.257C30.6782 200.541 30.5176 200.926 30.5176 201.328C30.5176 201.73 30.6782 202.115 30.964 202.399C31.2499 202.684 31.6376 202.843 32.0418 202.843H83.2566C83.6608 202.843 84.0485 202.684 84.3344 202.399C84.6202 202.115 84.7808 201.73 84.7808 201.328C84.7808 200.926 84.6202 200.541 84.3344 200.257C84.0485 199.973 83.6608 199.813 83.2566 199.813Z" fill="black"/>
<path fill-rule="evenodd" clip-rule="evenodd" d="M25.251 94.2728C31.7748 85.6548 40.9843 77.3318 51.8196 77.8227C62.0108 78.2813 66.3386 90.3962 74.4862 96.5041C82.9804 102.875 98.1873 103.34 99.7888 113.797C101.386 124.232 90.1504 132.706 80.7936 137.698C74.0422 141.3 66.3407 136.882 58.7743 135.678C54.3225 134.971 50.5718 133.45 46.2439 132.195C36.1473 129.266 22.2187 132.769 17.1491 123.61C12.0337 114.372 18.8725 102.695 25.251 94.2728Z" fill="#00B0F0"/>
<path d="M95.0118 85.9579L94.5322 84.9741C94.4355 84.7756 94.2925 84.6029 94.115 84.4705C93.9375 84.3381 93.7307 84.2498 93.5119 84.213C93.2931 84.1763 93.0687 84.192 92.8572 84.2591C92.6458 84.3261 92.4536 84.4424 92.2966 84.5984L85.1337 91.7184C85.1011 91.7506 85.0571 91.7686 85.0112 91.7686C84.9654 91.7686 84.9214 91.7506 84.8888 91.7184L81.5131 88.3619C81.4969 88.3461 81.484 88.3273 81.4752 88.3064C81.4664 88.2856 81.4619 88.2633 81.4619 88.2407C81.4619 88.2181 81.4664 88.1958 81.4752 88.175C81.484 88.1542 81.4969 88.1353 81.5131 88.1195L88.6263 81.0489C88.7849 80.8913 88.9029 80.6979 88.9701 80.4851C89.0374 80.2724 89.0519 80.0467 89.0125 79.8272C88.9731 79.6076 88.8809 79.4009 88.7437 79.2244C88.6066 79.0479 88.4286 78.907 88.2249 78.8136L87.2087 78.347C85.0827 77.3677 82.7669 76.8626 80.4238 76.8672C71.4917 76.8672 64.222 84.0943 64.222 92.9739C64.2219 94.1379 64.3483 95.2985 64.599 96.4355C64.6053 96.4637 64.6043 96.493 64.5961 96.5207C64.5879 96.5485 64.5729 96.5737 64.5523 96.5941L42.7322 118.286C42.7006 118.317 42.658 118.335 42.6133 118.336C40.8603 118.307 39.1191 118.626 37.4921 119.275C35.8651 119.924 34.3851 120.89 33.1391 122.117C31.8932 123.343 30.9064 124.804 30.2369 126.415C29.5674 128.025 29.2286 129.753 29.2405 131.495C29.2954 138.586 35.1424 144.398 42.2759 144.453H42.3775C45.8608 144.449 49.2003 143.072 51.6633 140.624C54.1262 138.175 55.5113 134.856 55.5145 131.393C55.5145 131.318 55.5145 131.242 55.5145 131.166C55.5137 131.142 55.5177 131.119 55.5265 131.097C55.5352 131.075 55.5484 131.055 55.5653 131.038L77.8 108.936C77.8187 108.917 77.8416 108.903 77.8669 108.895C77.8921 108.886 77.919 108.884 77.9453 108.888C78.7655 109.012 79.594 109.075 80.4238 109.076C89.3559 109.076 96.6235 101.853 96.6235 92.9739C96.6311 90.5438 96.0799 88.144 95.0118 85.9579ZM80.4258 104.745C79.4922 104.746 78.5618 104.637 77.6537 104.421L77.2279 104.32C76.9963 104.266 76.7546 104.271 76.5256 104.335C76.2965 104.4 76.0878 104.521 75.9191 104.688L51.4803 128.987C51.3337 129.133 51.2218 129.309 51.1526 129.503C51.0835 129.698 51.0591 129.905 51.081 130.11L51.1196 130.478C51.1512 130.784 51.1672 131.09 51.1674 131.397C51.1659 132.573 50.9259 133.737 50.4618 134.819C49.9976 135.9 49.3188 136.878 48.4659 137.693C47.613 138.508 46.6036 139.143 45.498 139.562C44.3923 139.98 43.2132 140.172 42.031 140.127C37.4776 139.952 33.7726 136.269 33.5968 131.744C33.5508 130.569 33.7436 129.396 34.1638 128.297C34.584 127.198 35.2229 126.194 36.0423 125.346C36.8617 124.497 37.8448 123.822 38.9328 123.36C40.0208 122.898 41.1914 122.659 42.3745 122.657C42.6826 122.657 42.9906 122.673 43.2972 122.705L43.667 122.743C43.8732 122.765 44.0816 122.74 44.277 122.671C44.4723 122.603 44.6497 122.491 44.796 122.345L68.9208 98.3688C69.1013 98.19 69.2289 97.9653 69.2895 97.7192C69.3501 97.4732 69.3413 97.2153 69.2642 96.9739L69.121 96.5234C68.5617 94.7583 68.4283 92.8871 68.7316 91.0613C69.035 89.2355 69.7665 87.5063 70.8671 86.0137C71.9676 84.5211 73.4063 83.3071 75.0665 82.4698C76.7268 81.6326 78.5621 81.1957 80.4238 81.1944C80.8992 81.1944 81.3742 81.2221 81.8464 81.2772C81.8802 81.2799 81.9124 81.2927 81.9388 81.3137C81.9652 81.3348 81.9847 81.3632 81.9948 81.3954C82.0064 81.4252 82.0087 81.4578 82.0015 81.489C81.9942 81.5201 81.9777 81.5484 81.9541 81.5701L76.2209 87.271C75.9602 87.5308 75.8137 87.8828 75.8137 88.2498C75.8137 88.6168 75.9602 88.9688 76.2209 89.2286L84.024 96.985C84.2852 97.2441 84.6392 97.3896 85.0082 97.3896C85.3772 97.3896 85.7312 97.2441 85.9924 96.985L91.8556 91.1568C91.8786 91.134 91.9075 91.1181 91.939 91.1109C91.9706 91.1037 92.0036 91.1054 92.0343 91.116C92.0649 91.1265 92.0919 91.1454 92.1123 91.1705C92.1326 91.1956 92.1454 91.2258 92.1493 91.2578C92.2325 91.8288 92.2742 92.4051 92.2743 92.982C92.2684 96.1035 91.0177 99.0953 88.7963 101.302C86.5749 103.508 83.5641 104.749 80.4238 104.752L80.4258 104.745Z" fill="black"/>
<path d="M44.7354 124.899C44.6111 124.775 44.4564 124.687 44.2868 124.641C44.1173 124.596 43.9387 124.596 43.769 124.641L38.5033 126.043C38.3327 126.088 38.1771 126.178 38.0522 126.302C37.9273 126.426 37.8376 126.58 37.792 126.75L36.3815 131.983C36.3363 132.152 36.3364 132.33 36.3818 132.498C36.4273 132.667 36.5166 132.821 36.6406 132.945L40.495 136.776C40.5884 136.869 40.6993 136.942 40.8214 136.992C40.9434 137.042 41.0742 137.068 41.2063 137.068C41.2931 137.068 41.3796 137.057 41.4634 137.034L46.7291 135.632C46.8997 135.586 47.0553 135.497 47.1802 135.373C47.3051 135.249 47.3948 135.094 47.4404 134.925L48.8489 129.694C48.894 129.526 48.8939 129.348 48.8484 129.18C48.8029 129.011 48.7137 128.857 48.5897 128.734L44.7354 124.899ZM45.2008 130.151L44.5078 132.716L41.9247 133.403L40.0367 131.524L40.7287 128.956L43.3118 128.268L45.2008 130.151Z" fill="black"/>
</svg>
