<svg width="858" height="607" viewBox="0 0 858 607" fill="none" xmlns="http://www.w3.org/2000/svg">
<g clip-path="url(#clip0)">
<path d="M157.439 0C153.439 8.38 149.719 16.78 146.309 25.18C118.689 93.18 116.989 148.42 141.109 194.18C175.229 258.87 251.249 266.72 339.279 275.82C401.279 282.23 465.429 288.82 518.619 317.82C563.749 342.41 596.099 383.82 627.379 423.87C665.309 472.42 701.119 518.28 754.129 525.73C761.64 526.785 769.215 527.313 776.799 527.31C804.479 527.31 831.499 520.4 857.999 509.21V0H157.439Z" fill="url(#paint0_linear)"/>
<path d="M776.8 527.31C769.216 527.313 761.641 526.785 754.13 525.73C701.13 518.28 665.31 472.42 627.38 423.87C596.1 383.82 563.75 342.41 518.62 317.87C465.43 288.87 401.3 282.26 339.28 275.87C251.28 266.77 175.28 258.92 141.11 194.23C116.99 148.49 118.69 93.23 146.31 25.23C149.72 16.78 153.46 8.38 157.44 0H112C110.62 3.19333 109.287 6.38667 108 9.58C92.88 46.62 84.75 80 83.08 111.72C83.08 112.4 83.08 113.06 83 113.72V133.21C84.1109 161.228 91.445 188.648 104.47 213.48C124.72 251.87 157.47 278.28 204.68 294.22C244.42 307.65 290.48 312.41 335 317C393 323 452.88 329.18 498.78 354.19C536.37 374.67 566.03 412.64 594.71 449.36C636.03 502.26 678.71 556.96 748.33 566.74C757.818 568.072 767.388 568.741 776.97 568.74C803.2 568.74 830.03 563.74 857.97 553.74V509.21C831.5 520.4 804.48 527.31 776.8 527.31Z" fill="url(#paint1_linear)"/>
</g>
<defs>
<linearGradient id="paint0_linear" x1="1566.47" y1="-765.41" x2="465.109" y2="295.65" gradientUnits="userSpaceOnUse">
<stop stop-color="#B2E4F6"/>
<stop offset="0.08" stop-color="#A9E1F5"/>
<stop offset="0.21" stop-color="#8FD8F2"/>
<stop offset="0.38" stop-color="#66C9EC"/>
<stop offset="0.48" stop-color="#4CC0E9"/>
<stop offset="1" stop-color="#00A5E0"/>
</linearGradient>
<linearGradient id="paint1_linear" x1="-6938.23" y1="161738" x2="1.01983e+06" y2="161738" gradientUnits="userSpaceOnUse">
<stop stop-color="#B2E4F6"/>
<stop offset="0.08" stop-color="#A9E1F5"/>
<stop offset="0.21" stop-color="#8FD8F2"/>
<stop offset="0.38" stop-color="#66C9EC"/>
<stop offset="0.48" stop-color="#4CC0E9"/>
<stop offset="1" stop-color="#00A5E0"/>
</linearGradient>
<clipPath id="clip0">
<rect width="775" height="568.76" fill="white" transform="translate(83)"/>
</clipPath>
</defs>
</svg>
