<svg width="285" height="36" viewBox="0 0 285 36" fill="none" xmlns="http://www.w3.org/2000/svg">
<path d="M20.4609 2.76793C13.4635 3.18987 8.38784 8.3488 8.38784 11.91C8.38784 13.5977 9.19045 14.4135 10.5809 14.4135C11.1933 14.3407 11.7996 14.2241 12.3952 14.0647C12.7683 14.0647 12.9265 14.2785 12.9265 14.6273C12.9265 16.1181 9.93654 20.0563 5.71436 20.0563C2.40218 20.0506 0 17.9184 0 14.1997C0 5.85091 11.1122 0 23.8805 0C32.0027 0 36.2757 2.97609 36.2757 7.60619C36.2757 12.602 32.1101 15.7412 27.7296 16.27C30.7196 16.5401 35.3657 19.9944 35.3657 24.4613C35.3657 33.0239 28.7414 35.5218 23.4 35.5218C19.5566 35.5218 16.9339 33.609 16.1879 33.609C14.9613 33.609 12.2313 35.5218 10.7391 35.5218C10.2022 35.5218 9.88567 35.2574 9.88567 34.8298C9.88567 34.1378 10.6826 33.8228 11.6491 31.218C12.5026 28.8776 15.0687 14.2503 16.5609 8.50633C17.5218 4.89451 19.0196 3.77496 20.4609 2.76793ZM22.0096 17.2321C22.0096 17.2321 19.8222 28.8214 19.8222 30.256C19.8093 30.5718 19.8605 30.887 19.9727 31.1827C20.0849 31.4784 20.2559 31.7485 20.4754 31.9769C20.6949 32.2054 20.9584 32.3874 21.2501 32.5122C21.5419 32.637 21.8559 32.702 22.1735 32.7032C24.3609 32.7032 27.4074 29.9409 27.4074 22.4923C27.4074 19.128 24.9487 17.2321 22.0096 17.2321ZM29.2218 6.48664C29.2218 4.36006 28.2609 2.66104 26.4974 2.66104C25.0053 4.09564 22.6539 14.571 22.7048 14.571C26.4974 14.571 29.2218 10.4248 29.2218 6.48664Z" fill="#FEDA00"/>
<path d="M53.3675 35.5219C52.4733 35.5356 51.5969 35.2722 50.8597 34.7683C50.1225 34.2643 49.5609 33.5447 49.2527 32.709C49.2527 32.709 46.4267 35.5219 42.521 35.5219C39.3727 35.5219 36.8066 33.3954 36.8066 29.2997C36.8066 24.0339 40.0114 18.6668 47.6532 18.6668C50.4793 18.6668 51.2875 19.6738 52.141 19.6738C52.9945 19.6738 55.3458 18.6668 56.5723 18.6668C56.6815 18.6507 56.7929 18.6602 56.8977 18.6947C57.0024 18.7291 57.0976 18.7875 57.1757 18.8652C57.2537 18.9428 57.3123 19.0376 57.3469 19.1419C57.3815 19.2461 57.3911 19.357 57.3749 19.4657C57.3749 20.7371 55.5041 24.889 55.5041 29.0297C55.5041 30.4136 56.3632 31.2125 57.3241 31.2125C58.2849 31.2125 58.658 30.7849 59.3532 30.0873C59.7262 29.716 59.9184 29.5585 60.2632 29.5585C60.4602 29.5614 60.6482 29.6406 60.7875 29.7792C60.9268 29.9179 61.0064 30.1051 61.0093 30.3011C61.0093 30.8637 60.6871 31.3082 60.1558 31.9889C59.3691 33.0532 58.3486 33.9247 57.1722 34.5369C55.9959 35.1492 54.6946 35.4861 53.3675 35.5219ZM48.1336 21.0072C45.0871 21.0072 43.7532 26.588 43.7532 29.5135C43.7532 30.8975 44.3919 32.0114 45.5675 32.0114C46.5849 32.0114 47.6532 31.1112 48.3484 29.5135C49.1833 27.2809 49.6527 24.9294 49.7388 22.5487C49.7388 21.5923 49.2527 21.0072 48.1336 21.0072Z" fill="#FEDA00"/>
<path d="M71.1039 31.4262C71.1039 28.1857 72.7996 26.0591 72.7996 23.9832C72.7996 23.1337 72.3135 22.4923 71.5674 22.4923C70.6574 22.4923 69.38 23.3981 68.1761 25.7384C67.3113 27.5669 65.9209 32.0676 65.9209 34.1379C65.9209 35.0437 65.5478 35.2631 64.7452 35.2631C63.1457 35.2631 61.06 35.5275 60.2574 35.5275C59.5622 35.5275 59.127 35.2631 59.127 34.3573C59.127 32.3939 61.3878 25.2096 61.3878 22.3404C61.3878 21.4346 61.0148 21.3278 61.0148 20.6527C61.0148 19.4825 63.8974 18.6836 66.9948 18.6836C68.1704 18.6836 68.8148 19.1618 68.8148 20.0676C68.7512 20.8767 68.6073 21.6776 68.3852 22.4586C69.3461 21.2884 72.5 18.6836 75.6539 18.6836C78.5874 18.6836 79.7631 20.0113 79.7631 22.0591C79.7631 24.5064 78.2709 27.1674 78.2709 29.3446C78.2709 30.7286 79.017 31.2631 79.9665 31.2631C80.9161 31.2631 81.3005 30.8355 81.9957 30.1379C82.3744 29.7666 82.5609 29.6091 82.9057 29.6091C83.0961 29.6115 83.2786 29.6852 83.4169 29.8155C83.5551 29.9458 83.639 30.1232 83.6518 30.3123C83.6518 30.8749 83.3353 31.3193 82.7983 32.0001C82.0104 33.0601 80.99 33.9272 79.8146 34.5356C78.6393 35.1439 77.34 35.4774 76.0157 35.5106C72.9748 35.5219 71.1039 33.7159 71.1039 31.4262Z" fill="#FEDA00"/>
<path d="M98.6193 35.5219C97.7249 35.5364 96.8481 35.2734 96.1107 34.7693C95.3733 34.2652 94.8119 33.5451 94.5045 32.709C94.5045 32.709 91.6784 35.5219 87.7727 35.5219C84.6188 35.5219 82.0527 33.3954 82.0527 29.2997C82.0527 24.0339 85.2632 18.6668 92.8993 18.6668C95.7254 18.6668 96.5336 19.6738 97.3871 19.6738C98.2406 19.6738 100.592 18.6668 101.824 18.6668C101.933 18.6507 102.045 18.6602 102.149 18.6947C102.254 18.7291 102.349 18.7875 102.427 18.8652C102.505 18.9428 102.564 19.0376 102.599 19.1419C102.633 19.2461 102.643 19.357 102.627 19.4657C102.627 20.7371 100.756 24.889 100.756 29.0297C100.756 30.4136 101.609 31.2125 102.57 31.2125C103.531 31.2125 103.904 30.7849 104.599 30.0873C104.972 29.716 105.165 29.5585 105.509 29.5585C105.709 29.56 105.9 29.6401 106.041 29.7813C106.182 29.9225 106.261 30.1134 106.261 30.3124C106.261 30.875 105.945 31.3194 105.408 32.0001C104.62 33.063 103.599 33.9328 102.423 34.5431C101.247 35.1535 99.9455 35.4882 98.6193 35.5219ZM93.3797 21.0072C90.3388 21.0072 88.9993 26.588 88.9993 29.5135C88.9993 30.8975 89.6436 32.0114 90.8193 32.0114C91.831 32.0114 92.8993 31.1112 93.5945 29.5135C94.432 27.2816 94.9016 24.9297 94.9849 22.5487C94.9849 21.5923 94.5045 21.0072 93.3797 21.0072Z" fill="#FEDA00"/>
<path d="M116.35 31.4262C116.35 28.1857 118.046 26.0591 118.046 23.9832C118.046 23.1337 117.565 22.4923 116.814 22.4923C115.909 22.4923 114.626 23.3981 113.451 25.7384C112.558 27.5669 111.173 32.0676 111.173 34.1379C111.173 35.0437 110.794 35.2631 109.992 35.2631C108.392 35.2631 106.306 35.5275 105.509 35.5275C104.814 35.5275 104.379 35.2631 104.379 34.3573C104.379 32.3939 106.64 25.2096 106.64 22.3404C106.64 21.4346 106.267 21.3278 106.267 20.6527C106.267 19.4825 109.149 18.6836 112.247 18.6836C113.422 18.6836 114.067 19.1618 114.067 20.0676C114.003 20.8767 113.859 21.6776 113.637 22.4586C114.598 21.2884 117.752 18.6836 120.906 18.6836C123.845 18.6836 125.021 20.0113 125.021 22.0591C125.021 24.5064 123.523 27.1674 123.523 29.3446C123.523 30.7286 124.269 31.2631 125.218 31.2631C126.168 31.2631 126.558 30.8355 127.253 30.1379C127.626 29.7666 127.819 29.6091 128.158 29.6091C128.355 29.6119 128.544 29.6909 128.684 29.8294C128.824 29.9679 128.905 30.1551 128.909 30.3517C128.909 30.9143 128.587 31.3587 128.05 32.0394C127.263 33.1001 126.243 33.9677 125.067 34.5761C123.892 35.1845 122.592 35.5176 121.268 35.55C118.221 35.5219 116.35 33.7159 116.35 31.4262Z" fill="#FEDA00"/>
<path d="M143.916 35.5219C143.017 35.5314 142.136 35.2671 141.391 34.7644C140.647 34.2617 140.074 33.5445 139.751 32.709C139.751 32.709 136.925 35.5219 133.019 35.5219C129.865 35.5219 127.305 33.3954 127.305 29.2997C127.305 24.0339 130.509 18.6668 138.151 18.6668C140.977 18.6668 141.78 19.6738 142.639 19.6738C143.498 19.6738 145.844 18.6668 147.07 18.6668C147.18 18.6507 147.291 18.6602 147.396 18.6947C147.5 18.7291 147.596 18.7875 147.674 18.8652C147.752 18.9428 147.81 19.0376 147.845 19.1419C147.88 19.2461 147.889 19.357 147.873 19.4657C147.873 20.7371 146.002 24.889 146.002 29.0297C146.002 30.8356 146.432 31.5276 147.178 31.5276C147.707 31.5321 148.219 31.344 148.619 30.9987C148.992 30.7287 149.156 30.5712 149.422 30.5712C149.572 30.5712 149.715 30.6304 149.821 30.7359C149.927 30.8414 149.987 30.9845 149.987 31.1338C149.923 31.6332 149.699 32.0988 149.348 32.4615C148.139 34.0873 146.697 35.5219 143.916 35.5219ZM138.632 20.844C135.585 20.844 134.251 26.4305 134.251 29.356C134.251 30.7343 134.89 31.8539 136.066 31.8539C137.083 31.8539 138.151 30.9481 138.846 29.356C139.68 27.1212 140.147 24.7678 140.231 22.3855C140.231 21.4291 139.751 20.844 138.632 20.844Z" fill="#FEDA00"/>
<path d="M177.196 25.8453C177.196 17.9184 170.413 14.9423 170.413 8.88326C170.413 3.08298 176.235 0 180.672 0C185.109 0 187.618 2.01969 187.618 5.79465C187.618 8.13502 186.121 10.2616 183.933 10.2616C182.486 10.2616 181.311 9.36146 181.311 7.92124C181.311 6.11533 183.131 5.53024 183.131 4.14627C183.131 3.35302 182.808 2.71167 181.475 2.71167C179.604 2.71167 177.948 4.30942 177.948 6.64979C177.948 12.872 185.211 15.8481 185.211 23.6118C185.211 30.6835 179.389 35.9887 171.696 35.9887C166.044 35.9887 161.172 33.0127 161.172 27.8031C161.172 22.9086 166.462 20.5682 170.215 20.5682C172.035 20.5682 172.567 20.9395 172.567 21.4177C172.567 21.9803 172.194 22.2166 171.657 22.5429C170.739 23.1626 169.986 23.9946 169.462 24.9676C168.938 25.9406 168.66 27.0256 168.65 28.1294C168.65 30.7904 170.345 32.4894 172.765 32.4894C175.331 32.4894 177.196 29.6709 177.196 25.8453Z" fill="#FEDA00"/>
<path d="M203.801 29.4065C204.099 29.0787 204.496 28.8557 204.932 28.7708C205.017 28.7668 205.102 28.7805 205.181 28.811C205.26 28.8415 205.332 28.8882 205.392 28.9481C205.452 29.0079 205.499 29.0796 205.53 29.1585C205.561 29.2375 205.574 29.3219 205.57 29.4065C205.57 29.941 205.305 30.3629 204.502 31.218C202.739 33.0746 200.122 35.685 194.939 35.685C189.92 35.685 186.393 33.4346 186.393 28.3713C186.393 23.308 190.553 18.5654 197.657 18.5654C201.292 18.5654 202.948 20.1576 202.948 22.4473C202.948 25.4796 199.37 28.4051 194.029 28.827C194.029 30.6892 195.47 32.1238 198.036 32.1238C200.76 32.1182 202.626 30.3798 203.801 29.4065ZM199.048 22.0929C199.065 21.9231 199.043 21.7518 198.984 21.5917C198.925 21.4317 198.83 21.2871 198.706 21.169C198.582 21.0508 198.433 20.9622 198.27 20.9098C198.107 20.8574 197.934 20.8425 197.765 20.8664C196.165 20.8664 194.029 23.4768 194.029 26.6104C197.07 26.0028 199.048 23.3474 199.048 22.0704V22.0929Z" fill="#FEDA00"/>
<path d="M210.001 34.1379C210.001 35.0437 209.622 35.2631 208.825 35.2631C207.22 35.2631 205.134 35.5275 204.337 35.5275C203.642 35.5275 203.207 35.2631 203.207 34.3573C203.207 32.3939 205.468 25.2096 205.468 22.3404C205.468 21.4346 205.095 21.3278 205.095 20.6527C205.095 19.4825 207.977 18.6836 211.081 18.6836C212.251 18.6836 212.895 19.1618 212.895 20.0676C212.865 20.7674 212.757 21.4618 212.573 22.1379C212.895 21.5022 214.393 18.8974 217.275 18.8974C218.773 18.8974 219.734 19.7975 219.734 21.3953C219.734 23.3643 218.451 25.5978 216.258 25.5978C215.974 25.6225 215.687 25.5888 215.417 25.4987C215.146 25.4087 214.897 25.2642 214.685 25.0742C214.473 24.8843 214.303 24.6529 214.184 24.3946C214.066 24.1362 214.002 23.8564 213.997 23.5725C213.675 23.6794 212.98 24.3714 212.177 25.8622C211.227 27.6512 210.001 32.0676 210.001 34.1379Z" fill="#FEDA00"/>
<path d="M220.898 20.6356C220.898 19.4654 223.724 18.6665 226.827 18.6665C228.003 18.6665 228.642 19.1447 228.642 20.0505C228.642 22.3852 226.72 26.8015 226.72 30.0477C226.698 30.2087 226.713 30.3727 226.763 30.5272C226.814 30.6818 226.899 30.823 227.012 30.9404C227.125 31.0577 227.263 31.1482 227.416 31.205C227.569 31.2618 227.733 31.2835 227.896 31.2685C230.19 31.2685 233.022 27.651 233.022 24.9394C233.022 23.9323 231.688 23.5554 231.688 21.6989C231.688 19.8423 233.129 18.6665 234.893 18.6665C236.922 18.6665 238.154 20.1011 238.154 22.4415C238.154 27.9717 231.044 35.5216 223.832 35.5216C220.898 35.5216 219.451 33.6088 219.451 31.426C219.451 27.9154 221.215 24.2474 221.215 22.3346C221.215 21.4288 220.898 21.3219 220.898 20.6356Z" fill="#FEDA00"/>
<path d="M238.686 31.1109C238.686 27.7354 240.449 24.2474 240.449 22.3346C240.449 21.4288 240.127 21.3219 240.127 20.6468C240.127 19.4766 242.953 18.6777 246.056 18.6777C247.232 18.6777 247.876 19.1559 247.876 20.0617C247.876 22.1883 246.18 25.5357 246.18 29.0631C246.18 30.4471 246.983 31.246 247.944 31.246C248.905 31.246 249.278 30.8184 249.973 30.1208C250.346 29.7495 250.538 29.5919 250.883 29.5919C251.08 29.5949 251.268 29.674 251.407 29.8127C251.547 29.9513 251.626 30.1385 251.629 30.3346C251.629 30.8972 251.313 31.3416 250.776 32.0223C249.988 33.0823 248.967 33.9495 247.792 34.5579C246.617 35.1662 245.317 35.4997 243.993 35.5329C240.449 35.5216 238.686 33.5526 238.686 31.1109ZM245.79 8.60742C247.712 8.60742 248.78 9.83386 248.78 11.4204C248.78 13.5469 246.859 15.8367 244.824 15.8367C244.437 15.8449 244.053 15.7769 243.693 15.6367C243.332 15.4964 243.004 15.2867 242.725 15.0195C242.447 14.7523 242.224 14.4329 242.07 14.0798C241.916 13.7267 241.834 13.3467 241.828 12.9619C241.834 10.8465 243.761 8.61305 245.79 8.61305V8.60742Z" fill="#FEDA00"/>
<path d="M267.348 29.4065C267.646 29.0787 268.042 28.8557 268.478 28.7708C268.563 28.7668 268.648 28.7805 268.727 28.811C268.807 28.8415 268.879 28.8882 268.939 28.9481C268.999 29.0079 269.046 29.0796 269.076 29.1585C269.107 29.2375 269.121 29.3219 269.117 29.4065C269.117 29.941 268.8 30.3629 267.986 31.218C266.166 33.0239 263.499 35.685 258.53 35.685C253.562 35.685 249.979 33.0746 249.979 28.6076C250.007 23.0661 254.285 18.5654 261.175 18.5654C265.234 18.5654 266.732 20.2532 266.732 22.2898C266.732 24.467 265.341 25.6653 263.578 25.6653C262.351 25.6653 261.441 24.9733 261.441 23.91C261.441 22.7398 262.244 22.2616 262.295 21.6203C262.295 21.1983 261.978 20.9283 261.334 20.9283C259.785 20.9283 257.49 23.7412 257.49 27.5218C257.49 30.6611 259.519 32.0957 261.763 32.0957C264.115 32.1182 266.093 30.526 267.348 29.4065Z" fill="#FEDA00"/>
<path d="M283.078 30.7342C283.425 30.42 283.847 30.2009 284.305 30.0985C284.392 30.0947 284.479 30.1082 284.561 30.1382C284.643 30.1682 284.719 30.2141 284.783 30.2732C284.847 30.3323 284.899 30.4035 284.935 30.4826C284.971 30.5617 284.991 30.6473 284.994 30.7342C284.994 31.2687 284.678 31.6962 283.819 32.5457C282.861 33.5455 281.708 34.3397 280.431 34.8795C279.154 35.4194 277.779 35.6935 276.392 35.685C271.367 35.685 267.682 33.4346 267.682 28.3713C267.682 23.308 271.87 18.5654 278.963 18.5654C282.598 18.5654 284.254 20.1576 284.254 22.4473C284.254 25.4796 280.676 28.4051 275.329 28.827C275.329 30.6892 277.025 32.1238 279.071 32.1238C280.52 32.0888 281.921 31.6028 283.078 30.7342ZM280.348 22.0704C280.365 21.9006 280.343 21.7293 280.284 21.5692C280.225 21.4092 280.13 21.2646 280.006 21.1465C279.883 21.0283 279.734 20.9397 279.571 20.8873C279.408 20.8349 279.235 20.82 279.065 20.8439C277.466 20.8439 275.323 23.4543 275.323 26.5879C278.376 26.0028 280.348 23.3474 280.348 22.0704Z" fill="#FEDA00"/>
</svg>
