<svg width="116" height="222" viewBox="0 0 116 222" fill="none" xmlns="http://www.w3.org/2000/svg">
<path d="M105.742 0.588135H9.75513C7.19576 0.591075 4.74205 1.603 2.9323 3.40191C1.12254 5.20083 0.104521 7.63984 0.101562 10.1839L0.101563 212.316C0.104521 214.86 1.12254 217.299 2.9323 219.098C4.74205 220.897 7.19576 221.909 9.75513 221.912H105.742C108.301 221.909 110.755 220.897 112.565 219.098C114.375 217.299 115.393 214.86 115.396 212.316V10.1839C115.393 7.63984 114.375 5.20083 112.565 3.40191C110.755 1.603 108.301 0.591075 105.742 0.588135V0.588135ZM110.315 212.316C110.315 213.521 109.833 214.678 108.976 215.53C108.118 216.382 106.955 216.861 105.742 216.861H9.75513C8.54237 216.861 7.37927 216.382 6.52172 215.53C5.66416 214.678 5.18239 213.521 5.18239 212.316V10.1839C5.18373 8.9788 5.66594 7.82344 6.5232 6.97131C7.38047 6.11918 8.54278 5.63987 9.75513 5.63853H15.4182L23.9428 16.407C26.0138 19.0231 29.5368 20.5877 33.3678 20.5877H80.6388C84.4159 20.5877 87.9125 19.0595 89.9875 16.5009L98.8129 5.63853H105.742C106.954 5.63987 108.117 6.11918 108.974 6.97131C109.831 7.82344 110.314 8.9788 110.315 10.1839V212.316Z" fill="black"/>
<path d="M83.3562 200.401H32.1414C31.7372 200.401 31.3495 200.561 31.0636 200.845C30.7778 201.129 30.6172 201.514 30.6172 201.916C30.6172 202.318 30.7778 202.703 31.0636 202.987C31.3495 203.271 31.7372 203.431 32.1414 203.431H83.3562C83.7604 203.431 84.1481 203.271 84.434 202.987C84.7198 202.703 84.8804 202.318 84.8804 201.916C84.8804 201.514 84.7198 201.129 84.434 200.845C84.1481 200.561 83.7604 200.401 83.3562 200.401Z" fill="black"/>
<path fill-rule="evenodd" clip-rule="evenodd" d="M25.3506 94.8607C31.8744 86.2427 41.0839 77.9197 51.9193 78.4106C62.1104 78.8692 66.4382 90.984 74.5858 97.092C83.08 103.463 98.2869 103.928 99.8884 114.385C101.486 124.82 90.25 133.294 80.8932 138.286C74.1418 141.888 66.4403 137.47 58.8739 136.266C54.4221 135.559 50.6714 134.038 46.3436 132.783C36.2469 129.854 22.3184 133.357 17.2487 124.197C12.1333 114.96 18.9721 103.283 25.3506 94.8607Z" fill="#FEDA00"/>
<path d="M95.1134 86.5458L94.6338 85.562C94.5371 85.3635 94.3941 85.1908 94.2166 85.0584C94.0391 84.926 93.8323 84.8377 93.6135 84.8009C93.3947 84.7641 93.1702 84.7799 92.9588 84.847C92.7474 84.914 92.5552 85.0303 92.3982 85.1863L85.2353 92.3063C85.2027 92.3384 85.1587 92.3565 85.1128 92.3565C85.0669 92.3565 85.0229 92.3384 84.9904 92.3063L81.6147 88.9498C81.5984 88.934 81.5855 88.9152 81.5768 88.8943C81.568 88.8735 81.5634 88.8512 81.5634 88.8286C81.5634 88.806 81.568 88.7837 81.5768 88.7629C81.5855 88.7421 81.5984 88.7232 81.6147 88.7074L88.7278 81.6368C88.8865 81.4792 89.0044 81.2858 89.0717 81.073C89.1389 80.8603 89.1535 80.6346 89.114 80.4151C89.0746 80.1955 88.9824 79.9887 88.8453 79.8123C88.7082 79.6358 88.5302 79.4949 88.3264 79.4015L87.3103 78.9349C85.1843 77.9556 82.8685 77.4505 80.5253 77.4551C71.5932 77.4551 64.3236 84.6822 64.3236 93.5618C64.3235 94.7258 64.4499 95.8864 64.7006 97.0234C64.7068 97.0516 64.7058 97.0809 64.6977 97.1086C64.6895 97.1363 64.6744 97.1616 64.6538 97.182L42.8337 118.873C42.8022 118.905 42.7595 118.923 42.7148 118.924C40.9619 118.895 39.2207 119.214 37.5937 119.863C35.9666 120.512 34.4866 121.478 33.2407 122.704C31.9947 123.93 31.008 125.392 30.3385 127.002C29.669 128.613 29.3302 130.341 29.3421 132.083C29.397 139.174 35.244 144.986 42.3775 145.041H42.4791C45.9623 145.037 49.3019 143.66 51.7648 141.212C54.2278 138.763 55.6128 135.444 55.6161 131.981C55.6161 131.905 55.6161 131.83 55.6161 131.754C55.6152 131.73 55.6193 131.707 55.628 131.685C55.6368 131.662 55.65 131.642 55.6669 131.626L77.9016 109.524C77.9203 109.505 77.9432 109.491 77.9684 109.483C77.9937 109.474 78.0206 109.472 78.0469 109.476C78.8671 109.6 79.6956 109.663 80.5253 109.664C89.4574 109.664 96.725 102.44 96.725 93.5618C96.7327 91.1316 96.1814 88.7319 95.1134 86.5458V86.5458ZM80.5274 105.333C79.5938 105.333 78.6633 105.225 77.7553 105.009L77.3295 104.908C77.0979 104.854 76.8561 104.859 76.6271 104.923C76.3981 104.988 76.1894 105.109 76.0207 105.276L51.5819 129.575C51.4353 129.721 51.3233 129.897 51.2542 130.091C51.1851 130.285 51.1606 130.493 51.1825 130.697L51.2212 131.066C51.2528 131.371 51.2687 131.678 51.2689 131.985C51.2675 133.161 51.0275 134.325 50.5633 135.406C50.0992 136.488 49.4204 137.466 48.5675 138.281C47.7146 139.096 46.7052 139.731 45.5995 140.15C44.4939 140.568 43.3147 140.76 42.1326 140.715C37.5791 140.54 33.8742 136.857 33.6984 132.332C33.6524 131.157 33.8452 129.984 34.2654 128.885C34.6856 127.786 35.3245 126.782 36.1439 125.934C36.9633 125.085 37.9464 124.41 39.0344 123.948C40.1224 123.486 41.2929 123.247 42.476 123.245C42.7842 123.245 43.0922 123.261 43.3987 123.293L43.7686 123.331C43.9747 123.353 44.1832 123.328 44.3785 123.259C44.5739 123.19 44.7513 123.079 44.8976 122.933L69.0223 98.9567C69.2029 98.7779 69.3305 98.5532 69.391 98.3071C69.4516 98.0611 69.4429 97.8032 69.3658 97.5618L69.2225 97.1113C68.6632 95.3462 68.5298 93.475 68.8332 91.6492C69.1365 89.8234 69.8681 88.0942 70.9687 86.6016C72.0692 85.109 73.5078 83.895 75.1681 83.0577C76.8284 82.2205 78.6636 81.7835 80.5253 81.7823C81.0008 81.7823 81.4758 81.81 81.948 81.8651C81.9817 81.8678 82.0139 81.8806 82.0404 81.9016C82.0668 81.9227 82.0863 81.9511 82.0963 81.9833C82.1079 82.0131 82.1103 82.0457 82.103 82.0769C82.0958 82.108 82.0793 82.1363 82.0557 82.158L76.3225 87.8589C76.0617 88.1187 75.9153 88.4707 75.9153 88.8377C75.9153 89.2047 76.0617 89.5567 76.3225 89.8165L84.1256 97.5729C84.3868 97.832 84.7407 97.9775 85.1098 97.9775C85.4788 97.9775 85.8327 97.832 86.0939 97.5729L91.9572 91.7447C91.9801 91.7219 92.009 91.706 92.0406 91.6988C92.0722 91.6916 92.1052 91.6933 92.1358 91.7039C92.1665 91.7144 92.1935 91.7333 92.2138 91.7584C92.2342 91.7834 92.247 91.8137 92.2509 91.8457C92.334 92.4167 92.3758 92.9929 92.3759 93.5699C92.3699 96.6914 91.1192 99.6832 88.8978 101.89C86.6764 104.096 83.6656 105.337 80.5253 105.34L80.5274 105.333Z" fill="black"/>
<path d="M44.837 125.486C44.7127 125.363 44.558 125.275 44.3884 125.229C44.2188 125.184 44.0403 125.184 43.8706 125.229L38.6048 126.631C38.4342 126.676 38.2786 126.765 38.1538 126.89C38.0289 127.014 37.9391 127.168 37.8935 127.338L36.4831 132.571C36.4378 132.74 36.4379 132.918 36.4834 133.086C36.5289 133.255 36.6181 133.409 36.7422 133.533L40.5965 137.364C40.69 137.457 40.8009 137.53 40.923 137.58C41.045 137.63 41.1758 137.656 41.3078 137.656C41.3947 137.656 41.4812 137.644 41.5649 137.622L46.8307 136.22C47.0013 136.174 47.1569 136.085 47.2818 135.961C47.4066 135.837 47.4964 135.682 47.542 135.512L48.9504 130.282C48.9956 130.114 48.9954 129.936 48.95 129.768C48.9045 129.599 48.8153 129.445 48.6913 129.322L44.837 125.486ZM45.3024 130.739L44.6094 133.303L42.0263 133.991L40.1382 132.112L40.8302 129.544L43.4133 128.856L45.3024 130.739Z" fill="black"/>
</svg>
