<svg width="289" height="60" viewBox="0 0 289 60" fill="none" xmlns="http://www.w3.org/2000/svg">
<path d="M80.9879 23.8485V39.201H74.3447V14.4547H82.3597L91.6306 29.9286L100.912 14.4655H108.927V39.2118H102.292V23.8485L93.1559 39.201H90.124L80.9879 23.8485Z" fill="black"/>
<path d="M123.593 22.5462C123.576 21.365 123.796 20.1923 124.24 19.0977C124.635 18.1345 125.239 17.2708 126.008 16.5686C126.799 15.8629 127.728 15.3278 128.735 14.9967C129.865 14.625 131.049 14.4428 132.239 14.4574H141.084C142.273 14.443 143.457 14.6252 144.587 14.9967C145.598 15.3302 146.532 15.8649 147.331 16.5686C148.109 17.2661 148.72 18.1307 149.118 19.0977C149.557 20.1933 149.772 21.3659 149.751 22.5462V31.1096C149.771 32.2959 149.556 33.4745 149.118 34.5769C148.724 35.5506 148.113 36.4212 147.331 37.1222C146.533 37.8247 145.599 38.3545 144.587 38.678C143.455 39.0373 142.272 39.2139 141.084 39.201H132.225C131.037 39.2141 129.854 39.0375 128.722 38.678C127.714 38.3564 126.784 37.8264 125.994 37.1222C125.223 36.4164 124.619 35.5467 124.226 34.5769C123.788 33.4745 123.573 32.2959 123.593 31.1096V22.5462ZM143.105 30.5676V23.0882C143.105 22.0528 142.836 21.27 142.297 20.7397C141.758 20.2094 140.976 19.947 139.952 19.9524H133.379C132.369 19.9524 131.593 20.2166 131.05 20.7451C130.508 21.2736 130.238 22.0564 130.242 23.0936V30.573C130.242 31.6084 130.511 32.3912 131.05 32.9214C131.589 33.4517 132.365 33.7159 133.379 33.7141H139.952C140.963 33.7141 141.74 33.4499 142.28 32.9214C142.821 32.393 143.096 31.6084 143.105 30.5676Z" fill="black"/>
<path d="M181.439 24.0993C182.037 24.0476 182.61 23.8363 183.099 23.4872C183.331 23.2973 183.514 23.0545 183.632 22.7793C183.751 22.504 183.802 22.2043 183.781 21.9053C183.759 21.6063 183.667 21.3167 183.511 21.0609C183.355 20.8051 183.139 20.5904 182.883 20.435C182.224 20.0979 181.491 19.932 180.752 19.9524H164.396V14.4547H181.873C184.278 14.4547 186.255 15.0632 187.802 16.2801C189.349 17.497 190.26 19.237 190.537 21.5001V22.5462C190.426 24.1433 189.806 25.6627 188.769 26.8818C189.771 28.0808 190.387 29.5544 190.537 31.1095V32.1557C190.44 33.209 190.14 34.2336 189.653 35.1728C189.2 36.0328 188.573 36.7894 187.812 37.3945C187.022 38.0103 186.121 38.468 185.158 38.7427C184.091 39.0525 182.984 39.2051 181.873 39.1957H164.396V33.7034H180.752C181.492 33.7221 182.225 33.5543 182.883 33.2153C183.139 33.0663 183.355 32.857 183.511 32.6057C183.668 32.3544 183.761 32.0686 183.782 31.7732C183.804 31.4777 183.752 31.1816 183.633 30.9104C183.514 30.6392 183.331 30.4012 183.099 30.2171C182.603 29.8787 182.034 29.6625 181.439 29.5862H164.396V24.0993H181.439Z" fill="black"/>
<path d="M211.841 39.201H205.198V14.4547H211.841V39.201Z" fill="black"/>
<path d="M226.5 14.4547H233.146V33.7034H250.044V39.1956H226.5V14.4547Z" fill="black"/>
<path d="M264.702 19.9524V14.4547H288.319V19.9524H264.702ZM264.702 29.5969V24.0993H288.319V29.5915L264.702 29.5969ZM264.702 39.2064V33.7034H288.319V39.1956L264.702 39.2064Z" fill="black"/>
<path d="M112.231 51.2102V60H109.197V51.2102H104.747V48.7027H116.694V51.2102H112.231Z" fill="black"/>
<path d="M126.666 51.2102V48.7027H137.446V51.2102H126.666ZM126.666 53.0976H137.446V55.6051H129.703V57.4925H137.446V60H126.666V53.0976Z" fill="black"/>
<path d="M150.458 52.6446V56.0581C150.442 56.2536 150.467 56.4502 150.53 56.6357C150.594 56.8212 150.695 56.9917 150.827 57.1366C150.973 57.2661 151.144 57.3648 151.329 57.4269C151.514 57.489 151.71 57.5131 151.905 57.4979H159.389V60.0054H151.379C150.837 60.0112 150.298 59.9301 149.781 59.7654C149.32 59.621 148.895 59.3792 148.536 59.0563C148.184 58.7334 147.908 58.3366 147.728 57.8942C147.528 57.3909 147.43 56.853 147.439 56.3115V52.4019C147.429 51.8631 147.527 51.3277 147.728 50.8273C147.91 50.3882 148.186 49.9943 148.536 49.6733C148.897 49.3508 149.321 49.1066 149.781 48.9561C150.297 48.786 150.837 48.7022 151.379 48.7081H159.375V51.2156H151.891C151.696 51.2009 151.501 51.2255 151.315 51.288C151.13 51.3506 150.959 51.4497 150.813 51.5796C150.685 51.7238 150.587 51.8925 150.526 52.0756C150.465 52.2587 150.442 52.4522 150.458 52.6446Z" fill="black"/>
<path d="M178.265 60V55.6132H172.398V60H169.363V48.7027H172.398V53.1165H178.265V48.7027H181.297V60H178.265Z" fill="black"/>
<path d="M204.226 48.7027H207.26V57.4925H214.973V60H204.226V48.7027Z" fill="black"/>
<path d="M230.47 51.4421L227.584 60H224.552L228.424 48.7027H232.513L236.404 60H233.37L230.47 51.4421Z" fill="black"/>
<path d="M245.979 53.1164H253.76C254.033 53.0958 254.295 53.0027 254.52 52.8468C254.625 52.7598 254.709 52.6488 254.762 52.5231C254.816 52.3973 254.839 52.2605 254.83 52.1241C254.82 51.9877 254.778 51.8555 254.706 51.7388C254.635 51.622 254.537 51.524 254.42 51.4529C254.12 51.2989 253.785 51.2229 253.447 51.2318H245.979V48.7242H253.959C254.927 48.6856 255.878 48.9796 256.654 49.5574C257.012 49.8503 257.308 50.2123 257.523 50.6218C257.738 51.0312 257.869 51.4798 257.908 51.9409V52.4181C257.856 53.1472 257.573 53.8406 257.099 54.3972C257.556 54.9449 257.838 55.6176 257.908 56.3277V56.8049C257.862 57.2858 257.725 57.7534 257.503 58.1827C257.296 58.5748 257.009 58.9199 256.663 59.1965C256.302 59.4799 255.89 59.6905 255.45 59.8167C254.963 59.9574 254.458 60.0265 253.951 60.0216H245.979V53.1164ZM249.014 55.624V57.5114H253.447C253.785 57.5203 254.12 57.4443 254.42 57.2903C254.537 57.222 254.635 57.1264 254.707 57.0116C254.778 56.8969 254.821 56.7665 254.83 56.6317C254.84 56.4968 254.817 56.3617 254.763 56.2378C254.709 56.1139 254.626 56.005 254.52 55.9206C254.293 55.7649 254.033 55.666 253.76 55.6321L249.014 55.624Z" fill="black"/>
<path d="M289 53.4023H276.441V55.562H289V53.4023Z" fill="black"/>
<path d="M86.2189 53.4023H73.6602V55.562H86.2189V53.4023Z" fill="black"/>
<path d="M14.9137 34.1239C14.2711 33.8894 13.5926 33.769 12.9086 33.768H8.82023C5.68593 33.768 3.14453 36.1947 3.14453 39.201C3.14453 42.2073 5.68593 44.6313 8.82023 44.6313H12.9086C13.7007 44.6323 14.4848 44.4717 15.2128 44.1594C14.6873 40.8835 14.884 37.4323 14.9137 34.1239Z" fill="black"/>
<path d="M13.3233 22.7376C13.9657 22.5022 14.6443 22.3808 15.3284 22.379H19.4168C22.5511 22.379 25.0763 24.8056 25.0763 27.8093C25.0763 30.8129 22.5376 33.2423 19.4168 33.2423H15.3284C14.5354 33.2429 13.7506 33.0824 13.0215 32.7704C13.547 29.4971 13.353 26.0432 13.3233 22.7376Z" fill="black"/>
<path d="M14.9137 11.8635C14.2711 11.629 13.5926 11.5086 12.9086 11.5076H8.82023C5.68593 11.5076 3.14453 13.9342 3.14453 16.9379C3.14453 19.9415 5.68593 22.3789 8.82023 22.3789H12.9086C13.7007 22.3799 14.4848 22.2194 15.2128 21.9071C14.6873 18.6311 14.884 15.1799 14.9137 11.8635Z" fill="black"/>
<path d="M30.9461 22.0716C33.9452 22.0716 36.3765 19.6392 36.3765 16.6386C36.3765 13.6381 33.9452 11.2056 30.9461 11.2056C27.9469 11.2056 25.5156 13.6381 25.5156 16.6386C25.5156 19.6392 27.9469 22.0716 30.9461 22.0716Z" fill="black"/>
<path d="M25.0903 4.76157C25.0903 4.76157 24.5674 8.68733 25.0903 9.37488C25.1253 9.37488 26.4971 11.5831 30.4803 11.8285C30.6285 11.6829 25.9176 17.3747 25.9176 17.3747C25.9176 17.3747 26.0147 10.9441 21.9425 11.0681C21.9425 11.0439 15.4745 10.6987 14.1916 12.3192C14.0461 12.4675 14.1916 5.44911 14.1916 5.44911L25.0903 4.76157Z" fill="black"/>
<path d="M42.1981 0H18.4523C18.4523 0 12.4344 0.0647103 12.1729 5.82393C12.0409 5.69451 12.1729 32.9187 12.1729 32.9187V46.9878L14.6578 46.1385L15.3773 45.3296L15.3126 34.0215V11.4537L15.4447 6.15288L28.0035 5.82393L40.4302 5.88864C40.4302 5.88864 44.3568 6.02076 44.2895 8.44201C44.3568 8.44201 44.3568 27.5504 44.3568 27.5504L47.545 25.5876V4.51624C47.545 4.51624 46.9063 0.523076 42.1981 0ZM33.7088 4.07406H26.0738C25.8137 4.07406 25.5641 3.97066 25.3802 3.7866C25.1962 3.60254 25.0929 3.35291 25.0929 3.09262C25.0929 2.83232 25.1962 2.58269 25.3802 2.39863C25.5641 2.21458 25.8137 2.11118 26.0738 2.11118H33.7088C33.969 2.11118 34.2185 2.21458 34.4025 2.39863C34.5865 2.58269 34.6898 2.83232 34.6898 3.09262C34.6898 3.35291 34.5865 3.60254 34.4025 3.7866C34.2185 3.97066 33.969 4.07406 33.7088 4.07406ZM37.0453 3.87723C36.8704 3.87723 36.6995 3.82536 36.5541 3.72819C36.4088 3.63101 36.2955 3.49289 36.2286 3.33129C36.1617 3.16969 36.1442 2.99187 36.1783 2.82032C36.2124 2.64877 36.2966 2.49119 36.4202 2.36751C36.5438 2.24383 36.7013 2.1596 36.8728 2.12547C37.0443 2.09135 37.222 2.10886 37.3835 2.1758C37.5451 2.24274 37.6831 2.35609 37.7802 2.50152C37.8774 2.64696 37.9292 2.81794 37.9292 2.99285C37.9296 3.10909 37.9069 3.22425 37.8627 3.33171C37.8184 3.43917 37.7533 3.5368 37.6711 3.619C37.5889 3.70119 37.4914 3.76632 37.384 3.81064C37.2765 3.85495 37.1614 3.87759 37.0453 3.87723Z" fill="black"/>
<path d="M47.5444 31.4627L47.2992 30.6754L44.2565 33.768L44.3562 50.652C44.3562 50.652 44.0598 53.7447 42.0008 53.9415L17.4761 53.99C17.4761 53.99 15.2204 54.1383 15.2204 49.4738L12.1777 50.7518V54.5805C12.1777 54.5805 12.7652 59.5848 17.6729 59.973C17.7699 60.0216 42.1975 59.973 42.1975 59.973C42.1975 59.973 46.8087 59.876 47.5444 54.4268C47.4447 54.5293 47.5444 31.4627 47.5444 31.4627ZM29.8813 58.5305C29.5904 58.53 29.3061 58.4432 29.0645 58.2811C28.8229 58.119 28.6347 57.8889 28.5237 57.6199C28.4128 57.3508 28.384 57.0549 28.4411 56.7695C28.4982 56.4841 28.6385 56.2221 28.8444 56.0164C29.0503 55.8108 29.3125 55.6709 29.5979 55.6143C29.8833 55.5577 30.179 55.587 30.4477 55.6985C30.7164 55.81 30.9461 55.9987 31.1077 56.2408C31.2692 56.4828 31.3555 56.7673 31.3555 57.0584C31.3555 57.2519 31.3173 57.4436 31.2432 57.6224C31.1691 57.8012 31.0604 57.9636 30.9235 58.1003C30.7866 58.237 30.6241 58.3454 30.4452 58.4192C30.2664 58.4931 30.0747 58.5309 29.8813 58.5305Z" fill="black"/>
<path d="M64.6371 9.07834C61.9098 6.67327 55.2665 8.34496 51.5798 9.5448C51.5406 9.55004 51.5019 9.55815 51.4639 9.56906L50.4398 9.93036L49.3402 10.3186C48.7527 10.5262 48.5128 11.3621 48.8012 12.1871C49.0896 13.0122 49.8064 13.5083 50.3913 13.3007L52.5203 12.5457C56.7785 11.1787 61.4327 10.4507 62.5539 11.4376C62.7425 11.6047 62.7722 11.9768 62.6401 12.5377L62.597 12.7129V12.7372C62.438 13.3546 61.1794 17.4179 54.7814 22.2442L54.671 22.3332C53.6927 23.1421 36.547 36.9469 21.5492 42.6334C18.8973 43.6391 11.5291 45.5669 10.6667 45.8365C6.59996 47.031 3.95615 47.0229 3.32012 46.2787C2.93743 45.8284 3.05062 44.3051 4.6299 41.4902L5.40337 41.0426L4.81316 36.92C4.81316 36.92 4.40083 37.2759 3.85643 37.8017C3.12314 38.6034 2.43571 39.446 1.79744 40.3254C1.40947 40.9182 1.06971 41.5412 0.781419 42.1885C-0.000135797 44.0867 -0.539139 46.5645 0.93234 48.3063C1.91602 49.463 3.52225 49.9079 5.40607 49.9079C8.20619 49.9079 17.857 47.1658 19.5953 46.6265C35.5741 41.6627 54.7087 26.3776 56.6814 24.7463C63.5079 19.5938 65.4322 14.7702 65.707 13.2252C66.2164 11.0277 65.4079 9.7578 64.6371 9.07834Z" fill="black"/>
</svg>
