<svg width="207" height="43" viewBox="0 0 207 43" fill="none" xmlns="http://www.w3.org/2000/svg">
<path d="M58.0055 17.0741V28.0657H53.2471V10.3486H58.988L65.6285 21.4271L72.2768 10.3564H78.0177V28.0734H73.2651V17.0741L66.7211 28.0657H64.5494L58.0055 17.0741Z" fill="#333333"/>
<path d="M88.5224 16.1418C88.5101 15.2961 88.6677 14.4566 88.9857 13.6729C89.269 12.9832 89.7015 12.3649 90.252 11.8622C90.8191 11.3569 91.4841 10.9738 92.2056 10.7368C93.0151 10.4707 93.863 10.3402 94.7151 10.3507H101.051C101.903 10.3404 102.751 10.4708 103.56 10.7368C104.284 10.9755 104.953 11.3583 105.525 11.8622C106.083 12.3616 106.52 12.9806 106.805 13.6729C107.12 14.4573 107.274 15.2968 107.259 16.1418V22.2727C107.273 23.1221 107.119 23.9659 106.805 24.7552C106.523 25.4523 106.085 26.0756 105.525 26.5775C104.954 27.0804 104.285 27.4597 103.56 27.6913C102.749 27.9485 101.902 28.0749 101.051 28.0658H94.7054C93.8543 28.0751 93.0072 27.9487 92.1959 27.6913C91.4739 27.4611 90.8083 27.0816 90.2424 26.5775C89.6896 26.0721 89.2569 25.4495 88.9761 24.7552C88.6621 23.9659 88.5079 23.1221 88.5224 22.2727V16.1418ZM102.498 21.8847V16.5298C102.498 15.7886 102.305 15.2281 101.919 14.8485C101.533 14.4688 100.973 14.2809 100.24 14.2848H95.5316C94.8084 14.2848 94.2524 14.474 93.8638 14.8523C93.4751 15.2307 93.2821 15.7911 93.2847 16.5337V21.8886C93.2847 22.6298 93.4777 23.1903 93.8638 23.5699C94.2499 23.9496 94.8058 24.1387 95.5316 24.1375H100.24C100.964 24.1375 101.52 23.9483 101.908 23.5699C102.295 23.1916 102.492 22.6298 102.498 21.8847Z" fill="#333333"/>
<path d="M129.957 17.2536C130.385 17.2166 130.796 17.0653 131.146 16.8154C131.312 16.6794 131.443 16.5056 131.528 16.3086C131.613 16.1115 131.649 15.8969 131.634 15.6828C131.619 15.4688 131.553 15.2615 131.441 15.0783C131.329 14.8951 131.175 14.7415 130.991 14.6302C130.519 14.3889 129.994 14.27 129.465 14.2847H117.749V10.3486H130.268C131.991 10.3486 133.406 10.7843 134.514 11.6555C135.622 12.5267 136.276 13.7725 136.474 15.3927V16.1417C136.394 17.2851 135.95 18.3729 135.207 19.2458C135.925 20.1042 136.366 21.1592 136.474 22.2726V23.0216C136.404 23.7757 136.189 24.5092 135.841 25.1817C135.516 25.7974 135.067 26.339 134.522 26.7723C133.956 27.2131 133.311 27.5408 132.621 27.7375C131.856 27.9593 131.063 28.0685 130.268 28.0618H117.749V24.1296H129.465C129.995 24.1431 130.52 24.0229 130.991 23.7802C131.175 23.6735 131.329 23.5237 131.441 23.3438C131.554 23.1638 131.62 22.9592 131.635 22.7477C131.651 22.5362 131.614 22.3242 131.529 22.13C131.443 21.9359 131.312 21.7655 131.146 21.6336C130.791 21.3914 130.383 21.2366 129.957 21.1819H117.749V17.2536H129.957Z" fill="#333333"/>
<path d="M151.733 28.0657H146.975V10.3486H151.733V28.0657Z" fill="#333333"/>
<path d="M162.232 10.3486H166.993V24.1296H179.096V28.0618H162.232V10.3486Z" fill="#333333"/>
<path d="M189.596 14.2847V10.3486H206.512V14.2847H189.596ZM189.596 21.1896V17.2536H206.512V21.1858L189.596 21.1896ZM189.596 28.0695V24.1296H206.512V28.0618L189.596 28.0695Z" fill="#333333"/>
<path d="M80.3841 36.6637V42.9567H78.2105V36.6637H75.0234V34.8684H83.5808V36.6637H80.3841Z" fill="#333333"/>
<path d="M90.7236 36.6637V34.8684H98.4452V36.6637H90.7236ZM90.7236 38.0149H98.4452V39.8102H92.8992V41.1614H98.4452V42.9567H90.7236V38.0149Z" fill="#333333"/>
<path d="M107.765 37.6906V40.1345C107.754 40.2744 107.772 40.4152 107.817 40.548C107.863 40.6808 107.935 40.8029 108.029 40.9066C108.134 40.9994 108.257 41.0701 108.389 41.1145C108.522 41.1589 108.662 41.1762 108.802 41.1653H114.162V42.9606H108.425C108.037 42.9647 107.65 42.9067 107.281 42.7888C106.95 42.6854 106.646 42.5122 106.389 42.2811C106.137 42.0499 105.939 41.7658 105.81 41.4491C105.667 41.0887 105.596 40.7036 105.603 40.3159V37.5169C105.596 37.1311 105.666 36.7478 105.81 36.3896C105.94 36.0752 106.138 35.7932 106.389 35.5634C106.647 35.3324 106.951 35.1576 107.281 35.0499C107.65 34.9281 108.036 34.8681 108.425 34.8723H114.153V36.6675H108.792C108.652 36.657 108.512 36.6746 108.379 36.7194C108.247 36.7642 108.125 36.8352 108.02 36.9281C107.928 37.0314 107.858 37.1522 107.814 37.2833C107.77 37.4143 107.754 37.5529 107.765 37.6906Z" fill="#333333"/>
<path d="M127.683 42.9567V39.816H123.48V42.9567H121.307V34.8684H123.48V38.0284H127.683V34.8684H129.854V42.9567H127.683Z" fill="#333333"/>
<path d="M146.278 34.8684H148.452V41.1614H153.977V42.9567H146.278V34.8684Z" fill="#333333"/>
<path d="M165.076 36.8297L163.009 42.9567H160.837L163.611 34.8684H166.539L169.327 42.9567H167.153L165.076 36.8297Z" fill="#333333"/>
<path d="M176.186 38.0284H181.759C181.954 38.0135 182.142 37.9469 182.303 37.8353C182.378 37.773 182.438 37.6935 182.477 37.6035C182.515 37.5135 182.532 37.4156 182.525 37.3179C182.518 37.2202 182.487 37.1256 182.436 37.042C182.385 36.9584 182.315 36.8882 182.231 36.8373C182.016 36.7271 181.777 36.6726 181.535 36.679H176.186V34.8838H181.901C182.594 34.8561 183.275 35.0666 183.832 35.4803C184.088 35.69 184.3 35.9492 184.454 36.2423C184.608 36.5355 184.702 36.8566 184.729 37.1867V37.5284C184.692 38.0504 184.489 38.5468 184.15 38.9453C184.478 39.3374 184.68 39.819 184.729 40.3274V40.6691C184.697 41.0134 184.598 41.3482 184.44 41.6555C184.291 41.9362 184.086 42.1833 183.838 42.3814C183.58 42.5842 183.284 42.735 182.969 42.8253C182.62 42.9261 182.259 42.9755 181.896 42.9721H176.186V38.0284ZM178.359 39.8236V41.1749H181.535C181.777 41.1812 182.016 41.1268 182.231 41.0166C182.315 40.9677 182.385 40.8992 182.437 40.8171C182.488 40.7349 182.518 40.6416 182.525 40.5451C182.532 40.4485 182.516 40.3517 182.477 40.263C182.438 40.1743 182.378 40.0964 182.303 40.0359C182.141 39.9245 181.954 39.8537 181.759 39.8294L178.359 39.8236Z" fill="#333333"/>
<path d="M206.999 38.2329H198.004V39.7791H206.999V38.2329Z" fill="#ED1F24"/>
<path d="M61.7524 38.2329H52.7568V39.7791H61.7524V38.2329Z" fill="#ED1F24"/>
<path d="M10.678 24.4308C10.2178 24.2629 9.73173 24.1767 9.24181 24.176H6.31343C4.0684 24.176 2.24805 25.9134 2.24805 28.0657C2.24805 30.2181 4.0684 31.9535 6.31343 31.9535H9.24181C9.80921 31.9542 10.3708 31.8393 10.8923 31.6157C10.5159 29.2703 10.6568 26.7994 10.678 24.4308Z" fill="#ED1F24"/>
<path d="M9.53944 16.279C9.99958 16.1104 10.4856 16.0235 10.9756 16.0222H13.904C16.1491 16.0222 17.9578 17.7596 17.9578 19.91C17.9578 22.0604 16.1394 23.7997 13.904 23.7997H10.9756C10.4076 23.8002 9.84548 23.6853 9.32324 23.4619C9.69967 21.1184 9.56068 18.6456 9.53944 16.279Z" fill="#ED1F24"/>
<path d="M10.678 8.49358C10.2178 8.32569 9.73173 8.23946 9.24181 8.23877H6.31343C4.0684 8.23877 2.24805 9.97611 2.24805 12.1266C2.24805 14.277 4.0684 16.0221 6.31343 16.0221H9.24181C9.80921 16.0228 10.3708 15.9078 10.8923 15.6842C10.5159 13.3388 10.6568 10.8679 10.678 8.49358Z" fill="#ED1F24"/>
<path d="M22.1622 15.8021C24.3104 15.8021 26.0519 14.0607 26.0519 11.9124C26.0519 9.76419 24.3104 8.02271 22.1622 8.02271C20.0139 8.02271 18.2725 9.76419 18.2725 11.9124C18.2725 14.0607 20.0139 15.8021 22.1622 15.8021Z" fill="#ED1F24"/>
<path d="M17.967 3.40894C17.967 3.40894 17.5925 6.21957 17.967 6.71182C17.9921 6.71182 18.9747 8.2928 21.8278 8.46846C21.934 8.36422 18.5597 12.4393 18.5597 12.4393C18.5597 12.4393 18.6292 7.8353 15.7124 7.92409C15.7124 7.90672 11.0794 7.65963 10.1606 8.81979C10.0563 8.92596 10.1606 3.90118 10.1606 3.90118L17.967 3.40894Z" fill="#ED1F24"/>
<path d="M30.2213 0H13.2127C13.2127 0 8.90214 0.0463291 8.71489 4.16962C8.6203 4.07696 8.71489 23.568 8.71489 23.568V33.6407L10.4947 33.0327L11.0101 32.4535L10.9638 24.3575V8.20025L11.0584 4.40513L20.0539 4.16962L28.9549 4.21595C28.9549 4.21595 31.7675 4.31054 31.7192 6.04402C31.7675 6.04402 31.7675 19.7246 31.7675 19.7246L34.0511 18.3193V3.23339C34.0511 3.23339 33.5936 0.374494 30.2213 0ZM24.1406 2.9168H18.6718C18.4854 2.9168 18.3067 2.84277 18.1749 2.711C18.0432 2.57923 17.9691 2.4005 17.9691 2.21415C17.9691 2.02779 18.0432 1.84907 18.1749 1.71729C18.3067 1.58552 18.4854 1.51149 18.6718 1.51149H24.1406C24.3269 1.51149 24.5056 1.58552 24.6374 1.71729C24.7692 1.84907 24.8432 2.02779 24.8432 2.21415C24.8432 2.4005 24.7692 2.57923 24.6374 2.711C24.5056 2.84277 24.3269 2.9168 24.1406 2.9168ZM26.5304 2.77589C26.4051 2.77589 26.2827 2.73875 26.1786 2.66918C26.0745 2.59961 25.9933 2.50072 25.9454 2.38502C25.8975 2.26933 25.8849 2.14202 25.9094 2.0192C25.9338 1.89638 25.9941 1.78356 26.0827 1.69501C26.1712 1.60646 26.284 1.54615 26.4068 1.52172C26.5297 1.49729 26.657 1.50983 26.7727 1.55775C26.8884 1.60568 26.9873 1.68683 27.0568 1.79095C27.1264 1.89508 27.1635 2.01749 27.1635 2.14272C27.1638 2.22594 27.1476 2.30839 27.1159 2.38532C27.0841 2.46226 27.0375 2.53216 26.9787 2.59101C26.9198 2.64985 26.8499 2.69648 26.773 2.72821C26.696 2.75994 26.6136 2.77614 26.5304 2.77589Z" fill="#ED1F24"/>
<path d="M34.0511 22.5256L33.8755 21.9619L31.6961 24.1761L31.7675 36.2641C31.7675 36.2641 31.5551 38.4782 30.0803 38.6192L12.5139 38.6539C12.5139 38.6539 10.8981 38.7601 10.8981 35.4205L8.71875 36.3355V39.0767C8.71875 39.0767 9.13957 42.6594 12.6548 42.9374C12.7243 42.9722 30.2213 42.9374 30.2213 42.9374C30.2213 42.9374 33.5241 42.8679 34.0511 38.9666C33.9797 39.04 34.0511 22.5256 34.0511 22.5256ZM21.3994 41.9047C21.191 41.9043 20.9875 41.8421 20.8144 41.7261C20.6413 41.6101 20.5065 41.4453 20.427 41.2527C20.3476 41.0601 20.327 40.8482 20.3678 40.6439C20.4087 40.4396 20.5093 40.2519 20.6567 40.1047C20.8042 39.9575 20.992 39.8573 21.1964 39.8168C21.4008 39.7763 21.6127 39.7973 21.8051 39.8771C21.9976 39.9569 22.1621 40.092 22.2778 40.2653C22.3936 40.4386 22.4553 40.6423 22.4553 40.8507C22.4553 40.9893 22.428 41.1265 22.3749 41.2545C22.3218 41.3825 22.244 41.4988 22.1459 41.5966C22.0479 41.6945 21.9314 41.7721 21.8034 41.825C21.6753 41.8778 21.538 41.9049 21.3994 41.9047Z" fill="#ED1F24"/>
<path d="M46.2939 6.49963C44.3404 4.77774 39.582 5.97457 36.9412 6.83359C36.9132 6.83735 36.8855 6.84315 36.8582 6.85096L36.1247 7.10964L35.3371 7.38761C34.9163 7.53625 34.7445 8.13467 34.951 8.72536C35.1576 9.31606 35.6711 9.67125 36.09 9.52261L37.615 8.9821C40.665 8.0034 43.9987 7.4822 44.8018 8.18872C44.9369 8.3084 44.9581 8.57479 44.8635 8.97631L44.8326 9.10179V9.11916C44.7188 9.56122 43.8173 12.4703 39.2345 15.9257L39.1554 15.9894C38.4547 16.5685 26.1736 26.452 15.431 30.5232C13.5315 31.2432 8.25387 32.6235 7.63615 32.8165C4.72321 33.6717 2.8295 33.6659 2.37393 33.1331C2.09982 32.8107 2.1809 31.72 3.3121 29.7047L3.86612 29.3843L3.44336 26.4327C3.44336 26.4327 3.14802 26.6875 2.75808 27.064C2.23284 27.638 1.74045 28.2412 1.28327 28.8708C1.00538 29.2952 0.762011 29.7413 0.555516 30.2047C-0.00429421 31.5637 -0.39037 33.3377 0.663617 34.5847C1.36821 35.4129 2.51871 35.7314 3.86805 35.7314C5.87371 35.7314 12.7864 33.7682 14.0315 33.3821C25.4767 29.8283 39.1824 18.885 40.5955 17.7171C45.4851 14.0281 46.8634 10.5747 47.0603 9.46856C47.4251 7.8953 46.846 6.98609 46.2939 6.49963Z" fill="#ED1F24"/>
</svg>
