<svg width="119" height="229" viewBox="0 0 119 229" fill="none" xmlns="http://www.w3.org/2000/svg">
<path d="M108.3 0H9.89658C7.27278 0.00303283 4.7573 1.04668 2.90199 2.90199C1.04668 4.7573 0.00303283 7.27278 0 9.89658L0 218.365C0.00303283 220.989 1.04668 223.505 2.90199 225.36C4.7573 227.215 7.27278 228.259 9.89658 228.262H108.3C110.924 228.259 113.439 227.215 115.294 225.36C117.15 223.505 118.193 220.989 118.196 218.365V9.89658C118.193 7.27278 117.15 4.7573 115.294 2.90199C113.439 1.04668 110.924 0.00303283 108.3 0V0ZM112.988 218.365C112.988 219.609 112.494 220.801 111.615 221.68C110.736 222.559 109.543 223.053 108.3 223.053H9.89658C8.65329 223.053 7.46091 222.559 6.58177 221.68C5.70263 220.801 5.20873 219.609 5.20873 218.365V9.89658C5.21011 8.65371 5.70445 7.46214 6.58329 6.58329C7.46214 5.70445 8.65371 5.21011 9.89658 5.20873H15.7022L24.4414 16.3148C26.5645 19.0129 30.1762 20.6266 34.1036 20.6266H82.5646C86.4368 20.6266 90.0214 19.0504 92.1487 16.4117L101.196 5.20873H108.3C109.543 5.21011 110.734 5.70445 111.613 6.58329C112.492 7.46214 112.986 8.65371 112.988 9.89658V218.365Z" fill="black"/>
<path d="M85.3503 206.077H32.8463C32.4319 206.077 32.0344 206.242 31.7414 206.535C31.4483 206.828 31.2837 207.225 31.2837 207.64C31.2837 208.054 31.4483 208.451 31.7414 208.744C32.0344 209.038 32.4319 209.202 32.8463 209.202H85.3503C85.7647 209.202 86.1622 209.038 86.4552 208.744C86.7483 208.451 86.9129 208.054 86.9129 207.64C86.9129 207.225 86.7483 206.828 86.4552 206.535C86.1622 206.242 85.7647 206.077 85.3503 206.077Z" fill="black"/>
<path fill-rule="evenodd" clip-rule="evenodd" d="M56.8511 75.5462C67.9675 75.3098 80.555 77.4214 87.0242 86.4658C93.1101 94.9727 86.0356 106.182 86.246 116.639C86.4658 127.545 95.7259 140.096 88.2649 148.053C80.8185 155.994 66.8268 152.345 56.8511 147.988C49.6516 144.844 48.3515 135.822 44.5335 128.957C42.2864 124.918 41.1395 120.927 39.4133 116.639C35.3869 106.638 23.7215 97.6458 27.9333 87.7211C32.1794 77.7141 45.9805 75.7775 56.8511 75.5462Z" fill="#4EA0D9"/>
<path d="M40.4625 150.605C39.2489 150.163 37.9207 149.908 36.8414 149.251C33.3078 147.081 32.1161 143.78 32.5244 139.742C33.0349 134.69 33.4558 129.631 33.9183 124.575C34.3718 119.614 34.8267 114.653 35.283 109.692C35.6302 105.888 35.9754 102.084 36.3185 98.2803C36.457 96.7333 37.3092 95.9187 38.8635 95.9135C41.022 95.9062 43.1805 95.9135 45.4483 95.9135C45.4483 95.6124 45.439 95.3395 45.4483 95.0665C45.5327 92.9601 45.4046 90.8173 45.7484 88.7536C47.2547 79.7102 57.9743 74.7869 65.8613 79.4602C70.4221 82.1614 72.6962 86.2211 72.7921 91.5059C72.8181 92.9476 72.7921 94.3915 72.7921 95.9135H76.7424C77.6914 95.9135 78.6415 95.8979 79.5905 95.9135C80.875 95.9416 81.7886 96.7854 81.9053 98.0657C82.4407 103.9 82.9699 109.735 83.4929 115.572C84.0877 122.094 84.7024 128.612 85.2816 135.134C85.4899 137.448 85.7868 139.773 85.7368 142.086C85.6462 146.253 82.3595 149.795 78.2362 150.467C78.0787 150.503 77.9238 150.55 77.7727 150.607L40.4625 150.605ZM40.7053 100.485C40.6678 100.832 40.6334 101.11 40.6084 101.392C40.35 104.252 40.0924 107.111 39.8354 109.97C39.3826 114.956 38.9277 119.941 38.4707 124.925C38.0603 129.415 37.6512 133.904 37.2436 138.393C37.1602 139.315 37.0519 140.237 37.0269 141.16C36.9487 144.041 38.8749 146.029 41.7595 146.042C45.1306 146.06 48.5007 146.042 51.8717 146.042C60.014 146.042 68.156 146.042 76.2976 146.042C77.5477 146.042 78.6873 145.759 79.6614 144.928C81.1198 143.678 81.3552 142.061 81.1865 140.275C80.7875 136.071 80.4177 131.864 80.0353 127.659C79.277 119.318 78.5186 110.977 77.7602 102.637C77.6935 101.916 77.6091 101.197 77.5352 100.502H72.7983C72.7983 102.729 72.8056 104.908 72.7983 107.088C72.791 108.547 71.8451 109.566 70.5221 109.568C69.1991 109.57 68.2532 108.55 68.2459 107.092C68.2355 105.146 68.2459 103.199 68.2459 101.252V100.512H50.0039C50.0039 102.725 50.0101 104.887 50.0039 107.044C49.9976 108.553 49.0497 109.581 47.7006 109.568C46.3828 109.554 45.4556 108.534 45.4494 107.067C45.441 105.12 45.4494 103.174 45.4494 101.227V100.477L40.7053 100.485ZM68.1219 95.8729C68.1219 93.88 68.298 91.9215 68.0855 90.0068C67.6552 86.1305 64.5154 82.9698 60.7818 82.3812C56.6429 81.7291 52.801 83.6771 50.9769 87.2587C49.5695 90.0214 50.1435 92.956 49.9956 95.8729H68.1219Z" fill="black"/>
</svg>
