<svg width="776" height="570" viewBox="0 0 776 570" fill="none" xmlns="http://www.w3.org/2000/svg">
<path d="M74.5361 0C70.5309 8.39857 66.8061 16.8172 63.3917 25.2358C35.736 93.3864 34.0339 148.749 58.185 194.61C92.349 259.443 168.467 267.311 256.611 276.431C318.691 282.855 382.923 289.46 436.182 318.524C481.37 343.169 513.762 384.67 545.082 424.809C583.061 473.467 618.918 519.428 671.996 526.895C679.516 527.952 687.101 528.481 694.695 528.478C722.411 528.478 749.466 521.553 776 510.338V0H74.5361Z" fill="url(#paint0_linear)"/>
<path d="M28.4366 204.071C95.6432 329.168 296.903 269.496 422.034 336.434C519.88 388.769 559.511 531.765 669.352 546.899C706.4 552.01 741.806 545.897 775.95 533.139V510.338C749.416 521.553 722.361 528.478 694.645 528.478C687.051 528.481 679.466 527.952 671.946 526.895C618.877 519.428 583.011 473.467 545.032 424.809C513.712 384.67 481.32 343.169 436.132 318.574C382.873 289.51 318.661 282.885 256.561 276.481C168.447 267.361 92.349 259.494 58.1349 194.66C33.9837 148.819 35.6859 93.4365 63.3416 25.2859C66.806 16.8172 70.5509 8.39857 74.536 0H40.4921C8.37073 69.5437 -5.57724 140.761 28.4366 204.071Z" fill="url(#paint1_linear)"/>
<path d="M694.695 528.478C687.101 528.481 679.516 527.952 671.996 526.895C618.928 519.428 583.061 473.467 545.082 424.809C513.762 384.67 481.37 343.169 436.182 318.574C382.923 289.51 318.711 282.885 256.611 276.481C168.497 267.361 92.3991 259.494 58.185 194.66C34.0339 148.819 35.7361 93.4365 63.3917 25.2859C66.8061 16.8172 70.5509 8.39857 74.5361 0H29.0374C27.6556 3.20041 26.3206 6.40082 25.0323 9.60122C9.89275 46.7233 1.75226 80.1772 0.0801032 111.968C0.0801032 112.649 0.0801032 113.31 0 113.972V133.505C1.11238 161.586 8.45587 189.066 21.4977 213.953C41.7738 252.428 74.5661 278.896 121.837 294.872C161.628 308.332 207.748 313.102 252.325 317.702C310.4 323.716 370.357 329.909 416.316 354.975C453.955 375.5 483.653 413.554 512.37 450.355C553.744 503.373 596.479 558.194 666.189 567.996C675.689 569.331 685.271 570.001 694.865 570C721.129 570 747.994 564.989 775.97 554.967V510.338C749.466 521.553 722.411 528.478 694.695 528.478Z" fill="url(#paint2_linear)"/>
<defs>
<linearGradient id="paint0_linear" x1="1485.38" y1="-767.106" x2="381.623" y2="295.286" gradientUnits="userSpaceOnUse">
<stop stop-color="#CAE2F4"/>
<stop offset="0.11" stop-color="#C1DDF2"/>
<stop offset="0.28" stop-color="#A7CFEC"/>
<stop offset="0.48" stop-color="#83BCE4"/>
<stop offset="1" stop-color="#4EA0D9"/>
</linearGradient>
<linearGradient id="paint1_linear" x1="1482.89" y1="-769.701" x2="379.129" y2="292.691" gradientUnits="userSpaceOnUse">
<stop stop-color="#CCDDFE"/>
<stop offset="0.07" stop-color="#C3D7FE"/>
<stop offset="0.18" stop-color="#A9C5FD"/>
<stop offset="0.33" stop-color="#80A9FC"/>
<stop offset="0.48" stop-color="#4D87FB"/>
<stop offset="0.99" stop-color="#0054FA"/>
</linearGradient>
<linearGradient id="paint2_linear" x1="-7030.29" y1="162097" x2="1.02106e+06" y2="162097" gradientUnits="userSpaceOnUse">
<stop stop-color="#CAE2F4"/>
<stop offset="0.11" stop-color="#C1DDF2"/>
<stop offset="0.28" stop-color="#A7CFEC"/>
<stop offset="0.48" stop-color="#83BCE4"/>
<stop offset="1" stop-color="#4EA0D9"/>
</linearGradient>
</defs>
</svg>
