<svg width="119" height="228" viewBox="0 0 119 228" fill="none" xmlns="http://www.w3.org/2000/svg">
<path d="M108.17 0H9.88475C7.26408 0.0030292 4.75162 1.04543 2.89852 2.89852C1.04543 4.75162 0.0030292 7.26408 0 9.88475L0 218.104C0.0030292 220.725 1.04543 223.238 2.89852 225.091C4.75162 226.944 7.26408 227.986 9.88475 227.989H108.17C110.791 227.986 113.304 226.944 115.157 225.091C117.01 223.238 118.052 220.725 118.055 218.104V9.88475C118.052 7.26408 117.01 4.75162 115.157 2.89852C113.304 1.04543 110.791 0.0030292 108.17 0ZM112.853 218.104C112.853 219.346 112.359 220.537 111.481 221.415C110.603 222.293 109.412 222.787 108.17 222.787H9.88475C8.64294 222.787 7.45199 222.293 6.5739 221.415C5.69581 220.537 5.2025 219.346 5.2025 218.104V9.88475C5.20388 8.64336 5.69763 7.45322 6.57542 6.57542C7.45322 5.69763 8.64337 5.20388 9.88475 5.2025H15.6835L24.4122 16.2953C26.5328 18.9902 30.1402 20.6019 34.0629 20.6019H82.4659C86.3334 20.6019 89.9138 19.0276 92.0385 16.392L101.075 5.2025H108.17C109.412 5.20388 110.602 5.69763 111.48 6.57542C112.358 7.45322 112.851 8.64336 112.853 9.88475V218.104Z" fill="black"/>
<path d="M85.2483 205.831H32.8071C32.3932 205.831 31.9962 205.995 31.7035 206.288C31.4108 206.581 31.2463 206.978 31.2463 207.392C31.2463 207.805 31.4108 208.202 31.7035 208.495C31.9962 208.788 32.3932 208.952 32.8071 208.952H85.2483C85.6622 208.952 86.0592 208.788 86.3519 208.495C86.6446 208.202 86.8091 207.805 86.8091 207.392C86.8091 206.978 86.6446 206.581 86.3519 206.288C86.0592 205.995 85.6622 205.831 85.2483 205.831Z" fill="black"/>
<path fill-rule="evenodd" clip-rule="evenodd" d="M93.0093 127.149C86.6622 136.264 77.5558 145.184 66.4495 145.09C56.0039 145 51.1135 132.696 42.5471 126.717C33.6134 120.482 18.035 120.578 15.9977 109.875C13.9656 99.1941 25.1395 90.044 34.5186 84.5512C41.2902 80.5879 49.3395 84.8436 57.1276 85.7998C61.7058 86.3606 65.6056 87.7767 70.0819 88.9098C80.5243 91.5402 94.6439 87.4094 100.18 96.646C105.768 105.963 99.2148 118.243 93.0093 127.149Z" fill="#4EA0D9"/>
<path d="M96.0518 117.287C96.0019 117.206 95.9478 117.109 95.8957 117.008C95.7396 116.684 95.5381 116.383 95.2975 116.116C93.255 113.979 91.251 111.911 89.3396 109.968C88.17 108.78 86.5916 108.745 85.4127 109.88C83.4358 111.786 81.4359 113.754 79.3102 115.896C78.2031 117.011 78.1573 118.617 79.1999 119.715C80.2425 120.812 81.9125 120.822 83.0841 119.738C83.4909 119.361 83.8905 118.973 84.2817 118.586L84.2567 118.727C83.6369 122.082 82.3541 125.28 80.4833 128.133C78.6124 130.987 76.1912 133.438 73.3613 135.344C70.5315 137.25 67.3498 138.572 64.0026 139.233C60.6554 139.895 57.2099 139.882 53.8679 139.195C45.7218 137.503 39.6473 132.81 35.8152 125.252C35.7767 125.177 35.7403 125.102 35.7028 125.027C35.5185 124.634 35.3038 124.255 35.0608 123.894C34.4532 123.032 33.5001 122.653 32.444 122.854C31.5897 123.017 30.9175 123.499 30.5513 124.206C30.1476 124.993 30.1653 125.947 30.6023 126.895C32.4825 130.976 35.0764 134.481 38.3113 137.316C43.6377 141.98 49.8817 144.59 56.8707 145.073C57.6477 145.126 58.418 145.153 59.1817 145.153C65.5922 145.153 71.5043 143.263 76.7838 139.522C84.0673 134.355 88.4478 127.228 89.7901 118.333C90.2718 118.774 90.7567 119.223 91.2187 119.678C92.101 120.546 92.9938 120.921 93.8751 120.793C94.7564 120.665 95.4847 120.064 96.0695 119.007L96.1954 118.779V117.531L96.0518 117.287Z" fill="black"/>
<path d="M30.5772 118.971C31.3055 118.971 32.0089 118.641 32.7196 117.964C34.8411 115.942 36.9149 113.946 38.4829 112.434C38.7507 112.183 38.9853 111.898 39.1811 111.588C39.394 111.242 39.5236 110.853 39.5597 110.449C39.5958 110.045 39.5375 109.638 39.3892 109.261C39.2424 108.875 39.0078 108.529 38.704 108.25C38.4002 107.971 38.0356 107.766 37.6391 107.652C36.1137 107.211 35.0929 108.189 34.7579 108.512L33.6082 109.618C34.6799 103.596 37.5725 98.5074 42.2214 94.4713C46.0806 91.123 50.6724 89.0981 55.8697 88.4562C60.785 87.8475 65.5838 88.6507 70.1349 90.842C74.401 92.8939 77.8346 95.8853 80.3422 99.7321C80.8843 100.564 81.3473 101.436 81.8374 102.362C82.0455 102.748 82.2536 103.148 82.47 103.541C83.1724 104.815 84.2618 105.414 85.4594 105.175C86.3209 105.005 86.9973 104.519 87.3656 103.806C87.7672 103.028 87.7547 102.082 87.3302 101.141C86.178 98.5573 84.6661 96.1496 82.8394 93.9895C77.1521 87.3303 69.8602 83.6085 61.1658 82.9342C53.8376 82.3672 47.0504 84.2681 40.9936 88.5862C34.1992 93.4277 29.9446 100.072 28.3474 108.336C28.2548 108.812 28.1788 109.291 28.1091 109.766C27.6013 109.232 27.078 108.691 26.5484 108.149C25.768 107.352 24.7316 107.085 23.7057 107.42C22.7412 107.732 22.0836 108.505 21.9015 109.54C21.6674 110.873 22.5258 111.77 22.8504 112.108C23.5136 112.797 24.1757 113.488 24.8367 114.179C26.016 115.411 27.1952 116.641 28.3744 117.87C29.0705 118.598 29.7739 118.955 30.522 118.973L30.5772 118.971Z" fill="black"/>
</svg>
