<svg width="119" height="230" viewBox="0 0 119 230" fill="none" xmlns="http://www.w3.org/2000/svg">
<path d="M109.035 0H9.96383C7.3222 0.00304722 4.78964 1.05164 2.92172 2.91576C1.0538 4.77988 0.00305343 7.30727 0 9.94352V219.402C0.00305343 222.038 1.0538 224.565 2.92172 226.429C4.78964 228.294 7.3222 229.342 9.96383 229.345H109.035C111.678 229.342 114.21 228.294 116.078 226.429C117.946 224.565 118.997 222.038 119 219.402V9.94352C118.997 7.30727 117.946 4.77988 116.078 2.91576C114.21 1.05164 111.678 0.00304722 109.035 0ZM113.756 219.402C113.756 220.65 113.258 221.848 112.373 222.732C111.488 223.615 110.287 224.111 109.035 224.111H9.96383C8.71209 224.111 7.51162 223.615 6.6265 222.732C5.74138 221.848 5.24412 220.65 5.24412 219.402V9.94352C5.24551 8.69476 5.74321 7.49753 6.62803 6.61452C7.51285 5.73151 8.71252 5.23482 9.96383 5.23344H15.8089L24.6075 16.3922C26.745 19.1031 30.3813 20.7244 34.3354 20.7244H83.1257C87.0242 20.7244 90.6332 19.1407 92.7749 16.4895L101.884 5.23344H109.035C110.287 5.23482 111.487 5.73151 112.371 6.61452C113.256 7.49753 113.755 8.69476 113.756 9.94352V219.402Z" fill="black"/>
<path d="M85.9282 207.055H33.0674C32.6501 207.055 32.25 207.22 31.955 207.515C31.6598 207.809 31.4941 208.208 31.4941 208.625C31.4941 209.041 31.6598 209.44 31.955 209.734C32.25 210.03 32.6501 210.195 33.0674 210.195H85.9282C86.3453 210.195 86.7455 210.03 87.0406 209.734C87.3356 209.44 87.5014 209.041 87.5014 208.625C87.5014 208.208 87.3356 207.809 87.0406 207.515C86.7455 207.22 86.3453 207.055 85.9282 207.055Z" fill="black"/>
<path fill-rule="evenodd" clip-rule="evenodd" d="M44.7857 150.342C35.8414 143.623 27.1949 134.136 27.7046 122.976C28.1849 112.478 40.7603 108.02 47.1078 99.6353C53.7228 90.887 54.2063 75.2223 65.0637 73.5727C75.8991 71.9274 84.6987 83.5016 89.882 93.1384C93.6221 100.093 89.0346 108.025 87.7844 115.819C87.0502 120.405 85.4707 124.268 84.1681 128.727C81.1265 139.126 84.7638 153.474 75.2531 158.695C65.6574 163.957 53.5319 156.912 44.7857 150.342Z" fill="#4EA0D9"/>
<path d="M107.514 115.659C106.373 108.67 103.535 98.549 96.4833 90.0268C92.589 85.3014 87.6777 81.5124 82.1144 78.9413C75.6191 75.9259 68.0151 74.3998 59.4986 74.3998C50.9822 74.3998 43.374 75.9259 36.8849 78.9361C31.3212 81.5065 26.4099 85.2956 22.516 90.0215C15.4616 98.5458 12.6225 108.666 11.4824 115.659C11.2957 116.807 11.361 117.981 11.6739 119.102C11.9867 120.222 12.5397 121.26 13.2945 122.146C14.0492 123.032 14.9877 123.744 16.0452 124.232C17.1025 124.72 18.2536 124.974 19.4188 124.975H56.757L56.7717 151.716C56.7569 152.277 56.7905 155.092 58.8242 157.228C60.2831 158.763 62.341 159.54 64.94 159.54C67.4162 159.54 69.3922 158.766 70.8133 157.237C72.1579 155.791 72.6498 153.985 72.8261 152.725C72.8909 152.219 72.7544 151.709 72.4457 151.303C72.137 150.898 71.6809 150.629 71.1758 150.556C70.6707 150.482 70.157 150.611 69.7454 150.912C69.3339 151.213 69.0575 151.663 68.9758 152.166C68.8709 152.9 68.5992 153.91 67.9469 154.605C67.2945 155.301 66.3023 155.652 64.942 155.652C63.4642 155.652 62.3619 155.287 61.6654 154.567C60.6628 153.529 60.6649 151.969 60.667 151.835C60.667 151.804 60.667 151.786 60.667 151.744L60.6481 124.975H99.5774C100.743 124.974 101.894 124.72 102.951 124.232C104.009 123.744 104.948 123.032 105.702 122.146C106.456 121.26 107.01 120.222 107.323 119.102C107.636 117.981 107.701 116.807 107.514 115.659ZM39.9265 118.59C40.1856 113.962 40.8316 106.994 42.4384 100.09C43.9571 93.5657 46.0222 88.4002 48.5772 84.738C51.6009 80.3952 55.1743 78.2924 59.4986 78.2924C63.8229 78.2924 67.3952 80.4005 70.42 84.738C72.9739 88.4013 75.0348 93.5647 76.5578 100.09C78.1646 106.998 78.8106 113.962 79.0696 118.59C79.0883 118.912 79.0406 119.235 78.9297 119.538C78.819 119.841 78.6472 120.119 78.425 120.353C78.2028 120.588 77.9351 120.775 77.6379 120.903C77.3408 121.03 77.0207 121.096 76.6973 121.095H42.2958C41.9726 121.095 41.6528 121.029 41.3561 120.902C41.0593 120.774 40.7919 120.587 40.57 120.352C40.3483 120.118 40.1768 119.84 40.0661 119.537C39.9554 119.234 39.908 118.912 39.9265 118.59ZM45.7201 79.9252C45.8702 79.9291 46.0162 79.9745 46.1417 80.0565C46.2673 80.1386 46.3674 80.254 46.4308 80.3897C46.4942 80.5254 46.5185 80.6761 46.5007 80.8248C46.483 80.9736 46.4242 81.1144 46.3306 81.2315C46.0033 81.6439 45.6793 82.0804 45.3667 82.5294C42.5286 86.6052 40.2632 92.2311 38.6343 99.2502C36.909 106.681 36.2514 114.008 36.0039 118.842C35.9731 119.449 35.7096 120.021 35.2678 120.439C34.8259 120.858 34.2397 121.091 33.6304 121.09H19.4188C18.8171 121.09 18.2226 120.959 17.6767 120.706C17.1308 120.454 16.6465 120.085 16.2574 119.627C15.8683 119.169 15.5836 118.632 15.4232 118.054C15.2628 117.475 15.2305 116.869 15.3284 116.276C17.1408 105.17 23.4704 85.6842 45.503 79.9556C45.5738 79.9363 45.6468 79.9262 45.7201 79.9252ZM80.3629 99.2502C78.733 92.2311 76.4675 86.6052 73.6295 82.5294C73.3148 82.0814 72.9938 81.645 72.6656 81.2315C72.572 81.1144 72.5131 80.9736 72.4954 80.8248C72.4777 80.6761 72.5019 80.5254 72.5653 80.3897C72.6288 80.254 72.7289 80.1386 72.8545 80.0565C72.9799 79.9745 73.126 79.9291 73.276 79.9252C73.3497 79.9256 73.4229 79.9355 73.4941 79.9546C95.5279 85.6873 101.858 105.173 103.669 116.275C103.767 116.867 103.734 117.474 103.574 118.053C103.414 118.631 103.129 119.168 102.74 119.626C102.351 120.084 101.866 120.453 101.32 120.705C100.775 120.958 100.18 121.089 99.5784 121.089H85.3657C84.7566 121.09 84.1706 120.857 83.729 120.438C83.2875 120.02 83.024 119.447 82.9934 118.84C82.7511 114.006 82.0882 106.682 80.3629 99.2502Z" fill="black"/>
</svg>
