<svg width="1933" height="1164" viewBox="0 0 1933 1164" fill="none" xmlns="http://www.w3.org/2000/svg">
<path fill-rule="evenodd" clip-rule="evenodd" d="M1807.72 155.254C1694.44 104.585 1464.44 3.25235 1236.14 53.9189C1107.63 82.4434 978.57 159.144 849.578 235.804C749.443 295.302 649.351 354.8 549.586 391.702C337.587 470.127 124.103 446.585 4 429.301V1163.11H1922.72V205.923L1807.72 155.254Z" fill="#2A5B95"/>
<path d="M218.67 503.674C132.892 503.674 57.3661 492.649 0 482.746L1.3595 469.804C138.882 493.548 345.161 514.709 547.925 424.723C647.873 380.368 750.088 307.496 848.922 237.025C912.815 191.469 978.874 144.369 1043.88 105.257C1078.94 84.1674 1110.88 67.0302 1141.53 52.861C1176 36.9272 1207.98 25.1314 1239.29 16.7959C1267.19 9.3664 1296.35 4.3413 1325.97 1.86086C1353.56 -0.448359 1382.27 -0.610076 1411.31 1.38522C1462.52 4.89304 1516.72 15.2381 1572.4 32.128C1675.59 63.4297 1764.31 111.031 1817.32 139.477L1933 200.625L1929.12 212.696L1813.4 151.522C1723.59 103.333 1555.13 12.948 1371.93 12.948C1328.93 12.948 1285.16 17.9184 1241.36 29.5786C1112.82 63.8078 981.183 157.672 853.879 248.429C804.303 283.776 753.05 320.319 702.645 352.874C646.017 389.445 596.498 416.985 551.254 437.061C501.053 459.343 447.341 476.247 391.61 487.303C343.512 496.849 292.688 502.285 240.55 503.432C233.189 503.597 225.896 503.677 218.67 503.674Z" fill="url(#paint0_linear)"/>
<defs>
<linearGradient id="paint0_linear" x1="966.5" y1="0" x2="966.5" y2="503.674" gradientUnits="userSpaceOnUse">
<stop stop-color="#DCEBF2"/>
<stop offset="0.484375" stop-color="#86C7E7"/>
<stop offset="1" stop-color="#36A9E1"/>
</linearGradient>
</defs>
</svg>
