<svg width="119" height="229" viewBox="0 0 119 229" fill="none" xmlns="http://www.w3.org/2000/svg">
<path d="M108.883 0H9.94987C7.31194 0.0030309 4.78292 1.04601 2.91762 2.90014C1.05232 4.75427 0.00304916 7.26815 0 9.89028L0 218.226C0.00304916 220.849 1.05232 223.362 2.91762 225.217C4.78292 227.071 7.31194 228.114 9.94987 228.117H108.883C111.521 228.114 114.05 227.071 115.915 225.217C117.781 223.362 118.83 220.849 118.833 218.226V9.89028C118.83 7.26815 117.781 4.75427 115.915 2.90014C114.05 1.04601 111.521 0.0030309 108.883 0V0ZM113.596 218.226C113.596 219.469 113.1 220.661 112.216 221.539C111.332 222.418 110.133 222.911 108.883 222.911H9.94987C8.69988 222.911 7.50109 222.418 6.61721 221.539C5.73333 220.661 5.23678 219.469 5.23678 218.226V9.89028C5.23816 8.6482 5.73516 7.45738 6.61874 6.5791C7.50232 5.70081 8.70031 5.20679 9.94987 5.20541H15.7868L24.573 16.3044C26.7076 19.0008 30.3387 20.6134 34.2873 20.6134H83.0092C86.9022 20.6134 90.5061 19.0383 92.6448 16.4012L101.741 5.20541H108.883C110.133 5.20679 111.331 5.70081 112.214 6.5791C113.098 7.45738 113.595 8.6482 113.596 9.89028V218.226Z" fill="black"/>
<path d="M85.8099 205.946H33.0232C32.6065 205.946 32.2069 206.11 31.9123 206.403C31.6177 206.696 31.4521 207.093 31.4521 207.508C31.4521 207.922 31.6177 208.319 31.9123 208.612C32.2069 208.905 32.6065 209.069 33.0232 209.069H85.8099C86.2265 209.069 86.6261 208.905 86.9208 208.612C87.2154 208.319 87.3809 207.922 87.3809 207.508C87.3809 207.093 87.2154 206.696 86.9208 206.403C86.6261 206.11 86.2265 205.946 85.8099 205.946Z" fill="black"/>
<path fill-rule="evenodd" clip-rule="evenodd" d="M26.0248 97.1662C32.7488 88.2837 42.241 79.7052 53.409 80.2111C63.9129 80.6838 68.3736 93.1705 76.7713 99.466C85.5261 106.032 101.2 106.512 102.85 117.289C104.497 128.045 92.9162 136.779 83.2722 141.924C76.3136 145.637 68.3757 141.083 60.577 139.842C55.9886 139.113 52.1228 137.546 47.6621 136.253C37.2556 133.233 22.8995 136.844 17.6742 127.403C12.4019 117.883 19.4506 105.847 26.0248 97.1662Z" fill="#4EA0D9"/>
<path d="M97.9276 88.5962L97.4332 87.5822C97.3336 87.3776 97.1861 87.1996 97.0032 87.0631C96.8203 86.9266 96.6071 86.8357 96.3816 86.7978C96.1561 86.7598 95.9247 86.7761 95.7068 86.8452C95.4889 86.9143 95.2908 87.0342 95.129 87.1949L87.7462 94.5335C87.7127 94.5666 87.6673 94.5852 87.62 94.5852C87.5727 94.5852 87.5274 94.5666 87.4938 94.5335L84.0145 91.074C83.9978 91.0577 83.9845 91.0383 83.9754 91.0168C83.9664 90.9954 83.9617 90.9723 83.9617 90.9491C83.9617 90.9258 83.9664 90.9028 83.9754 90.8813C83.9845 90.8598 83.9978 90.8404 84.0145 90.8241L91.346 83.5366C91.5095 83.3741 91.6311 83.1747 91.7004 82.9554C91.7697 82.7362 91.7847 82.5035 91.7441 82.2773C91.7034 82.051 91.6084 81.8379 91.4671 81.656C91.3257 81.4741 91.1423 81.3289 90.9323 81.2326L89.8849 80.7517C87.6937 79.7423 85.3068 79.2218 82.8917 79.2265C73.6855 79.2265 66.1927 86.6754 66.1927 95.8276C66.1926 97.0273 66.3229 98.2235 66.5813 99.3954C66.5877 99.4244 66.5867 99.4547 66.5783 99.4832C66.5699 99.5118 66.5543 99.5378 66.5331 99.5588L44.0432 121.916C44.0107 121.949 43.9668 121.967 43.9207 121.968C42.1139 121.938 40.3193 122.267 38.6423 122.936C36.9654 123.605 35.44 124.601 34.1558 125.865C32.8716 127.128 31.8545 128.635 31.1645 130.295C30.4744 131.955 30.1253 133.735 30.1375 135.531C30.1941 142.84 36.2206 148.83 43.573 148.886H43.6777C47.2679 148.883 50.71 147.463 53.2485 144.94C55.787 142.416 57.2146 138.995 57.2179 135.426C57.2179 135.348 57.2179 135.27 57.2179 135.192C57.2171 135.167 57.2213 135.143 57.2303 135.12C57.2393 135.098 57.2529 135.077 57.2703 135.06L80.1875 112.28C80.2067 112.26 80.2303 112.246 80.2564 112.237C80.2824 112.228 80.3101 112.226 80.3372 112.23C81.1826 112.358 82.0365 112.423 82.8917 112.423C92.098 112.423 99.5887 104.979 99.5887 95.8276C99.5966 93.3228 99.0284 90.8494 97.9276 88.5962V88.5962ZM82.8938 107.96C81.9316 107.961 80.9726 107.848 80.0367 107.626L79.5978 107.522C79.3591 107.466 79.1099 107.471 78.8739 107.538C78.6378 107.604 78.4227 107.729 78.2488 107.901L53.0599 132.946C52.9088 133.096 52.7934 133.278 52.7222 133.478C52.651 133.678 52.6257 133.892 52.6483 134.103L52.6881 134.483C52.7207 134.798 52.7371 135.114 52.7373 135.43C52.7358 136.642 52.4885 137.842 52.0101 138.957C51.5317 140.071 50.832 141.079 49.953 141.919C49.0739 142.759 48.0335 143.414 46.8939 143.845C45.7544 144.276 44.539 144.475 43.3206 144.428C38.6274 144.247 34.8087 140.451 34.6275 135.787C34.5801 134.576 34.7788 133.368 35.2119 132.235C35.645 131.102 36.3035 130.067 37.1481 129.193C37.9926 128.319 39.0059 127.623 40.1273 127.146C41.2487 126.67 42.4552 126.424 43.6746 126.422C43.9922 126.422 44.3096 126.438 44.6256 126.471L45.0068 126.51C45.2193 126.533 45.4341 126.508 45.6355 126.437C45.8368 126.366 46.0196 126.251 46.1704 126.1L71.0357 101.388C71.2218 101.204 71.3533 100.972 71.4157 100.719C71.4781 100.465 71.4691 100.199 71.3897 99.9503L71.242 99.4859C70.6655 97.6667 70.5281 95.7381 70.8407 93.8562C71.1534 91.9744 71.9074 90.1921 73.0417 88.6537C74.1761 87.1153 75.6589 85.864 77.3701 85.0011C79.0813 84.1381 80.9729 83.6878 82.8917 83.6865C83.3818 83.6865 83.8714 83.715 84.358 83.7718C84.3928 83.7746 84.426 83.7877 84.4533 83.8095C84.4805 83.8312 84.5006 83.8605 84.511 83.8936C84.5229 83.9244 84.5253 83.958 84.5179 83.9901C84.5104 84.0222 84.4934 84.0514 84.4691 84.0738L78.5599 89.9496C78.2911 90.2174 78.1402 90.5802 78.1402 90.9584C78.1402 91.3367 78.2911 91.6995 78.5599 91.9672L86.6025 99.9617C86.8717 100.229 87.2365 100.379 87.6169 100.379C87.9972 100.379 88.362 100.229 88.6312 99.9617L94.6745 93.9547C94.6981 93.9312 94.7279 93.9148 94.7605 93.9073C94.793 93.8999 94.827 93.9017 94.8586 93.9126C94.8902 93.9234 94.918 93.9429 94.939 93.9687C94.96 93.9946 94.9732 94.0258 94.9772 94.0588C95.0629 94.6473 95.1059 95.2412 95.106 95.8359C95.0999 99.0532 93.8108 102.137 91.5212 104.411C89.2317 106.685 86.1284 107.964 82.8917 107.968L82.8938 107.96Z" fill="black"/>
<path d="M46.1088 128.732C45.9807 128.605 45.8213 128.514 45.6465 128.467C45.4717 128.42 45.2877 128.42 45.1128 128.467L39.6854 129.912C39.5096 129.958 39.3492 130.05 39.2205 130.178C39.0918 130.306 38.9993 130.466 38.9523 130.64L37.4985 136.034C37.4519 136.208 37.452 136.391 37.4989 136.565C37.5457 136.739 37.6377 136.898 37.7656 137.025L41.7382 140.974C41.8345 141.07 41.9489 141.145 42.0747 141.197C42.2005 141.249 42.3353 141.275 42.4714 141.275C42.5609 141.275 42.65 141.263 42.7363 141.24L48.1637 139.795C48.3396 139.748 48.4999 139.656 48.6286 139.528C48.7574 139.4 48.8499 139.241 48.8969 139.066L50.3485 133.675C50.3951 133.501 50.3949 133.318 50.3481 133.145C50.3012 132.971 50.2093 132.812 50.0814 132.685L46.1088 128.732ZM46.5885 134.146L45.8742 136.789L43.2118 137.498L41.2659 135.561L41.9791 132.914L44.6415 132.205L46.5885 134.146Z" fill="black"/>
</svg>
