<svg width="1945" height="1028" viewBox="0 0 1945 1028" fill="none" xmlns="http://www.w3.org/2000/svg">
<path fill-rule="evenodd" clip-rule="evenodd" d="M1817.72 141.552C1704.44 96.9867 1474.44 7.86064 1246.14 52.4237C1117.63 77.5121 988.57 144.973 859.578 212.398C759.443 264.729 659.351 317.06 559.586 349.516C347.587 418.494 134.103 397.788 14 382.586V1028H1932.72V186.117L1817.72 141.552Z" fill="#4D4D4D"/>
<path d="M220.027 450C133.717 450 57.7222 440.303 0 431.593L1.36794 420.21C139.745 441.094 347.304 459.705 551.327 380.56C651.895 341.547 754.745 277.454 854.192 215.472C918.481 175.404 984.951 133.978 1050.36 99.5775C1085.63 81.0283 1117.77 65.9555 1148.62 53.4932C1183.3 39.4788 1215.48 29.104 1246.98 21.7726C1275.05 15.2381 1304.4 10.8183 1334.2 8.63669C1361.96 6.60565 1390.85 6.46342 1420.07 8.21835C1471.6 11.3036 1526.14 20.4025 1582.17 35.2578C1685.99 62.7887 1775.26 104.656 1828.6 129.675L1945 183.457L1941.09 194.074L1824.65 140.269C1734.29 97.8853 1564.78 18.3882 1380.44 18.3882C1337.18 18.3882 1293.14 22.7598 1249.07 33.0155C1119.73 63.1213 987.274 145.679 859.18 225.502C809.296 256.591 757.725 288.732 707.007 317.365C650.027 349.531 600.201 373.753 554.676 391.411C504.163 411.009 450.118 425.876 394.041 435.601C345.645 443.997 294.505 448.778 242.043 449.787C234.637 449.932 227.298 450.003 220.027 450Z" fill="url(#paint0_linear)"/>
<defs>
<linearGradient id="paint0_linear" x1="0" y1="228.499" x2="1945" y2="228.499" gradientUnits="userSpaceOnUse">
<stop stop-color="#B6DCF4" stop-opacity="0.3"/>
<stop offset="0.48" stop-color="#797E82"/>
<stop offset="0.99" stop-color="#4D4D4D"/>
</linearGradient>
</defs>
</svg>
