<svg width="112" height="215" viewBox="0 0 112 215" fill="none" xmlns="http://www.w3.org/2000/svg">
<g clip-path="url(#clip0)">
<path d="M101.904 0H9.31216C6.8433 0.00284792 4.47638 0.98286 2.73063 2.72506C0.984874 4.46725 0.00285373 6.82935 0 9.29318V205.052C0.00285373 207.516 0.984874 209.878 2.73063 211.62C4.47638 213.362 6.8433 214.342 9.31216 214.345H101.904C104.374 214.342 106.741 213.362 108.486 211.62C110.232 209.878 111.214 207.516 111.217 205.052V9.29318C111.214 6.82935 110.232 4.46725 108.486 2.72506C106.741 0.98286 104.374 0.00284792 101.904 0ZM106.316 205.052C106.316 206.219 105.851 207.338 105.024 208.165C104.197 208.99 103.074 209.454 101.904 209.454H9.31216C8.14229 209.454 7.02033 208.99 6.1931 208.165C5.36588 207.338 4.90114 206.219 4.90114 205.052V9.29318C4.90244 8.12609 5.36758 7.00717 6.19454 6.18191C7.02148 5.35665 8.14269 4.89244 9.31216 4.89115H14.775L22.9981 15.3201C24.9958 17.8537 28.3942 19.369 32.0897 19.369H77.689C81.3325 19.369 84.7054 17.8889 86.7071 15.411L95.2203 4.89115H101.904C103.074 4.89244 104.196 5.35665 105.022 6.18191C105.849 7.00717 106.315 8.12609 106.316 9.29318V205.052Z" fill="black"/>
<path d="M80.3074 193.513H30.9039C30.5139 193.513 30.14 193.668 29.8643 193.943C29.5885 194.218 29.4336 194.59 29.4336 194.98C29.4336 195.369 29.5885 195.742 29.8643 196.017C30.14 196.293 30.5139 196.447 30.9039 196.447H80.3074C80.6973 196.447 81.0714 196.293 81.3471 196.017C81.6228 195.742 81.7778 195.369 81.7778 194.98C81.7778 194.59 81.6228 194.218 81.3471 193.943C81.0714 193.668 80.6973 193.513 80.3074 193.513Z" fill="black"/>
<path fill-rule="evenodd" clip-rule="evenodd" d="M41.8571 140.509C33.4977 134.23 25.4167 125.363 25.8931 114.933C26.342 105.121 38.095 100.955 44.0273 93.1189C50.2096 84.9428 50.6615 70.3026 60.8088 68.7609C70.9355 67.2232 79.1597 78.0404 84.0039 87.047C87.4994 93.5463 83.2119 100.96 82.0435 108.244C81.3573 112.53 79.8812 116.141 78.6637 120.308C75.8211 130.027 79.2205 143.436 70.3318 148.316C61.3637 153.234 50.0312 146.649 41.8571 140.509Z" fill="#FCA425"/>
<path d="M100.483 108.095C99.4167 101.562 96.7636 92.1035 90.1735 84.1387C86.5339 79.7223 81.9438 76.1812 76.7444 73.7782C70.6738 70.96 63.5672 69.5337 55.6078 69.5337C47.6483 69.5337 40.5377 70.96 34.4731 73.7734C29.2733 76.1756 24.6831 79.7168 21.0439 84.1337C14.4508 92.1005 11.7974 101.558 10.7319 108.095C10.5574 109.168 10.6185 110.265 10.9109 111.312C11.2033 112.359 11.7201 113.329 12.4255 114.157C13.1308 114.985 14.008 115.651 14.9963 116.107C15.9845 116.563 17.0603 116.8 18.1492 116.801H53.0454L53.0591 141.793C53.0454 142.317 53.0768 144.949 54.9774 146.945C56.3409 148.379 58.2642 149.105 60.6932 149.105C63.0074 149.105 64.8542 148.382 66.1824 146.953C67.4391 145.601 67.8988 143.913 68.0635 142.736C68.1241 142.263 67.9965 141.787 67.708 141.407C67.4195 141.028 66.9933 140.778 66.5212 140.709C66.0491 140.64 65.569 140.76 65.1844 141.042C64.7998 141.323 64.5414 141.744 64.4651 142.214C64.3671 142.899 64.1131 143.844 63.5035 144.494C62.8937 145.143 61.9664 145.472 60.6951 145.472C59.314 145.472 58.2837 145.131 57.6328 144.458C56.6957 143.487 56.6978 142.03 56.6997 141.905C56.6997 141.876 56.6997 141.858 56.6997 141.82L56.6821 116.801H93.0652C94.1542 116.8 95.2299 116.563 96.2183 116.107C97.2067 115.651 98.0841 114.985 98.7892 114.157C99.4942 113.329 100.011 112.359 100.304 111.312C100.596 110.265 100.657 109.168 100.483 108.095ZM37.3157 110.833C37.5578 106.508 38.1616 99.9963 39.6633 93.5434C41.0827 87.4461 43.0127 82.6185 45.4006 79.1957C48.2266 75.137 51.5662 73.1717 55.6078 73.1717C59.6492 73.1717 62.9879 75.1419 65.8148 79.1957C68.2017 82.6194 70.1278 87.4451 71.5512 93.5434C73.0529 100 73.6566 106.508 73.8987 110.833C73.9162 111.135 73.8716 111.437 73.768 111.72C73.6645 112.003 73.5039 112.263 73.2963 112.482C73.0886 112.701 72.8384 112.876 72.5606 112.995C72.2829 113.114 71.9838 113.176 71.6815 113.175H39.53C39.228 113.175 38.9291 113.113 38.6518 112.994C38.3744 112.875 38.1245 112.7 37.9171 112.481C37.7099 112.262 37.5496 112.002 37.4462 111.719C37.3427 111.436 37.2984 111.135 37.3157 110.833ZM42.7304 74.6978C42.8707 74.7013 43.0071 74.7438 43.1244 74.8205C43.2418 74.8972 43.3353 75.0051 43.3946 75.1318C43.4539 75.2587 43.4765 75.3995 43.46 75.5385C43.4434 75.6776 43.3884 75.8092 43.3009 75.9186C42.9951 76.3041 42.6923 76.712 42.4001 77.1316C39.7476 80.9408 37.6304 86.1988 36.108 92.7588C34.4955 99.7038 33.8809 106.552 33.6497 111.069C33.6209 111.636 33.3746 112.171 32.9617 112.562C32.5487 112.953 32.0009 113.171 31.4314 113.17H18.1492C17.5869 113.17 17.0313 113.047 16.5211 112.811C16.011 112.576 15.5583 112.231 15.1946 111.803C14.831 111.375 14.5649 110.873 14.415 110.333C14.2651 109.791 14.2349 109.225 14.3264 108.671C16.0203 98.2918 21.9358 80.08 42.5275 74.7261C42.5937 74.7081 42.6619 74.6986 42.7304 74.6978ZM75.1074 92.7588C73.5841 86.1988 71.4668 80.9408 68.8144 77.1316C68.5202 76.7129 68.2203 76.305 67.9135 75.9186C67.8261 75.8092 67.771 75.6776 67.7545 75.5385C67.7379 75.3995 67.7606 75.2587 67.8199 75.1318C67.8791 75.0051 67.9727 74.8972 68.0901 74.8205C68.2073 74.7438 68.3438 74.7013 68.484 74.6978C68.5529 74.6981 68.6214 74.7073 68.6879 74.7252C89.2805 80.0829 95.1962 98.2947 96.889 108.67C96.981 109.224 96.95 109.79 96.8004 110.332C96.6505 110.872 96.3844 111.374 96.0208 111.802C95.6571 112.23 95.2045 112.575 94.6943 112.81C94.1841 113.046 93.6286 113.169 93.0662 113.169H79.7831C79.2138 113.17 78.6661 112.952 78.2534 112.561C77.8407 112.17 77.5945 111.634 77.5658 111.068C77.3394 106.55 76.7199 99.7048 75.1074 92.7588Z" fill="black"/>
</g>
<defs>
<clipPath id="clip0">
<rect width="111.374" height="215" fill="white"/>
</clipPath>
</defs>
</svg>
