<svg width="112" height="216" viewBox="0 0 112 216" fill="none" xmlns="http://www.w3.org/2000/svg">
<path d="M102.073 0H9.32752C6.85458 0.00285844 4.48375 0.986494 2.73512 2.73512C0.986494 4.48375 0.00285844 6.85458 0 9.32752L0 205.809C0.00285844 208.282 0.986494 210.653 2.73512 212.402C4.48375 214.15 6.85458 215.134 9.32752 215.137H102.073C104.545 215.134 106.916 214.15 108.665 212.402C110.414 210.653 111.397 208.282 111.4 205.809V9.32752C111.397 6.85458 110.414 4.48375 108.665 2.73512C106.916 0.986494 104.545 0.00285844 102.073 0V0ZM106.491 205.809C106.491 206.981 106.025 208.105 105.197 208.933C104.368 209.762 103.244 210.228 102.073 210.228H9.32752C8.15571 210.228 7.0319 209.762 6.20331 208.933C5.37472 208.105 4.90922 206.981 4.90922 205.809V9.32752C4.91052 8.15611 5.37644 7.03306 6.20475 6.20475C7.03306 5.37644 8.15611 4.91052 9.32752 4.90922H14.7993L23.036 15.3767C25.037 17.9196 28.4411 19.4405 32.1426 19.4405H77.817C81.4665 19.4405 84.8451 17.955 86.85 15.468L95.3773 4.90922H102.073C103.244 4.91052 104.367 5.37644 105.195 6.20475C106.024 7.03306 106.49 8.15611 106.491 9.32752V205.809Z" fill="black"/>
<path d="M80.4421 194.227H30.9571C30.5665 194.227 30.1919 194.383 29.9157 194.659C29.6395 194.935 29.4844 195.31 29.4844 195.7C29.4844 196.091 29.6395 196.465 29.9157 196.742C30.1919 197.018 30.5665 197.173 30.9571 197.173H80.4421C80.8327 197.173 81.2073 197.018 81.4835 196.742C81.7597 196.465 81.9148 196.091 81.9148 195.7C81.9148 195.31 81.7597 194.935 81.4835 194.659C81.2073 194.383 80.8327 194.227 80.4421 194.227Z" fill="black"/>
<path fill-rule="evenodd" clip-rule="evenodd" d="M53.5826 71.2024C64.0599 70.9795 75.9235 72.9697 82.0208 81.494C87.7567 89.5118 81.089 100.076 81.2873 109.932C81.4945 120.211 90.2221 132.04 83.1901 139.54C76.1719 147.024 62.9848 143.585 53.5826 139.479C46.7971 136.516 45.5718 128.012 41.9733 121.541C39.8555 117.735 38.7745 113.973 37.1475 109.932C33.3527 100.506 22.358 92.0312 26.3276 82.6772C30.3296 73.2456 43.3371 71.4203 53.5826 71.2024Z" fill="#FCA425"/>
<path d="M38.136 141.945C36.9921 141.529 35.7403 141.288 34.7231 140.669C31.3927 138.624 30.2694 135.512 30.6543 131.706C31.1354 126.946 31.5321 122.177 31.968 117.412C32.3954 112.736 32.8242 108.06 33.2542 103.384C33.5815 99.7992 33.9068 96.2141 34.2302 92.6291C34.3608 91.171 35.1639 90.4032 36.6288 90.3983C38.6632 90.3915 40.6976 90.3983 42.8351 90.3983C42.8351 90.1146 42.8262 89.8573 42.8351 89.6001C42.9146 87.6148 42.7938 85.5952 43.1178 83.6501C44.5376 75.1267 54.6408 70.4865 62.0743 74.8911C66.3728 77.437 68.5162 81.2633 68.6065 86.2442C68.6311 87.603 68.6065 88.9639 68.6065 90.3983H72.3297C73.2241 90.3983 74.1196 90.3836 75.014 90.3983C76.2246 90.4248 77.0857 91.2201 77.1957 92.4268C77.7003 97.9252 78.1991 103.425 78.692 108.927C79.2526 115.073 79.8319 121.216 80.3778 127.364C80.5742 129.544 80.854 131.736 80.8069 133.916C80.7215 137.843 77.6238 141.181 73.7376 141.815C73.5891 141.849 73.4432 141.893 73.3007 141.947L38.136 141.945ZM38.3647 94.7067C38.3294 95.0336 38.297 95.2958 38.2734 95.5619C38.0299 98.2573 37.7871 100.952 37.5449 103.646C37.1181 108.345 36.6894 113.044 36.2587 117.742C35.8718 121.973 35.4863 126.205 35.1021 130.435C35.0235 131.304 34.9214 132.173 34.8978 133.043C34.8242 135.759 36.6396 137.632 39.3584 137.645C42.5356 137.661 45.7119 137.645 48.8891 137.645C56.5632 137.645 64.237 137.645 71.9104 137.645C73.0886 137.645 74.1628 137.378 75.0808 136.594C76.4554 135.416 76.6773 133.892 76.5182 132.209C76.1422 128.246 75.7936 124.282 75.4333 120.318C74.7185 112.457 74.0037 104.596 73.2889 96.7352C73.2261 96.0557 73.1466 95.3783 73.0768 94.7234H68.6124C68.6124 96.8216 68.6193 98.8756 68.6124 100.931C68.6055 102.305 67.714 103.265 66.4671 103.267C65.2201 103.269 64.3286 102.308 64.3217 100.935C64.3119 99.1004 64.3217 97.2654 64.3217 95.4303V94.7322H47.1287C47.1287 96.8186 47.1346 98.8559 47.1287 100.888C47.1228 102.311 46.2293 103.28 44.9578 103.267C43.7158 103.255 42.8419 102.293 42.836 100.911C42.8282 99.0759 42.836 97.2418 42.836 95.4067V94.6998L38.3647 94.7067ZM64.2049 90.36C64.2049 88.4818 64.3708 86.6359 64.1705 84.8313C63.765 81.1778 60.8058 78.1989 57.2868 77.6442C53.386 77.0295 49.7649 78.8656 48.0457 82.2412C46.7192 84.845 47.2602 87.6109 47.1208 90.36H64.2049Z" fill="black"/>
</svg>
