<svg width="112" height="215" viewBox="0 0 112 215" fill="none" xmlns="http://www.w3.org/2000/svg">
<path d="M102.008 0H9.32159C6.85023 0.00285662 4.4809 0.985867 2.73339 2.73339C0.985867 4.4809 0.00285662 6.85023 0 9.32159L0 205.678C0.00285662 208.15 0.985867 210.519 2.73339 212.267C4.4809 214.014 6.85023 214.997 9.32159 215H102.008C104.479 214.997 106.848 214.014 108.596 212.267C110.343 210.519 111.326 208.15 111.329 205.678V9.32159C111.326 6.85023 110.343 4.4809 108.596 2.73339C106.848 0.985867 104.479 0.00285662 102.008 0ZM106.423 205.678C106.423 206.849 105.958 207.973 105.13 208.801C104.302 209.629 103.179 210.094 102.008 210.094H9.32159C8.15053 210.094 7.02743 209.629 6.19937 208.801C5.3713 207.973 4.9061 206.849 4.9061 205.678V9.32159C4.9074 8.15093 5.37302 7.02858 6.2008 6.2008C7.02859 5.37302 8.15093 4.9074 9.32159 4.9061H14.7899L23.0214 15.3669C25.0211 17.9082 28.423 19.4282 32.1222 19.4282H77.7676C81.4148 19.4282 84.7911 17.9436 86.7948 15.4581L95.3167 4.9061H102.008C103.178 4.9074 104.301 5.37302 105.128 6.2008C105.956 7.02858 106.422 8.15093 106.423 9.32159V205.678Z" fill="black"/>
<path d="M80.3921 194.104H30.9386C30.5483 194.104 30.1739 194.259 29.8979 194.535C29.6219 194.811 29.4668 195.185 29.4668 195.576C29.4668 195.966 29.6219 196.341 29.8979 196.617C30.1739 196.893 30.5483 197.048 30.9386 197.048H80.3921C80.7825 197.048 81.1568 196.893 81.4329 196.617C81.7089 196.341 81.8639 195.966 81.8639 195.576C81.8639 195.185 81.7089 194.811 81.4329 194.535C81.1568 194.259 80.7825 194.104 80.3921 194.104Z" fill="black"/>
<path fill-rule="evenodd" clip-rule="evenodd" d="M87.7095 119.905C81.7241 128.501 73.1364 136.913 62.6629 136.823C52.8124 136.739 48.2007 125.136 40.1223 119.498C31.6975 113.617 17.0067 113.709 15.0855 103.615C13.1692 93.5427 23.7065 84.9138 32.5512 79.734C38.937 75.9965 46.5277 80.0097 53.8721 80.9114C58.1895 81.4403 61.8671 82.7758 66.0883 83.8443C75.9358 86.3248 89.251 82.4294 94.4721 91.1397C99.7412 99.9255 93.5615 111.506 87.7095 119.905Z" fill="#FCA425"/>
<path d="M90.5797 110.605C90.5326 110.529 90.4815 110.437 90.4325 110.342C90.2852 110.036 90.0952 109.753 89.8683 109.5C87.9421 107.486 86.0523 105.535 84.2498 103.703C83.1469 102.583 81.6584 102.549 80.5467 103.62C78.6824 105.417 76.7965 107.273 74.7918 109.293C73.7478 110.345 73.7046 111.859 74.6878 112.894C75.671 113.929 77.2459 113.938 78.3507 112.916C78.7344 112.561 79.1112 112.195 79.4801 111.83L79.4565 111.963C78.8721 115.127 77.6623 118.143 75.8981 120.833C74.1338 123.524 71.8505 125.836 69.1819 127.633C66.5133 129.431 63.5129 130.677 60.3564 131.301C57.1999 131.925 53.9507 131.912 50.799 131.265C43.1171 129.669 37.3887 125.244 33.7749 118.116C33.7386 118.046 33.7042 117.975 33.6689 117.904C33.4951 117.533 33.2926 117.176 33.0635 116.836C32.4904 116.022 31.5917 115.665 30.5957 115.855C29.7901 116.009 29.1563 116.463 28.8109 117.13C28.4302 117.872 28.4468 118.772 28.859 119.666C30.632 123.514 33.0782 126.82 36.1288 129.493C41.1517 133.891 47.04 136.352 53.6308 136.808C54.3635 136.858 55.0899 136.883 55.8101 136.883C61.8554 136.883 67.4307 135.101 72.4094 131.573C79.278 126.701 83.4089 119.98 84.6747 111.591C85.129 112.007 85.5862 112.431 86.0219 112.86C86.854 113.678 87.6958 114.031 88.5269 113.911C89.358 113.79 90.0449 113.224 90.5963 112.227L90.7151 112.012V110.835L90.5797 110.605Z" fill="black"/>
<path d="M28.8343 112.193C29.5211 112.193 30.1844 111.882 30.8546 111.243C32.8553 109.336 34.8109 107.454 36.2896 106.029C36.5421 105.792 36.7634 105.523 36.948 105.23C37.1488 104.905 37.271 104.537 37.3051 104.156C37.3391 103.775 37.2841 103.392 37.1442 103.036C37.0058 102.672 36.7846 102.346 36.4981 102.083C36.2116 101.819 35.8678 101.626 35.4938 101.519C34.0554 101.103 33.0928 102.025 32.7768 102.33L31.6926 103.373C32.7032 97.6942 35.431 92.8951 39.8151 89.0889C43.4545 85.9314 47.7846 84.0219 52.6858 83.4165C57.3211 82.8425 61.8464 83.6 66.1383 85.6664C70.1613 87.6014 73.3993 90.4224 75.7641 94.05C76.2753 94.835 76.7119 95.6572 77.1741 96.5305C77.3703 96.8945 77.5666 97.2713 77.7707 97.6422C78.433 98.8432 79.4603 99.4084 80.5897 99.1827C81.4022 99.0228 82.04 98.5646 82.3873 97.8915C82.7661 97.1585 82.7543 96.2656 82.3539 95.3786C81.2674 92.9421 79.8416 90.6716 78.119 88.6346C72.7557 82.3548 65.8793 78.845 57.6802 78.2092C50.7695 77.6744 44.369 79.4671 38.6573 83.5392C32.2499 88.1048 28.2377 94.3708 26.7315 102.164C26.6442 102.613 26.5726 103.064 26.5068 103.512C26.028 103.009 25.5344 102.498 25.035 101.987C24.2991 101.235 23.3218 100.984 22.3543 101.3C21.4447 101.595 20.8246 102.323 20.6529 103.299C20.4321 104.556 21.2416 105.402 21.5477 105.721C22.1731 106.371 22.7975 107.022 23.4209 107.674C24.5329 108.835 25.645 109.995 26.757 111.155C27.4135 111.841 28.0768 112.178 28.7823 112.195L28.8343 112.193Z" fill="black"/>
</svg>
