<svg width="1919" height="1029" viewBox="0 0 1919 1029" fill="none" xmlns="http://www.w3.org/2000/svg">
<path fill-rule="evenodd" clip-rule="evenodd" d="M1803.72 142.218C1690.44 97.6533 1460.44 8.5272 1232.14 53.0903C1103.63 78.1786 974.57 145.64 845.578 213.065C745.443 265.396 645.351 317.726 545.586 350.183C333.587 419.161 120.103 398.455 0 383.252V1028.67H1918.72V186.783L1803.72 142.218Z" fill="#FCA425"/>
<path d="M217.466 443.727C132.328 443.727 57.3657 434.029 0.427734 425.318L1.77709 413.933C138.273 434.82 343.013 453.434 544.263 374.278C643.466 335.26 744.917 271.157 843.013 209.167C906.429 169.093 971.995 127.662 1036.52 93.2567C1071.31 74.705 1103.01 59.6301 1133.44 47.1661C1167.65 33.1498 1199.39 22.7735 1230.46 15.4411C1258.16 8.90573 1287.1 4.48536 1316.5 2.30342C1343.88 0.272102 1372.38 0.129846 1401.21 1.88502C1452.03 4.9707 1505.83 14.0708 1561.1 28.9281C1663.51 56.4629 1751.57 98.3361 1804.19 123.358L1919 177.147L1915.15 187.766L1800.29 133.954C1711.16 91.5643 1543.95 12.0563 1362.11 12.0563C1319.44 12.0563 1276 16.4285 1232.53 26.6855C1104.95 56.7955 974.287 139.364 847.934 219.199C798.728 250.292 747.857 282.437 697.828 311.074C641.623 343.245 592.474 367.47 547.568 385.131C497.741 404.731 444.429 419.6 389.115 429.326C341.376 437.723 290.931 442.506 239.182 443.514C231.877 443.659 224.638 443.73 217.466 443.727Z" fill="url(#paint0_linear)"/>
<defs>
<linearGradient id="paint0_linear" x1="0.427734" y1="222.196" x2="1919" y2="222.196" gradientUnits="userSpaceOnUse">
<stop stop-color="#FFE9C9"/>
<stop offset="0.48" stop-color="#FFB955"/>
<stop offset="0.99" stop-color="#FCA425"/>
</linearGradient>
</defs>
</svg>
